<?xml version="1.0"?>
<svg xmlns="http://www.w3.org/2000/svg" xmlns:xlink="http://www.w3.org/1999/xlink" version="1.1" id="Capa_1" x="0px" y="0px" viewBox="0 0 512 512" style="enable-background:new 0 0 512 512;" xml:space="preserve" width="512px" height="512px" class=""><g><g>
	<g>
		<path d="M395.636,116.364c-19.247,0-34.909,15.663-34.909,34.909c0,19.247,15.663,34.909,34.909,34.909    c19.247,0,34.909-15.663,34.909-34.909C430.545,132.026,414.883,116.364,395.636,116.364z M395.636,162.909    c-6.423,0-11.636-5.213-11.636-11.636c0-6.423,5.213-11.636,11.636-11.636c6.423,0,11.636,5.213,11.636,11.636    C407.273,157.696,402.06,162.909,395.636,162.909z" data-original="#000000" class="active-path" data-old_color="#000000" fill="#FFFFFF"/>
	</g>
</g><g>
	<g>
		<circle cx="407.273" cy="232.727" r="11.636" data-original="#000000" class="active-path" data-old_color="#000000" fill="#FFFFFF"/>
	</g>
</g><g>
	<g>
		<circle cx="162.909" cy="232.727" r="11.636" data-original="#000000" class="active-path" data-old_color="#000000" fill="#FFFFFF"/>
	</g>
</g><g>
	<g>
		<circle cx="407.273" cy="279.273" r="11.636" data-original="#000000" class="active-path" data-old_color="#000000" fill="#FFFFFF"/>
	</g>
</g><g>
	<g>
		<circle cx="407.273" cy="325.818" r="11.636" data-original="#000000" class="active-path" data-old_color="#000000" fill="#FFFFFF"/>
	</g>
</g><g>
	<g>
		<path d="M512,174.545v-69.818c0-6.435-5.201-11.636-11.636-11.636H474.95c-4.817-13.51-17.617-23.273-32.768-23.273h-34.909    V46.545c0-6.435-5.201-11.636-11.636-11.636c-6.435,0-11.636,5.201-11.636,11.636v23.273H174.545V46.545    c0-6.435-5.201-11.636-11.636-11.636c-6.435,0-11.636,5.201-11.636,11.636v23.273h-38.47c-17.14,0-31.616,12.276-34.432,29.172    l-4.573,27.415c-2.641,15.884-3.98,32.07-3.98,48.14s1.338,32.256,3.991,48.151l1.327,7.959    c4.445,26.682,26.38,46.208,52.945,48.233c-0.012,0.128-0.081,0.244-0.081,0.384c0,6.435,5.201,11.636,11.636,11.636v34.909    c0,6.435,5.201,11.636,11.636,11.636c6.435,0,11.636-5.201,11.636-11.636v-34.909c6.435,0,11.636-5.201,11.636-11.636    c19.247,0,34.909-15.663,34.909-34.909v-34.909c0-6.423,5.213-11.636,11.636-11.636h93.091c6.423,0,11.636,5.213,11.636,11.636    v116.364c0,6.435,5.201,11.636,11.636,11.636c6.435,0,11.636-5.201,11.636-11.636V209.455c0-19.247-15.663-34.909-34.909-34.909    h-93.091c-4.096,0-7.983,0.838-11.636,2.141v-13.777c0-6.435-5.201-11.636-11.636-11.636c-6.435,0-11.636,5.201-11.636,11.636    v81.455c0,6.423-5.213,11.636-11.636,11.636h-42.019c-17.14,0-31.616-12.276-34.432-29.184l-1.327-7.959    c-2.444-14.615-3.677-29.521-3.677-44.311c0-14.79,1.233-29.696,3.665-44.323l4.573-27.415c0.931-5.62,5.76-9.716,11.473-9.716    h329.379c6.423,0,11.636,5.213,11.636,11.636v58.205c0,23.889,2.374,47.895,7.063,71.377l21.225,106.135    c4.398,21.969,6.621,44.439,6.621,66.804v34.932c0,6.423-5.213,11.636-11.636,11.636H34.909c-6.423,0-11.636-5.213-11.636-11.636    v-23.273c0-19.247,15.663-34.909,34.909-34.909h395.636c6.435,0,11.636-5.201,11.636-11.636s-5.201-11.636-11.636-11.636H58.182    C26.1,360.727,0,386.828,0,418.909v23.273c0,19.247,15.663,34.909,34.909,34.909h442.182c19.247,0,34.909-15.663,34.909-34.909    v-34.932c0-23.889-2.374-47.895-7.063-71.377l-21.225-106.135c-2.863-14.359-4.713-28.94-5.714-43.555h22.365    C506.799,186.182,512,180.98,512,174.545z M488.727,162.909h-11.636v-46.545h11.636V162.909z" data-original="#000000" class="active-path" data-old_color="#000000" fill="#FFFFFF"/>
	</g>
</g></g> </svg>
