<svg xmlns="http://www.w3.org/2000/svg" viewBox="0 0 800 1000"><title>bg-app-frame</title><g id="backgrounds"><path id="app-frame" d="M691.58,435.67c-.39-36.72-.78-74.7-.85-112-.05-28.17-2.88-82.44-3-84.74a10,10,0,0,0-10-9.47h-.21c-193.3,3.86-375.26,4.54-556.27,2.07a9.81,9.81,0,0,0-2.23.22L112.91,233a10,10,0,0,0-7.9,9.39c-6.41,164.21-9.14,323.06-8.58,499.9a10,10,0,0,0,9.66,10c2.36.08,51.38,1.77,84.95,1.77,4.84,0,9.36,0,13.37-.12,56.54-1.12,114.36-1.93,170.27-2.71,98.89-1.37,201.15-2.79,304.18-6.06a10,10,0,0,0,9.67-9.48C693.67,635.65,692.6,534,691.58,435.67ZM200,267.67l.9-2.52a10,10,0,0,1,18.83,6.75l-.91,2.53A10,10,0,0,1,200,267.67Zm-34,.8a10,10,0,0,1,20,0V271a10,10,0,0,1-20,0Zm-33.75-2.06.91-2.52A10,10,0,1,1,152,270.63l-.91,2.53a10,10,0,0,1-18.83-6.75ZM669,725.46c-99.74,3.06-198.75,4.43-294.61,5.77-55.94.77-113.79,1.58-170.39,2.7-24,.48-68.17-.73-87.6-1.33-.38-150.81,1.66-288.72,6.37-428.43q120.84,0,241.67-.53,122.88-.51,245.75-1.5l34-.29c8.73-.07,18.25.62,26.06-3.72.3,9.42.5,18.41.51,25.55.07,37.42.47,75.44.85,112.2C672.57,530.87,673.59,629,669,725.46Z" style="fill:#1e78f0;opacity:0.25"/></g></svg>