<svg xmlns="http://www.w3.org/2000/svg" viewBox="0 0 800 1000"><title>bg-arrow-up</title><g id="backgrounds"><path id="arrow-up" d="M634.06,339.67c-4.16-3-22.39-24.4-34.75-36.5q-22.78-22.34-45.68-44.57c-30.55-29.81-60.48-60.46-92.07-89.17a588.9,588.9,0,0,0-54-43.47c-3-2.14-7.27-1.27-10,1.08a8,8,0,0,0-.84.59c-31.89,26.15-60.92,55.1-88.34,85.86-13.38,15-71.27,71.65-87.24,84.58a255.46,255.46,0,0,0-44.22,45.41,8,8,0,0,0-4.86,7.46,9.31,9.31,0,0,0,4.92,7.83l.2.14a8,8,0,0,0,8.29,0c25.54-2.63,51.22-2.24,76.85-1.24.58,98.06,1.12,196.13-.44,294.18-.79,49.7-3.31,99.39-3.9,149.08-.07,5.93-.07,11.86.07,17.79.12,5.38.1,10.88,3,15.63,6.09,10,20.16,7.72,30,7.61l75.51-.88,166.93-1.94a8.64,8.64,0,0,0,8.5-8.5l5.46-371.71,1.46-99.12c25.61-.36,70.79,1.53,75.12,1.53s10.24-1.16,13.09-3.95C643.11,353.61,638.22,342.68,634.06,339.67Z" style="fill:#1e78f0;opacity:0.25"/></g></svg>