<svg xmlns="http://www.w3.org/2000/svg" viewBox="0 0 800 1000"><title>bg-bang-bang</title><g id="backgrounds"><g id="bang-bang" style="opacity:0.25"><path d="M146.41,566.21c-12.21-9.46-28.09-13.27-43.54-13.15S72.25,557,57.44,561.33" style="fill:none;stroke:#1e78f0;stroke-linecap:round;stroke-linejoin:round;stroke-width:30px"/><path d="M262.83,517.49a112.18,112.18,0,0,1,16.8-24.79" style="fill:none;stroke:#1e78f0;stroke-linecap:round;stroke-linejoin:round;stroke-width:30px"/><path d="M306.55,556.94c18.41-13.08,44.36-14.57,64.14-3.69" style="fill:none;stroke:#1e78f0;stroke-linecap:round;stroke-linejoin:round;stroke-width:30px"/><path d="M285.2,622.44l22.83,12c13.3,7,17.84,20.9,27.63,32.31" style="fill:none;stroke:#1e78f0;stroke-linecap:round;stroke-linejoin:round;stroke-width:30px"/><path d="M216.52,647.85A129.2,129.2,0,0,0,206.05,731" style="fill:none;stroke:#1e78f0;stroke-linecap:round;stroke-linejoin:round;stroke-width:30px"/><path d="M159.19,637.59c-8.54,2.54-51,40.64-57.26,51.85" style="fill:none;stroke:#1e78f0;stroke-linecap:round;stroke-linejoin:round;stroke-width:30px"/><path d="M196.4,521.8a61.47,61.47,0,0,0-50.06-28.41" style="fill:none;stroke:#1e78f0;stroke-linecap:round;stroke-linejoin:round;stroke-width:30px"/><path d="M648.26,406.14c19.67-11.25,40.88-18.32,64.17-18.73" style="fill:none;stroke:#1e78f0;stroke-linecap:round;stroke-linejoin:round;stroke-width:30px"/><path d="M582,375.14c-7.2-15.5-16.7-24-31.86-31.92" style="fill:none;stroke:#1e78f0;stroke-linecap:round;stroke-linejoin:round;stroke-width:30px"/><path d="M535,422.5c-28.57-13.74-59.14-15.95-88.12-2.65" style="fill:none;stroke:#1e78f0;stroke-linecap:round;stroke-linejoin:round;stroke-width:30px"/><path d="M541,477.3a112.82,112.82,0,0,0-42.87,37.09" style="fill:none;stroke:#1e78f0;stroke-linecap:round;stroke-linejoin:round;stroke-width:30px"/><path d="M596.52,495.25c-14,27.38-13.76,60.22-10.15,90.76" style="fill:none;stroke:#1e78f0;stroke-linecap:round;stroke-linejoin:round;stroke-width:30px"/><path d="M650.74,463.61A99.36,99.36,0,0,1,710,491" style="fill:none;stroke:#1e78f0;stroke-linecap:round;stroke-linejoin:round;stroke-width:30px"/><path d="M387.87,479c-9.44-82.95-45.88-226.57-81.73-301.75" style="fill:none;stroke:#1e78f0;stroke-linecap:round;stroke-linejoin:round;stroke-width:30px"/><path d="M345.67,152.91c33.73,7.27,57.82,28.32,71.89,58.12" style="fill:none;stroke:#1e78f0;stroke-linecap:round;stroke-linejoin:round;stroke-width:30px"/><path d="M260.07,180.45a185,185,0,0,0-21.71,110.91" style="fill:none;stroke:#1e78f0;stroke-linecap:round;stroke-linejoin:round;stroke-width:30px"/><path d="M333.14,112.16c9.59-11.21,28-13.41,40-4.76" style="fill:none;stroke:#1e78f0;stroke-linecap:round;stroke-linejoin:round;stroke-width:30px"/><path d="M247.43,138.29c-15.72-3.77-33.49,6.2-38.47,21.58" style="fill:none;stroke:#1e78f0;stroke-linecap:round;stroke-linejoin:round;stroke-width:30px"/><path d="M284.56,88.07l-1,5.78" style="fill:none;stroke:#1e78f0;stroke-linecap:round;stroke-linejoin:round;stroke-width:30px"/></g></g></svg>