<svg xmlns="http://www.w3.org/2000/svg" viewBox="0 0 800 1000"><title>bg-books</title><g id="backgrounds"><g id="books" style="opacity:0.25"><path d="M358.4,220.88l-73.74-97.16c-1.81-2.39-5.52-3.74-8.37-2.39a105.73,105.73,0,0,0-17.92,10.73q-6.74-6.42-13.67-12.59a7.22,7.22,0,0,0-8.71-.19,125.91,125.91,0,0,0-28.8,29.62l-15.34-9.73c-4.34-2.75-10.75-1.35-11.52,4.49-2.54,19.09-.31,37.19,5.09,54.71-39.92,2.75-82.52,10.3-110.95,40.9-1.93,2.07-2.21,6.54-.19,8.7,5.32,5.67,10.56,11.4,15.78,17.15-9.45,4.54-22.71,11.5-17.34,22.68,2.7,5.62,8.86,10.25,13.11,14.69l15.92,16.61,61.39,64.06c2.86,3,7.6,1.36,10-1.08a237.11,237.11,0,0,1,84-54.15c7.49-2.81,15.86-4.51,21.38-10.74,5.18-5.84,6.66-13.8,9.42-20.87a112.29,112.29,0,0,1,24.58-37.75,110.75,110.75,0,0,1,42.72-26.84C359.62,230.22,361.08,224.41,358.4,220.88Z" style="fill:#1e78f0"/><path d="M649.43,392.06c1.11-7.37-2.56-14.72-5.84-21.09-.81-1.56-1.65-3.09-2.51-4.61q13.59-10.58,26.73-21.73c2.49-2.11,3.61-6.47,1.12-9.12a115.33,115.33,0,0,0-80.85-36.35,238.32,238.32,0,0,0,43.21-56.53c3-5.34-3.9-10.1-8.6-8.38-14.21,5.2-26,14.7-37.52,24.27l-4.75,4a101.44,101.44,0,0,0-19.84-38.68c-1.77-2.14-5.07-3.26-7.69-2q-11.43,5.61-22.42,12c-1.63-1.37-3.28-2.73-5-4.05-5.17-4-11.39-10-18.44-8.17-3.42.88-6.56,3.33-9.56,5.14-3.26,2-6.53,3.94-9.78,5.93-13,8-25.88,16.14-38.15,25.2a249.21,249.21,0,0,0-38.22,34.41c-2.13,2.4-1.61,7.45,1.26,9.11,24.61,14.25,41.55,37.11,57.8,59.83,8.19,11.46,16.3,23,25.33,33.82s19.49,20.57,28,31.91a70.5,70.5,0,0,1,9.88,17.69c2.47,6.66,7.07,11.66,14.72,8.85,7.41-2.73,14.59-7.18,21.62-10.79q11.37-5.82,22.63-11.88,21.69-11.64,43-24.08C641.69,403.12,648.25,399.88,649.43,392.06Z" style="fill:#1e78f0"/><path d="M596.55,719.31a293.93,293.93,0,0,0-27-29.41l17.11,1.58c6.7.62,13.15,1.62,19.46-1.32,5.43-2.54,4-10-1-12a139,139,0,0,1-28.61-15.54,214.15,214.15,0,0,0,25.56-16.22c4.74-3.52,1.8-9.35-2.69-10.75a5.49,5.49,0,0,0-3-4.47L553.61,607.4c-7.15-4-14.3-8.84-21.88-11.95-6.9-2.82-12.72-1-19.09,2.18a182.82,182.82,0,0,1-82.25,18.82c-4.42,0-8.92,5.15-6.06,9.47,7.5,11.31,5.39,25.13,1.88,37.51a243,243,0,0,1-20.06,48.93c-1.24,2.29-1.65,5.94.59,7.9a714.63,714.63,0,0,0,94.67,70.14,6.58,6.58,0,0,0,9.76-3.44q5.54-16.53,9.5-33.52a159.48,159.48,0,0,0,28.42,12.79c3.82,1.29,8.54-1.69,8.48-5.91-.26-18.09-1.19-37.7-7.6-54.67q19.24,11.45,38.17,23.43C594.5,733.11,601.1,725,596.55,719.31Z" style="fill:#1e78f0"/></g></g></svg>