<svg xmlns="http://www.w3.org/2000/svg" viewBox="0 0 800 1000"><title>bg-bicycle</title><g id="backgrounds"><path id="bicycle" d="M641.22,633a143.94,143.94,0,0,0-40.7,5.85c-4-10-10.39-26.65-16.62-42.88-8-20.73-16.12-42-21.23-54.54,9-3.42,19.31-8.3,23-17.57,3.41-8.7,1.93-19.72-3.76-28.07A28.76,28.76,0,0,0,557.4,483H486.45a9.53,9.53,0,0,0,0,19.06H557.4a10,10,0,0,1,8.71,4.43c2.4,3.52,2.7,8,1.77,10.36-1.29,2.89-12.47,6.93-16.15,8.26-1.93.69-3.75,1.35-5.36,2a9.54,9.54,0,0,0-5,13c1.82,3.78,6.45,15.44,12,29.71-14.6-.1-29.64-.29-44.28-.47-19.86-.25-40.39-.51-60.39-.55-21.05,0-101,0-122.08,0-4.09-9.14-7.58-16.94-10-22.35,12-.2,28-.57,28.87-.59a9.53,9.53,0,0,0-.22-19.06h-.23c-.27,0-24.25.56-35.55.68h-.26l-3.14,0h-1.35c-12.78,0-23,.11-28.73,1.66a15.82,15.82,0,0,0-10.79,9.71,15.51,15.51,0,0,0,1.94,14.3,13.2,13.2,0,0,0,11.2,5.8,20.21,20.21,0,0,0,6.21-1.06,71.81,71.81,0,0,0,11.89-5.67l1.5-.82c2.68,6,7.45,16.6,13.16,29.38-7.18,9.48-14.41,19.08-21.44,28.42C276.39,626.86,263.5,644,252.64,658a143.74,143.74,0,0,0-81.21-25c-79.74,0-144.6,64.87-144.6,144.6s64.86,144.6,144.6,144.6c77.1,0,140.29-60.67,144.38-136.77,16.47-.35,33.07-.76,49.64-1.28a33,33,0,0,0,3.64,6.57,43.62,43.62,0,0,0,18.12,14.6,36.29,36.29,0,0,0,24.08,4l1.32-.1c17.49-1.85,29.18-16.24,31.86-33.08a47.4,47.4,0,0,0-1.81-23.35,33.23,33.23,0,0,0-1.85-4.93c-.16-.35-.35-.66-.53-1l2.41-2.73c14.87-16.87,30.24-34.3,44.11-52.51,20.41-26.77,60.61-77.08,77.23-94.23.69,1.81,1.39,3.62,2.08,5.41,6.6,17.2,12.56,32.73,16.51,42.62a144.8,144.8,0,0,0-86,132.18c0,79.73,64.87,144.6,144.6,144.6s144.59-64.87,144.59-144.6S721,633,641.22,633ZM304.91,620.66c5-6.58,10-13.29,15.08-20,12,27.1,25.39,57.48,32.09,73.74,5.1,12.4,17.91,41.18,27.44,62.45a46.85,46.85,0,0,0-7.59,8.06,45.23,45.23,0,0,0-8.62,20.2c-15.92.49-31.88.88-47.72,1.22a144.39,144.39,0,0,0-47.94-96.6C278.64,655.55,291.57,638.38,304.91,620.66ZM193,769.25c-.25-.62-.52-1.23-.82-1.82,18.31-25,45.05-61.12,52.54-69.44,3.05-3.39,6.82-7.89,11.14-13.26a125.33,125.33,0,0,1,40.65,82l-12.25.24C254.32,767.58,223.55,768.19,193,769.25ZM171.43,903.11A125.54,125.54,0,1,1,240.81,673c-4,5-7.48,9.12-10.27,12.23-8.64,9.59-37.81,49.16-52.9,69.77a8.94,8.94,0,0,0-5.17-.15c-8.46-.56-17.23,3.26-21.59,11.78-9,17.53,7.07,38.15,26.37,33.21a23.39,23.39,0,0,0,14.37-11.49c31.11-1.09,62.49-1.72,93-2.32l12.06-.24C292.43,851.2,237.88,903.11,171.43,903.11ZM471.65,680c-13.47,17.66-28.61,34.84-43.26,51.45-.68.78-1.38,1.58-2.08,2.36a36.92,36.92,0,0,0-5.66-2.36,36.28,36.28,0,0,0-18.29-.92,42.21,42.21,0,0,0-4.89-.29c-9.56-21.31-22.72-50.86-27.77-63.12-7.18-17.46-21.92-50.9-34.56-79.33,28.8,0,94.73,0,113.55,0,19.9,0,40.37.3,60.18.55,12.25.15,24.79.31,37.12.41C520.31,616.74,472.21,679.29,471.65,680ZM641.22,903.11A125.53,125.53,0,0,1,590,663c11.09,26.77,26.67,71.72,35.42,97.49a21.22,21.22,0,0,0-4.77,6.19c-9,17.53,7.07,38.15,26.37,33.21,9.59-2.46,16.84-11.71,17.26-21.51.47-10.93-6.85-19.54-16.61-23.25a8.74,8.74,0,0,0-4.1-.48c-8.68-25.61-24.17-70.34-35.61-98.1a125.54,125.54,0,1,1,33.24,246.6Z" style="fill:#1e78f0;opacity:0.25"/></g></svg>