<svg xmlns="http://www.w3.org/2000/svg" viewBox="0 0 800 1000"><title>bg-boxing-ring</title><g id="backgrounds"><path id="boxing-ring" d="M73.48,438a60.33,60.33,0,0,1-1.15,16.7,7,7,0,0,0,.93,5.49l0,3.08q0,12.47.1,24.92L75,894.75l.08,20.44h86.34c2.75-5.48,2.72-11.86,2.58-18q-.89-38.76-1.85-77.51a2771.63,2771.63,0,0,0,362.49,2.11q48.47-2.91,96.8-7.52l-1.42,74.38-.49,25.9c0,.2,0,.4,0,.6H703a17,17,0,0,0,1.17-1.34c4.62-5.9,4.76-13.46,4.76-20.63q0-56.76-.1-113.52-.11-113.52-.2-227,0-63.73-.11-127.47c0-2.95-2.49-6.7-5.66-7.11a240.73,240.73,0,0,0-70.85,1.28c-4,.66-6.11,5.81-5,9.33a7.53,7.53,0,0,0,.58,1.38q-.42,9.65-.19,19.27a7.34,7.34,0,0,0,.08,2.78q.15,4.13.42,8.25-91.36-5.56-182.87-7.82-103.26-2.52-206.56-.81-42.54.7-85.08,2.15-.3-12.27-.59-24.55c-.07-3-2.65-6.64-5.82-7a240.63,240.63,0,0,0-70.81,2.91c-4,.75-6,6-4.82,9.45A7.14,7.14,0,0,0,73.48,438ZM621.76,799.26a2770,2770,0,0,1-370,10.42q-45-1.74-89.94-5-.26-10.49-.5-21-.92-37.74-1.82-75.47C216,716,273,719.71,330,720.59c67.79,1,135.57-1.75,203.22-5.92,30.1-1.85,60.19-4,90.27-6.17Zm2-105.78c-59.14,4.31-118.3,8.38-177.56,10.6-66.94,2.51-134,2.65-200.91-2-28.82-2-57.57-4.91-86.18-8.9q-1.17-49-2.35-98.06,84.84,4.82,169.83,6.09,103.27,1.51,206.53-2.27,46.29-1.69,92.53-4.47ZM327.85,466.05q103.29.12,206.51,4.48,46.82,2,93.58,4.85c0,2.26-.09,4.52-.13,6.78L626,579.47q-91,5.41-182.16,6.76-103.26,1.5-206.52-2.31-40.44-1.49-80.85-3.81-.28-11.67-.56-23.35-1.05-43.93-2.11-87.88Q240.77,466,327.85,466.05Z" style="fill:#1e78f0;opacity:0.25"/></g></svg>