<svg xmlns="http://www.w3.org/2000/svg" viewBox="0 0 800 1000"><title>bg-chat</title><g id="backgrounds"><path id="chat" d="M668.76,123.54c-1.56-11.44-6.42-27.6-13.77-37.88-10.44-14.61-33.7-20.47-52.8-23.94-28.9-5.25-102.59-15.39-162.64,3.89C419,72.23,405.5,87,400.64,108.34c-3.77,16.5-1.7,33.66-.47,43.91l0,.31c2.73,22.69,21.4,52.09,38.42,60.51a195.94,195.94,0,0,0,31.71,12.11c-1.63,11.07-8.09,31.47-12.35,41.26a248.12,248.12,0,0,1-11.95,23c-.84,1.5-1.69,3-2.53,4.5a13.61,13.61,0,1,0,23.77,13.28c.83-1.47,1.65-2.94,2.48-4.4A274.48,274.48,0,0,0,483,277.29c4.44-10.23,12.12-33.11,14.36-48.61,28.52-.05,60.13-.41,89.28-5.25.32-.05.64-.12.95-.2,19.2-4.95,35-9.45,49.4-18.42C662.61,188.81,672.48,151,668.76,123.54ZM463.1,160.6h-2.55a19.57,19.57,0,1,1,0-39.14h2.55a19.57,19.57,0,1,1,0,39.14Zm67.23,0h-4.25a19.57,19.57,0,0,1,0-39.14h4.25a19.57,19.57,0,1,1,0,39.14Zm66.38.85h-3.4a19.57,19.57,0,1,1,0-39.14h3.4a19.57,19.57,0,1,1,0,39.14Z" style="fill:#1e78f0;opacity:0.25"/></g></svg>