<svg xmlns="http://www.w3.org/2000/svg" viewBox="0 0 800 1000"><title>bg-cape</title><g id="backgrounds"><path id="cape" d="M729.41,773.39q-32.26-33.95-61.26-70.8C601.15,617.3,529.7,467.8,518.5,437.5c-7.91-21.42-15.63-46.32-29.19-61.1-13-14.21-29.68-19.61-48.64-18.06-20.59,1.69-34.49,3.73-55,2.32-19.88-1.38-40-3.12-59.67,1.67-8.61,2.1-17.63,13.17-22.83,20.51-5,7-6.85,21.11-6.6,21.51,2.07,58,10.35,105.8,25.19,161.81,13.66,51.57,30.76,102.14,47.95,152.62,7.37,21.64,15.71,46.07,37.77,56.84,9.81,4.79,21.23,6.51,31.64,2.58s17.95-12.51,27.72-17.66c17.4-9.16,39.7-7.72,56.06,3,9.51,6.24,16,16,25.4,22.48s20.83,9.09,32,9.28c25,.41,47-11.59,70.27-18.57,23.84-7.14,48.36-5,69.65,8.36C727.6,789.72,735.17,779.45,729.41,773.39Z" style="fill:#1e78f0;opacity:0.25"/></g></svg>