<svg xmlns="http://www.w3.org/2000/svg" viewBox="0 0 800 1000"><title>bg-clouds</title><g id="backgrounds"><g id="clouds" style="opacity:0.25"><path d="M279.42,193.82a40,40,0,0,0-28.35-14.19,33.29,33.29,0,0,0-1.27-17.69c-2.38-6.58-6.64-12.11-12.56-14.47a10.23,10.23,0,0,0-8.37-3.61c-7,.09-14.47,4.94-20.34,8.29q-1.91,1.09-3.76,2.26c1.7-12.13,1.94-24.49-2.25-36-5-13.78-16.24-26.64-31.17-29.61-16.57-3.3-32.32,6.65-44.76,16.5a118.41,118.41,0,0,0-40.13,60.43c-8.08-7.9-19.68-12.31-31.23-10.62-20.55,3-31,25.12-26.52,44.11,6.1,26,37.09,28.76,58.88,32.86a616.38,616.38,0,0,0,85.77,10,596.92,596.92,0,0,0,70.65-.95c12.64,2.56,25.77,7.55,37.45.11a7.17,7.17,0,0,0,3.45-5.43C290.79,222,289.18,205.71,279.42,193.82Z" style="fill:#1e78f0"/><path d="M700,336.07a90.73,90.73,0,0,0-3.31-24.2c-2.05-7.26-4.78-17.54-12.56-20.62C676,288,666.72,294,659.92,298.1a104.39,104.39,0,0,0-10.46,7.27c-1.89-10.4-4.68-20.65-10.21-29.74-6.93-11.38-18.3-20.85-31.76-22.83-13.63-2-27,4.16-36.16,14.15-9.84,10.75-14.65,24.85-18.15,38.73a297.71,297.71,0,0,0-7.65,45.08c-26.57-6.84-56.33,7.59-66.42,33.91-1.14,3,.74,7,3.45,8.47,15.19,8.16,32.8,6.95,49.49,6.82q27.86-.21,55.7-1,56.68-1.59,113.27-5.51a7.65,7.65,0,0,0,3.83-1.28,7.41,7.41,0,0,0,6.16-3.33C722.59,372.16,716.91,346.83,700,336.07Z" style="fill:#1e78f0"/><path d="M240.54,518.46a8,8,0,0,0-9,1.58,99.28,99.28,0,0,0-27.28,40.41q-5.44-14.38-12.11-28.3c-6.62-13.8-14.48-27.46-25.81-38-10.59-9.82-28.57-19.87-43.09-13.13-7.57,3.51-11.47,10.86-14.07,18.42a208.42,208.42,0,0,0-6.73,26.43,298.76,298.76,0,0,0-5.36,41.3q-5.3-5.72-11-11c-8.44-7.75-19.28-15.89-29.26-5.15-13.84,14.88-14.14,39.12-5.35,56.5a2.12,2.12,0,0,0-.12.2c-1.75,3.25-.62,8.68,3.15,10.13A388.32,388.32,0,0,0,307.3,627c3.77-1.15,6.29-5.57,4.93-9.39C298.69,579.39,281,534.94,240.54,518.46Z" style="fill:#1e78f0"/></g></g></svg>