<svg xmlns="http://www.w3.org/2000/svg" viewBox="0 0 800 1000"><title>bg-click</title><g id="backgrounds"><path id="click" d="M712.8,316.08c-21.78.23-51.37,22.85-68.14,33.78q-43,28-84.4,58.49C557.52,389.61,536.79,211,533.58,193,531.4,180.65,528,167.06,518.74,158c-24.25-23.56-56.29,12.93-69.49,31.92C433.61,212.45,378.89,354,371.46,374l-.81,1.52Q347.6,333,326.37,289.51,312,260.05,298.52,230.17c-7.52-16.65-13.61-37.28-29.8-47.72-14.69-9.47-34.94-8-49.47,1-14.9,9.19-24.41,25.38-28.54,42.08-5,20.39-2.91,41.93-2.13,62.68q1.28,33.74,2.54,67.49,2.3,61.13,4.6,122.26a121.79,121.79,0,0,0-24-22.92C156.8,444.2,137,434.92,118.2,439.75a28.25,28.25,0,0,0-19.77,17.53c-4,10.88-1.14,23,.65,34q6.19,38.22,14.88,76,7.85,34.18,17.72,67.85c-18-13.18-43.44-25.08-61.52-6.64-17.64,18-9.47,48.35-4.54,69.81A445.88,445.88,0,0,0,130.84,848a451.55,451.55,0,0,0,27.32,36.25q3.75,4.49,7.63,8.88c3.35,3.8,6.08,4.73,11.11,5.08.64,0,1.29.06,1.94.08a19.2,19.2,0,0,0,6.38,3c10.49,2.74,20.87-3.69,22.08-14.47a6.89,6.89,0,0,0-3.06-6,6.49,6.49,0,0,0-1.07-5.44A204.64,204.64,0,0,1,171.9,726.74L197.35,733c5.9,1.46,10.22-3.63,9.22-9.22a754,754,0,0,1-8.95-196,147.38,147.38,0,0,1,55.53,54.58c3.73,6.43,14,3.66,14-3.78a399.39,399.39,0,0,1,12.34-100c1.16-4.55,6.83-30.08,16.05-24.16,2.22,1.42,3.63,4.27,4.89,6.48,2,3.55,3.94,7.15,5.91,10.73L319.16,495l28.56,51.93c3.14,5.7,12,4.32,13.71-1.8,15-54.86,54.78-102.42,106.39-126.52a566.78,566.78,0,0,1,19.11,106.26c.55,6.8,10.34,11,14,3.79,12.05-23.89,31.89-60.8,64.61-48.85,5.18,1.89,10.13,5.21,12.93,10.06,3.81,6.59,1.9,14.24-.83,20.88-3.8,9.23-8.55,18.06-12.4,27.28-4,9.59-7.62,19.34-10.76,29.25a361.51,361.51,0,0,0-14.37,68.26c-.7,6.11,6.76,8.72,11.29,6.47l28.22-14a292.61,292.61,0,0,1-20.21,94.81c-12.39,31.58-28.79,61.46-40.08,93.49a213.79,213.79,0,0,0-12.09,55.26c-.53,7.07,8.27,9.11,12.8,5.31,35.92-30.15,67.65-64.79,97.83-100.58,15.09-17.89,30-35.93,44.59-54.28,13.4-16.92,26.35-34.52,35.71-54.06,10.59-22.14,15.9-45.9,11.48-70.32-.87-4.84-7.14-6.74-11-4.48A450.86,450.86,0,0,0,643,631.6c1.88-66.94,22.67-112.84,70.93-204.36S734.58,315.86,712.8,316.08Z" style="fill:#1e78f0;opacity:0.25"/></g></svg>