<svg xmlns="http://www.w3.org/2000/svg" viewBox="0 0 800 1000"><title>bg-chart-pie</title><g id="backgrounds"><g id="chart-pie" style="opacity:0.25"><path d="M325.27,548c10.07-10.77,23.78-26.1,33.48-36,5.74-5.86,14.93-15.38,21.47-22.17a14.42,14.42,0,0,0,1.85-17.65c-4.26-6.82-9.77-15.5-12.78-19.72-47.58-66.74-96.7-132.38-146.65-197.36-2.81-3.65-7.69-5.1-11.78-2.44-49.44,32.19-83.4,82.89-101.38,138.5-9.21,28.5-10.66,56.51-8.69,86.4C102,495.48,104,515.75,109.35,533c4.93,15.91,11.24,30.68,20.79,44.24,22.75,32.3,44.85,61.5,74.43,87.57a8.66,8.66,0,0,0,12-.62l72.91-77.92Z" style="fill:#1e78f0"/><path d="M356.12,382.05q14.49,24.12,28,48.81c1.91,3.47,6.94,8.54,11.48,7.89s8.09-4.63,7.65-11.47a1686.91,1686.91,0,0,1,2.2-248.71c.42-5-4.26-7.95-8.5-8.5a216.53,216.53,0,0,0-151.32,37.82c-4.8,3.41-5.35,8.84-1.72,13.35A1426.65,1426.65,0,0,1,356.12,382.05Z" style="fill:#1e78f0"/><path d="M672.35,399.56c-9.94-35.62-29.26-67-54-94.14-24-26.27-54-47.1-86.57-62.05-5.47-2.51-23-10.79-41.66-16.69s-32.2-8.39-36.53-8.39-11.27-.18-11.51,8.42c-2.15,74-2.73,202-4.06,219.62s-4.63,27.69-12.4,38.55c-45.18,63.19-97.09,127.42-154.85,179.37-3.31,3-7,6.87-10.05,10.21a9.83,9.83,0,0,0,.43,13.66c5.31,5.17,12.58,11.94,17,14.75a225.74,225.74,0,0,0,51,23.72C364.87,738.27,403,742,440.43,741.79c20.29-.13,40-5.09,59.57-10.79,19.24-5.6,37-15.38,53.5-26.5,31.78-21.42,60.59-50.74,82-83C656.34,590.09,667,557.64,673.43,521c3.64-20.73,6-39.94,6.32-61A217.69,217.69,0,0,0,672.35,399.56Z" style="fill:#1e78f0"/></g></g></svg>