<svg xmlns="http://www.w3.org/2000/svg" viewBox="0 0 800 1000"><title>bg-chat-bubbles</title><g id="backgrounds"><g id="chat-bubbles" style="opacity:0.25"><path d="M323.71,351.08a7.08,7.08,0,0,0-1.7-4.71,7,7,0,0,0-1-5.07c-23.94-40.35-70.13-65.11-116.81-65.05-48.5.07-92.21,29.37-114.33,72-22.3,43-24,108,20.89,137.53.4.27.82.53,1.23.79a148.16,148.16,0,0,1-23.69,27.48c-7.16,6.51,3.47,17.09,10.61,10.61a160.44,160.44,0,0,0,26.51-31.16c18.2,7.55,38.79,9.65,58.17,10.58,25.33,1.22,51.92-.18,75.67-9.81,26.6-10.79,45.51-31.43,55-58.4S324.06,379.35,323.71,351.08Z" style="fill:#1e78f0"/><path d="M479.52,528c11.17-45.19,44.33-86.87,92.47-94.35,27.29-4.25,54.56,5.3,77.38,20,11.39,7.36,21.22,16.95,26.24,29.76,3.31,8.44,4.26,17.42,4.28,26.44,5,12.72,4.58,28.51,3.64,41.62a156.89,156.89,0,0,1-10.31,46.34c-.1.23-.19.45-.28.68-.11.91-.23,1.81-.36,2.71-3,21-14.07,40.25-29.76,54.35,4,4.55,8,9.11,12,13.59s8.36,8.89,14.73,9.95c9.5,1.58,5.47,16-4,14.46-7.67-1.27-14-6-19.24-11.53S636,670.64,631,664.83a98.6,98.6,0,0,1-45.24,16.29c-24.67,2.37-49-7.22-69.3-20.5-10.34-6.75-19.91-14.66-27.18-24.72S477.92,614,476,601.91C472,577.68,473.64,551.83,479.52,528Z" style="fill:#1e78f0"/><path d="M159,775.61a131,131,0,0,0,13.53-16.48c10.34,13.38,24.85,23,41.23,28.1,23.54,7.37,48.76,5.19,72.35-.73a267.67,267.67,0,0,0,34.75-11.14c10.38-4.17,20.64-9.47,28.28-17.86,15.76-17.31,19.81-44.12,19.29-66.7-.56-24.66-7.07-48.91-16.49-71.58-4.74-11.41-10.21-21.89-21.18-28.43-10.2-6.08-22.5-9.61-34-12.17-20.94-4.66-53.5-4.46-69.71-4.46s-46.9,15.38-59.57,36.45c-13.22,22-14.87,50.24-14.87,75.3,0,20.18,2.58,40.89,11.37,59.25a9.41,9.41,0,0,0-1,1.28A112.62,112.62,0,0,1,148.43,765C141.71,771.94,152.31,782.55,159,775.61Z" style="fill:#1e78f0"/><path d="M409.71,241.59c4,26.22,16,49.08,37.07,65.54,21.26,16.62,47.59,24.53,74.41,25.05a176.48,176.48,0,0,0,43.73-5c11.1-2.63,21.69-6.18,29.75-13.88a229.53,229.53,0,0,0,28.77,9c9.39,2.28,13.36-12.19,4-14.46a225.58,225.58,0,0,1-23.68-7.12c4.93-9.6,7.62-20.69,10-30.94a233.63,233.63,0,0,0,5.87-45.53c.65-22.52-2.54-47.41-17.89-65a48.19,48.19,0,0,0-18.65-13,86.66,86.66,0,0,0-27.9-21.18c-27.28-13-60.57-14.46-89.69-7.17-25.08,6.28-45.57,21.9-54,46.85C403.22,189,405.9,216.79,409.71,241.59Z" style="fill:#1e78f0"/></g></g></svg>