<svg xmlns="http://www.w3.org/2000/svg" viewBox="0 0 800 1000"><title>bg-gold-cup</title><g id="backgrounds"><path id="gold-cup" d="M626.91,204.94c-6.91-8.56-16.9-10.65-27.43-10.38s-21.84,1.48-31.24,7C555.68,208.86,549,221.81,546,235.63l-.24.07a6.56,6.56,0,0,0-4.25-1.42q-113.34,0-226.65,2.59c-18.81.43-38.62.92-57.44,1.46-.18-1.3-3.55-19.21-8.2-25.13-6.81-8.66-17.84-16.65-28.3-20.84-12.05-4.83-24.13-2.89-36.23.06-10.06,2.45-18.67,9.34-26.14,16.83-8.95,9-12.71,18.66-12.45,30.85.25,12.39,3.09,25,9.37,35.76,12.1,20.76,37.43,32.71,60.58,23.59a73.7,73.7,0,0,0,27.77-19.57,816.47,816.47,0,0,0,13,128.52c4.17,22.93,8.33,48.46,26.08,65.25,17.94,17,44.12,23.64,67.92,26.89,10.85,1.48,21.84,2.49,32.86,3.13l0,101.59c-21.51,1.58-42.66,6.14-61.09,17.52-17.09,10.54-27.61,26.24-37,43.48l-28,.55a8.61,8.61,0,0,0-8.34,8.65q1.39,37.29,2.78,74.59c.39,10.24-1.78,24.87,8.83,30.74,4,2.19,8.6,2.54,13,2.59,6.31.08,12.63,0,18.94,0l148.51-.42,83.73-.24c5,0,7.87-4.13,8.34-8.65q2.19-21.09,4.37-42.18c1.38-13.41,3.49-27,4-40.44.43-10.48-2.75-22.26-13.15-26.81a21.9,21.9,0,0,0-7.24-1.81,8.36,8.36,0,0,0-4.38-1l-23.4.46c-5-14.06-10.63-28.2-20.68-39.48C461.15,609.5,444.69,605.6,427.62,605c-3.6-.12-7.24-.22-10.9-.31-.86-33.62-.52-66.88,4-100.21h.88c21-.31,42.62-2.35,62.56-9.42,20.41-7.24,38.12-19.71,50.46-37.66,12.54-18.25,18.53-40.33,21.86-62,3.93-25.6,5.41-51.7,5.72-77.58q.24-20.2-.76-40.38a62.73,62.73,0,0,0,19.94,9c9.21,2.32,19.6,2.92,28.71-.19,9.93-3.4,16.88-10.6,21.2-20.05C639.84,247.44,640.39,221.66,626.91,204.94Zm-399.64,50c-5.34,11.94-17.78,20.95-30.76,22.55-7.3.9-12.87-1.48-16.91-7.62a44.23,44.23,0,0,1-7.21-21.24c-.53-8,.63-16.15,5.2-22.95,3.59-5.33,7.46-12,17.61-12.43s21.58,1.94,26.41,6.85C230.37,229,232.3,243.68,227.27,254.94ZM595.2,219.4c16.81,1.15,20.94,12.19,20.06,23.08-1,11.94-10.6,23-22.84,23.89-12.5.87-23.89-7.83-24.34-20.75C567.62,232.39,578.4,218.24,595.2,219.4Z" style="fill:#1e78f0;opacity:0.25"/></g></svg>