<svg xmlns="http://www.w3.org/2000/svg" viewBox="0 0 800 1000"><title>bg-graph</title><g id="backgrounds"><path id="graph" d="M726.26,812.16q-19.29.38-38.7.72c.14-18.85.45-57.58,1-92.9.73-51.62-2.13-121.88-9-156.31-7.69-38.4-22.27-70-41.07-89C612,448,587.2,445.8,579.86,445.8h-.24c-33,.22-54,30.53-70.21,60.14l-47,86c-7.35,13.46-14.95,27.37-25.19,37.63-10,10-22,15.22-32.16,13.95-17.14-2.14-30.48-20.49-43.39-38.23l-.64-.88c-23-31.6-59.36-74.47-109.68-81.94-29.59-4.4-62,4.32-91.32,24.55-14.09,9.74-30.66,27.68-43.79,47.69,1.39-78.73,4.08-160.69,8-242.21a12,12,0,1,0-24-1.16c-8,166.12-10.9,334.14-8.11,473.09,0,.15,0,.29,0,.43s0,.39,0,.59,0,.39.08.58.06.39.1.58.09.38.14.56.09.38.15.57.12.36.19.54a4.81,4.81,0,0,0,.2.53c.07.18.16.36.24.53l.24.5.3.51c.1.16.18.31.28.46s.23.33.35.49.21.29.32.42l.39.45.36.4.43.4.39.37.46.36c.15.11.29.23.44.33l.48.31.48.3.5.25c.17.09.34.18.52.26s.35.14.52.21.36.15.55.21l.57.16.54.16.75.13.63.09c.32,0,.64.07,1,.08h.28c19.47.59,39.59,1.21,59.4,1.71,65.4,1.68,134.2,2.36,204.65,2.36,117.79,0,240.14-1.89,358.56-4.12a12,12,0,0,0-.45-24Z" style="fill:#1e78f0;opacity:0.25"/></g></svg>