<svg xmlns="http://www.w3.org/2000/svg" viewBox="0 0 800 1000"><title>bg-key-hole</title><g id="backgrounds"><path id="key-hole" d="M464.14,197.34c-6-13.21-21.06-25.43-33.6-32.6-25.55-14.61-47.63-17.87-76.49-19.11-34.32-1.48-71.88.87-98.62,25.15a70.79,70.79,0,0,0-22.18,41.58c-2.55,16.54-1.73,33.09,1.29,49.44,1.5,8.14,6.54,22.28,13.22,33.85s20,22.17,30.42,27.17,21.12,5.44,32.36,8.88c-10.66,66.06-20.19,112.89-30.77,168q-16.47,85.81-35.62,171.06-10.78,48-22.42,95.8a4,4,0,0,0,.18,2.36c-3.25,2.57-2.68,9.31,2.75,10.15,27.08,4.2,67.83,5.6,130.84,5.6s139.21-3.58,138-10.22L460.8,601.24Q444.48,514.62,428.15,428c-6.08-32.23-14.15-67.39-20.59-99.55,5.57-3.06,13.88-5.94,19.43-9.27,27.19-16.33,41.91-36.09,45.05-68C473.58,235.5,470.68,211.72,464.14,197.34Z" style="fill:#1e78f0;opacity:0.25"/></g></svg>