<svg xmlns="http://www.w3.org/2000/svg" viewBox="0 0 800 1000"><title>bg-lightbulb</title><g id="backgrounds"><path id="lightbulb" d="M608.26,308.71c-10.56-32.22-28.29-58.32-52.72-77.58-44.4-35-116.64-49.71-198.22-40.4-33.28,3.81-59,10.15-80.82,20C230.35,231.41,196.39,271.9,185.66,319c-8.92,39.13-3,82.66,17.68,129.38,15.2,34.39,61.89,114.83,105.47,155.67,0,.28,0,.56,0,.84.27,54.71,2.35,96.11,5.62,145.17A28.52,28.52,0,0,0,341,776.57c3.65.23,7.69.43,12,.6-.22,13.11,6.81,26.41,18.46,34.17a49.33,49.33,0,0,0,27.41,7.93,57.27,57.27,0,0,0,12.85-1.47,50.72,50.72,0,0,0,13.31-5,43.74,43.74,0,0,0,21.87-33.39,9.14,9.14,0,0,0,0-1.38h1a37.14,37.14,0,0,0,36.94-36c.89-26.57,2.16-51.37,2.49-56.31s.85-10.26,1.4-16c2.11-22.11,4.7-49.13-1.33-70.2,34.89-33.81,60.91-68.08,90.93-119.36C602.07,439.7,630.92,377.92,608.26,308.71Zm-172,88.85,1.82.32c-21.61,58.14-24.7,126.69-26.85,188.43l-9.51.06c-4.68,0-9.1.1-13.29.17-.36-57.72-4.27-139.65-10.61-184.4-.17-1.18-.34-2.37-.53-3.57,10.84-2.31,17.69-7,29.62-15.54C417,390.87,424.83,395.54,436.21,397.56Zm-28.66-56.05c1-3.76,4.5-7.39,8.63-9a12.75,12.75,0,0,1,3.08-.81,47,47,0,0,1-10.4,22.85A19.66,19.66,0,0,1,407.55,341.51Zm151,127c-30,51.27-55.75,84.76-91.07,118.29-8.15-.17-21.22-.39-36.29-.48,2.16-62,5.37-130.89,27.66-186.88a59.4,59.4,0,0,0,23.09-5.21c15.51-7.23,28.42-25.84,23.19-44.44a10,10,0,0,0-9.16-7.28c-19.37-.9-37.11,12.19-49.73,36.33q-3.12-.37-6.52-1c-6-1.07-10.35-3.06-17.41-8.25,11.84-13.3,18.22-29.95,17.18-46.16a10,10,0,0,0-4.74-7.87c-7.52-4.63-17-5.25-25.92-1.71-10,3.95-17.89,12.52-20.57,22.35-2.84,10.38-.79,21.88,5.11,31.84-9.93,7.09-14.15,9.67-20.49,11a63.87,63.87,0,0,0-6.43-13.9c-8.91-14.25-24-22.35-38.46-20.65a10,10,0,0,0-6.44,3.45,26.66,26.66,0,0,0-5.79,21.35,34.91,34.91,0,0,0,14.84,23.62c8.41,5.57,18,7.3,26.69,7.47.24,1.52.46,3,.67,4.55,6.16,43.4,10.07,126,10.42,182.12-20,.74-32.44,1.93-40.44,3.3C287.81,554.86,240.27,475,224.38,439.08c-18.61-42.09-24.09-80.77-16.3-115,9.14-40.1,38.24-74.65,77.84-92.44,19.64-8.81,43.16-14.56,74-18.09,75.6-8.63,141.7,4.35,181.37,35.62,20.81,16.4,36,38.83,45.1,66.67C601.45,361.84,592.6,410.35,558.55,468.53Zm-87.86-91.26c5-6.61,9.9-10.3,14.07-12.35a24.16,24.16,0,0,1-11.27,11.21C472.59,376.55,471.66,376.93,470.69,377.27Zm-118.95,2.64a24.81,24.81,0,0,1-10.1-3.66,14.8,14.8,0,0,1-6.08-9.74,9.88,9.88,0,0,1-.1-1.76c5.8,1.47,11.06,6.26,14,11A38.44,38.44,0,0,1,351.74,379.91Z" style="fill:#1e78f0;opacity:0.25"/></g></svg>