<svg xmlns="http://www.w3.org/2000/svg" viewBox="0 0 800 1000"><title>bg-mountain</title><g id="backgrounds"><path id="mountain" d="M56.35,915.55H726c2.41-2,3.4-5.86,2.81-9L664.88,558.38q-9.12-49.72-18.26-99.46c-1.21-6.61-11-8.51-13.6-2a820.89,820.89,0,0,0-32.69,101.9,1481.88,1481.88,0,0,0-55.21-202.32q-11.57-32.89-24.61-65.13c-2.2-5.44-10.65-5.42-12.85,0a1880.27,1880.27,0,0,1-91.39,192.92q-8.81,16.14-17.94,32.06a1214.76,1214.76,0,0,0-29.67-181.94c-1.78-7.35-10.05-7.59-13.6-2A1058.33,1058.33,0,0,0,243.32,571q-6.8,20.88-12.72,42.1-17.52-88.59-35-177.18c-1.71-8.65-12-7.08-14.35,0Q121.52,615.39,76,800.22,63.34,851.79,51.78,903.69s0,.07,0,.1C50,908.19,51.47,914.33,56.35,915.55Z" style="fill:#1e78f0;opacity:0.25"/></g></svg>