<svg xmlns="http://www.w3.org/2000/svg" viewBox="0 0 800 1000"><title>bg-mail</title><g id="backgrounds"><path id="mail" d="M666.21,344.34q-3-22-6.84-43.9c-.76-4.35-1.64-7.38-5-9.44s-8.55-1.65-12.33-2a2749.57,2749.57,0,0,0-369.36-5.77q-46.39,2.4-92.69,6.37-22.66,2-45.27,4.27c-12.61,1.29-29.71.4-34.2,15.24-1.91,6.31-2.23,13.38-3.13,19.9-1.19,8.53-1.9,18.13-2.75,26.71q-2.2,22.49-3.71,45-3,45.58-3.22,91.3t2.54,91.33q1.33,22.56,3.38,45.07c1.18,13,.62,29.46,8.22,40.8,6.94,10.37,19.07,13.62,30.79,14.84,14.21,1.47,28.58,2,42.84,2.66,30.66,1.53,52.79,4.57,83.48,5.43a2060.17,2060.17,0,0,0,365.6-22.38c13.09-2,25.68-4.43,32.43-17.17,6.11-11.53,7.2-25.75,9.22-38.44a803.75,803.75,0,0,0,9.22-90.41C678.12,463.85,674.34,403.78,666.21,344.34ZM643,324.72c-55.71,48.17-112.68,95.9-170.18,142.62,9,7.91,19.06,16.54,29.55,25.56,42.89,36.85,91.51,78.61,119,112.11a10,10,0,0,1-15.47,12.68c-26.35-32.14-76.35-75.1-116.53-109.62-11.55-9.92-22.55-19.37-32.29-28Q422.55,508,387.82,535.38a10,10,0,0,1-11.41.67q-33-20.2-65.09-41.94c-50.42,31.64-106.07,77.65-169.89,140.44a10,10,0,1,1-14-14.25c61.82-60.83,116.28-106.27,166-138.47a1747.33,1747.33,0,0,1-179-142.5,10,10,0,0,1,13.47-14.79,1724.58,1724.58,0,0,0,253,190.81C465.12,448.9,548.87,379.7,630,309.59A10,10,0,1,1,643,324.72Z" style="fill:#1e78f0;opacity:0.25"/></g></svg>