<svg xmlns="http://www.w3.org/2000/svg" viewBox="0 0 800 1000"><title>bg-night-sky</title><g id="backgrounds"><g id="night-sky" style="opacity:0.25"><path d="M205.2,79.6a407.6,407.6,0,0,0-8.92,73.08" style="fill:none;stroke:#1e78f0;stroke-linecap:round;stroke-linejoin:round;stroke-width:20px"/><path d="M166.87,131.76A359.8,359.8,0,0,1,226.16,106" style="fill:none;stroke:#1e78f0;stroke-linecap:round;stroke-linejoin:round;stroke-width:20px"/><path d="M173.45,104.77a329.61,329.61,0,0,1,47,29.24" style="fill:none;stroke:#1e78f0;stroke-linecap:round;stroke-linejoin:round;stroke-width:20px"/><path d="M604,355.74a270.25,270.25,0,0,1,14.66,54.91" style="fill:none;stroke:#1e78f0;stroke-linecap:round;stroke-linejoin:round;stroke-width:20px"/><path d="M592.27,388.43a117.82,117.82,0,0,0,35.1-9.11" style="fill:none;stroke:#1e78f0;stroke-linecap:round;stroke-linejoin:round;stroke-width:20px"/><path d="M220.09,429.14a420.07,420.07,0,0,0-16.83,76.78" style="fill:none;stroke:#1e78f0;stroke-linecap:round;stroke-linejoin:round;stroke-width:20px"/><path d="M189.59,448.37a140.94,140.94,0,0,1,45.81,34.39" style="fill:none;stroke:#1e78f0;stroke-linecap:round;stroke-linejoin:round;stroke-width:20px"/><path d="M243.42,448.32a209.47,209.47,0,0,0-61.68,23.13" style="fill:none;stroke:#1e78f0;stroke-linecap:round;stroke-linejoin:round;stroke-width:20px"/><path d="M516.94,539a314.78,314.78,0,0,0,15.91,59" style="fill:none;stroke:#1e78f0;stroke-linecap:round;stroke-linejoin:round;stroke-width:20px"/><path d="M549.1,536.73A615.62,615.62,0,0,1,492.6,595" style="fill:none;stroke:#1e78f0;stroke-linecap:round;stroke-linejoin:round;stroke-width:20px"/><path d="M490.37,557.06l56.15,17.66" style="fill:none;stroke:#1e78f0;stroke-linecap:round;stroke-linejoin:round;stroke-width:20px"/><path d="M373.67,337.05c-3.44,11-8.05,24.39-11.49,35.42" style="fill:none;stroke:#1e78f0;stroke-linecap:round;stroke-linejoin:round;stroke-width:20px"/><path d="M347.91,355.74A79.17,79.17,0,0,1,384.26,367" style="fill:none;stroke:#1e78f0;stroke-linecap:round;stroke-linejoin:round;stroke-width:20px"/><path d="M135.57,300.6v3.48" style="fill:none;stroke:#1e78f0;stroke-linecap:round;stroke-linejoin:round;stroke-width:20px"/><path d="M664.91,566.77l1.8,6.94" style="fill:none;stroke:#1e78f0;stroke-linecap:round;stroke-linejoin:round;stroke-width:20px"/><path d="M727.53,260.68l-1.84,5.19" style="fill:none;stroke:#1e78f0;stroke-linecap:round;stroke-linejoin:round;stroke-width:20px"/><path d="M266.5,709.48l2.33,14.11" style="fill:none;stroke:#1e78f0;stroke-linecap:round;stroke-linejoin:round;stroke-width:20px"/><path d="M156.4,671.28l1.75,7" style="fill:none;stroke:#1e78f0;stroke-linecap:round;stroke-linejoin:round;stroke-width:20px"/><path d="M339.37,587.81l-3.55,8.68" style="fill:none;stroke:#1e78f0;stroke-linecap:round;stroke-linejoin:round;stroke-width:20px"/><path d="M445.28,788.05a425.12,425.12,0,0,1,96.87,4.51" style="fill:none;stroke:#1e78f0;stroke-linecap:round;stroke-linejoin:round;stroke-width:20px"/><path d="M529.58,754.48A788.82,788.82,0,0,0,474.05,827" style="fill:none;stroke:#1e78f0;stroke-linecap:round;stroke-linejoin:round;stroke-width:20px"/><path d="M479,759.45c14.21,14.62,36.94,63,36.94,63" style="fill:none;stroke:#1e78f0;stroke-linecap:round;stroke-linejoin:round;stroke-width:20px"/><path d="M176.8,807a155.87,155.87,0,0,0,11.27,53.82" style="fill:none;stroke:#1e78f0;stroke-linecap:round;stroke-linejoin:round;stroke-width:20px"/><path d="M159.44,851.5a190.52,190.52,0,0,1,47.69-23" style="fill:none;stroke:#1e78f0;stroke-linecap:round;stroke-linejoin:round;stroke-width:20px"/><path d="M153,827.75a156.53,156.53,0,0,0,42,16.18" style="fill:none;stroke:#1e78f0;stroke-linecap:round;stroke-linejoin:round;stroke-width:20px"/><path d="M58.72,561.92l3.48,3.48" style="fill:none;stroke:#1e78f0;stroke-linecap:round;stroke-linejoin:round;stroke-width:20px"/><path d="M255.86,269.41l10.32-17.48" style="fill:none;stroke:#1e78f0;stroke-linecap:round;stroke-linejoin:round;stroke-width:20px"/><path d="M667.37,780.29a23.34,23.34,0,0,1,4.8-16.17" style="fill:none;stroke:#1e78f0;stroke-linecap:round;stroke-linejoin:round;stroke-width:20px"/><path d="M414.5,914.86v-11.6" style="fill:none;stroke:#1e78f0;stroke-linecap:round;stroke-linejoin:round;stroke-width:20px"/><path d="M419.11,169.22c2.22,19.49,6.21,39.3,16.55,56s28.12,29.8,47.73,30c8.73.11,17.31-2.27,25.49-5.31,17.34-6.45,33.94-16.37,44.92-31.26,12.59-17.09,16.66-39.48,14.1-60.56s-11.27-41-22.18-59.2c-6.83-11.39-14.65-22.36-24.66-31.09C500.66,50,472.21,43,445.29,45.67c22,19.19,40.9,40.82,52.72,67.54a100.56,100.56,0,0,1,8.43,45.55C505.77,172,501,187,488.66,192c-6.89,2.81-14.72,1.83-22,.19C451.57,188.72,432.09,177.7,419.11,169.22Z" style="fill:#1e78f0;stroke:#1e78f0;stroke-linecap:round;stroke-linejoin:round;stroke-width:20px"/></g></g></svg>