<svg xmlns="http://www.w3.org/2000/svg" viewBox="0 0 800 1000"><title>bg-portrait</title><g id="backgrounds"><g id="portrait" style="opacity:0.25"><path d="M624.21,127.87a10,10,0,0,0-11.85-2.46c-20.48,9.76-58.13,13.93-83.94,9.28-10.94-2-20.18-5.59-30-9.42-11.93-4.67-24.28-9.5-39.71-11.12-23.45-2.46-42.8-.75-58.41,14-7.79-8.57-19.11-14-32.33-15.21-12.25-1.1-23.76,2.71-33.92,6.07l-1,.34c-20.15,6.66-41.83,12.85-63.76,13-23.24.18-55.2-6.19-68.46-18.36a10,10,0,0,0-14.28,14c18.24,20.8,23.2,52.7,12.06,77.58-15.75,35.19-22.65,65-21.72,93.71,1,31.69,12.67,51.83,29.77,73.56-23,14.49-29.74,45.21-25.63,71,2.53,15.89,10.24,35.68,17.44,52.94,6.9,16.54,6,36.17,4.29,53.2-3.21,31.18-12.93,67.46-25.31,76.48a10,10,0,0,0,11.24,16.52c16.91-10.74,52.13-18.53,71.12-15.74,12.07,1.78,21.92,5.56,32.34,9.57,11.48,4.4,23.35,9,38.38,10.84,20.25,2.54,41.1,3.36,57.74-12.64a48.57,48.57,0,0,0,8.47,8.27,55.47,55.47,0,0,0,27.51,11.16q3,.28,6,.28c14.64,0,28.55-5,41-9.53l2.17-.79c20-7.19,41.42-13.88,63.23-14.21S588.28,634,601.23,647a10,10,0,0,0,14.37-13.91c-12.79-13.61-19.79-37.47-19.21-65.45.48-23.31,5.66-40.24,12.84-63.66l.15-.5c6.71-21.9,13.62-50.63,7.44-78.59-3.82-17.25-10.41-30.82-20.47-41.87C611.47,367.39,617,342,615.46,321c-1.05-14.21-4.69-27.79-8.2-40.93-2.22-8.28-4.31-16.11-5.81-24.09A159,159,0,0,1,625,140,10,10,0,0,0,624.21,127.87ZM358.87,581a8.78,8.78,0,0,0-1.18,1q-49.81-.66-99.39-1.75a10.22,10.22,0,0,0,1.16-2.34A268.24,268.24,0,0,1,291.92,513l10.35,2.13-3.65,18.77a10,10,0,0,0,6.58,11.37,417.09,417.09,0,0,1,64.41,28.33Q364.2,577.2,358.87,581ZM316,497.48,305,495.23a307.29,307.29,0,0,1,22.84-25.34,234.46,234.46,0,0,0,32,76.22q-19.56-9.43-40-16.91l3.89-20A10,10,0,0,0,316,497.48Zm72.91,47.78c-.57,1.33-1.24,2.9-2,4.43A214.48,214.48,0,0,1,345.14,454a.61.61,0,0,0,0-.13l1.4-1.2c.54,3.21,1.11,6.41,1.77,9.58A10,10,0,0,0,366.86,465l15.08-27.81c.73-1.34,1.44-2.65,2.16-3.94l27.51,31.48h0a10,10,0,0,0,10.52,3Zm46.79-315.48a10,10,0,0,0,9.24,7.45c.32,0,2.13.36,6.09,5.72,4.92,6.66,6.92,12,5.81,15.35-.84,2.54-3.88,4.9-7.75,6A41.1,41.1,0,0,1,437,265.4a59.45,59.45,0,0,0-7.72-12.59C418,239,394.41,232.14,378.69,238.25c-7.91,3.07-14.75,9.06-20.9,18.31a92.57,92.57,0,0,0-9.07,17.62A71.22,71.22,0,0,1,372,224.77l.19.4a10,10,0,0,0,14.11,4.4A77,77,0,0,1,437,220.15,12.2,12.2,0,0,0,435.68,229.78Zm-81,68.19h.05a10,10,0,0,0,9.67-7.43,76.76,76.76,0,0,1,10.05-22.91c3.73-5.61,7.6-9.23,11.48-10.74,7.58-2.94,22.1,1.51,27.75,8.5,6.91,8.54,9.52,20.44,11.16,30.95a239.28,239.28,0,0,1,2.69,28.42c.22,6.71.05,12.13-1.54,16.75-4.75,13.75-28.2,22.8-48.91,24.62a10,10,0,0,0,1.76,19.93,121.28,121.28,0,0,0,22.41-4.16l.28,12.23c-5.12-.09-10.24-.13-13.21,0-6.62.33-16.46,1.39-23.48,2.27h-.09l-2.64-39.27c-.63-13-1.6-34.81-1.5-38.29a10,10,0,0,0-9.73-10.27l-1,0c-2.62-.06-5.09-.12-7.39-.39-4.61-.52-8.2-2.12-9.35-4.16a4.12,4.12,0,0,1,.61-4.39c1.39-1.4,4.5-2.2,8.53-2.2h0c1.8,0,3.7.12,5.71.25S352.37,298,354.68,298Zm53.67,132.61-14.44-16.53c3.81,0,8.79.1,13.26.21.21,3.57.48,7.48.77,10.37C408.14,426.57,408.27,428.56,408.35,430.58ZM371.2,415.8c-2.55,3.91-4.72,7.91-6.84,11.83l-.84,1.54c-.44-4.08-.85-8.17-1.23-12.24C364.91,416.57,368,416.17,371.2,415.8Zm74.06,48.66c5,3.69,10,7.62,14.92,11.76a10,10,0,0,0,.3,3.29,141.62,141.62,0,0,1,4,21.7c-7-.1-14,0-20.94.37a10,10,0,0,0-7.35,16.2l10.3,13q-19.22,8.68-37.72,18.9Zm-17.05-11.55.19.11-.18.41C428.22,453.26,428.22,453.09,428.21,452.91ZM392.7,582.38a504.92,504.92,0,0,1,73.58-38.44,10,10,0,0,0,4-15.44l-5.79-7.29c3.43,0,6.85.15,10.26.31a10,10,0,0,0,10.46-10.27c-.12-4.22-.42-8.43-.87-12.62,25.38,26,47.05,56.11,59.37,84.29C493.55,583.08,443.12,582.89,392.7,582.38Zm152.09-49.33,0,9.56c-28.23-45.09-72.67-88.85-116.42-112.76-.1-2.39-.25-4.82-.5-7.26-.63-6.18-1.17-18.36-1.18-18.48a10,10,0,0,0-5.09-8.28l-.51-22c11-6.08,19.94-14.55,23.83-25.82,2.75-8,2.89-16.22,2.62-23.95a256.82,256.82,0,0,0-2.91-30.83c-.41-2.57-.86-5.23-1.41-7.92a49.37,49.37,0,0,0,11.44-1.8c10.33-3,18.25-10.08,21.18-19,4.95-15-5.33-28.92-8.71-33.49a45.22,45.22,0,0,0-6.59-7.44,15,15,0,0,0,.86-2.2,13.64,13.64,0,0,0-1.28-10.82c-3.47-6-10.29-8.2-13.06-8.86A97.29,97.29,0,0,0,386,207.35l-1-2.18a10,10,0,0,0-14.33-4.27c-26.4,16.36-43,47.76-41.9,78.77a25.71,25.71,0,0,0-9.14,5.83,24,24,0,0,0-3.88,28.31c4.43,7.9,13.15,13,24.53,14.25l.59.06c.39,11.2,1.18,27.6,1.31,30.11a1.09,1.09,0,0,0,0,.18l2.87,42.7a12.9,12.9,0,0,0-1.09,1.12,10.17,10.17,0,0,0-2.41,7.53h0l.35,3.73c.51,5.37,1,10.81,1.61,16.26a9.86,9.86,0,0,0-2.68,1.57c-37.52,30.76-66.25,66.07-85.75,105.31-1.1-38.32-1.82-87.6-2-107.55-.32-48.38.54-97.38,2.55-145.64.85-20.23.88-76.35.86-99.14,18.87-.62,60-1.91,73.85-1.92,24,0,48.37.15,72.36.5,45.61.68,91.8,2.05,137.43,4.08C545.66,302.26,545.22,419.54,544.79,533.05Z" style="fill:#1e78f0"/><path d="M385.67,303h.18a10,10,0,0,0,10-9.83v-.66A10,10,0,0,0,386,282.29h-.18a10,10,0,0,0-10,9.82l0,.67A10,10,0,0,0,385.67,303Z" style="fill:#1e78f0"/><path d="M399.46,314.64a10,10,0,0,0,5.2,18.54,9.62,9.62,0,0,0,2.12-.23c7.62-1.65,12.38-8.63,12.75-18.67A149.18,149.18,0,0,0,418,287.15a10,10,0,0,0-19.79,2.91,129.08,129.08,0,0,1,1.29,23.49A10.23,10.23,0,0,1,399.46,314.64Z" style="fill:#1e78f0"/><path d="M395.83,475.75l.12-7.27a10,10,0,0,0-9.83-10.16H386a10,10,0,0,0-10,9.83l-.12,7.33,10,.17Z" style="fill:#1e78f0"/><path d="M377.29,508.22l-.08,4.62A10,10,0,0,0,387,523h.17a10,10,0,0,0,10-9.83l.08-4.64-10-.2Z" style="fill:#1e78f0"/></g></g></svg>