<svg xmlns="http://www.w3.org/2000/svg" viewBox="0 0 800 1000"><title>bg-power-outlet</title><g id="backgrounds"><g id="power-outlet" style="opacity:0.25"><path d="M613.62,543.79c-.6-42.72,0-100.63.71-135.69s-3.39-94.82-1.27-144a5.58,5.58,0,0,0-5.39-5.61c-6.91-.14-238.13-.72-344.31-1.1q-44.79-.17-89.59-.51c-2.9,0-5.62,1.73-5.58,4,1.23,59.42,2.14,118.85,2.3,178.26.17,59.17-.4,118.33-2.1,177.46-1,33.4,2,63.68,2,97.29,0,2,4.45,6.27,7.38,6.25,114.53-.7,214.26-7.57,325.82-6.92,31.59.19,73-1.39,104.5-2.05a5.09,5.09,0,0,0,5-4.65C616.63,647.66,614.45,602.36,613.62,543.79ZM511.32,513.2c-4.69,21.23-14.91,41.43-32.67,54.56-19.15,14.15-43.45,18.89-66.69,20.9-25.34,2.18-51.44-.3-74.68-11.16-20-9.36-37.43-25.24-46.21-45.79-9.69-22.67-10-48.51-6-72.52,3.79-22.95,14.17-43.18,33.33-56.86,17.93-12.8,40-18.52,61.09-23.77a5,5,0,0,1,5.2,1.52c27.69-1.26,56.27-1.71,82.08,9.8,23.67,10.56,40.14,29.95,45.69,55.4C517.24,467.22,516.15,491.35,511.32,513.2Z" style="fill:#1e78f0"/><path d="M366.57,449.54a11.64,11.64,0,0,0-12.23,11.57l-.74,37.49a11.65,11.65,0,0,0,11.76,12h.28a11.62,11.62,0,0,0,11.95-11.57l.75-37.49A11.64,11.64,0,0,0,366.57,449.54Z" style="fill:#1e78f0"/><path d="M438,449.48a11.39,11.39,0,0,0-11.46,11.83l.89,40.52a12,12,0,0,0,12.24,11.78H440a11.38,11.38,0,0,0,11.46-11.83l-.88-40.52A12,12,0,0,0,438,449.48Z" style="fill:#1e78f0"/></g></g></svg>