<svg xmlns="http://www.w3.org/2000/svg" viewBox="0 0 800 1000"><title>bg-phone-numbers</title><g id="backgrounds"><g id="phone-numbers" style="opacity:0.25"><path d="M438.85,352c-3.36-16.49-8.62-37.37-25.33-45-13.85-6.35-31.24-5.55-46-3.41-16.94,2.47-33.73,10.27-41.08,26.65-4,8.8-5.12,18.42-5.69,28-.16,2.67-.35,5.44-.41,8.21,0,.3-.07.6-.11.9-1.06,9-.58,18.2,3.21,26.52,3.49,7.68,9.88,13.73,16.7,18.51,14.13,9.9,32.55,14.32,49.68,13,16.21-1.27,31.88-7.86,41.4-21.51C441.72,388.83,442.39,369.4,438.85,352Z" style="fill:#1e78f0"/><path d="M392,602.9c16.5-3.37,37.37-8.62,45-25.33,6.35-13.85,5.56-31.24,3.41-46-2.47-17-10.26-33.73-26.64-41.09-8.81-3.95-18.43-5.11-28-5.68-2.67-.16-5.44-.35-8.21-.41l-.9-.11c-9-1.06-18.2-.59-26.52,3.2-7.68,3.5-13.73,9.89-18.51,16.7-9.9,14.14-14.32,32.56-13,49.69,1.26,16.21,7.85,31.87,21.5,41.4C355.25,605.76,374.68,606.44,392,602.9Z" style="fill:#1e78f0"/><path d="M549.6,130.38C533.72,136,513.75,144,508.43,161.59c-4.41,14.59-1.26,31.71,2.87,46,4.74,16.45,14.74,32,32,37.09,9.26,2.72,19,2.57,28.49,1.83,2.67-.2,5.43-.39,8.19-.7l.9,0c9-.17,18.11-1.89,25.84-6.77,7.14-4.51,12.26-11.66,16.07-19.06,7.9-15.35,9.78-34.2,6.13-51-3.46-15.89-12.12-30.52-26.93-38.1C585.67,122.55,566.33,124.52,549.6,130.38Z" style="fill:#1e78f0"/><path d="M346.43,238.68c9.44,4,20.3,4.89,30.79,4.28,11.45,1.42,24.13,1.34,34.85-2.36,12.11-4.17,20.33-14,24.49-25.86,3.78-10.79,3.6-22.24,2.35-33.5a60.59,60.59,0,0,0-.84-6.71c-.19-1.39-.39-2.77-.59-4.15-1.77-12.06-4.5-24.37-17.14-29.15-.57-.21-1.15-.4-1.73-.6A46.44,46.44,0,0,0,407.43,134c-12.76-5.28-28.79-6.54-42.43-4.83a42.88,42.88,0,0,0-30.84,18.63,48.88,48.88,0,0,0-6.79,14.86,55.76,55.76,0,0,0-5.14,14.25C317.62,198.53,324.05,229.24,346.43,238.68Z" style="fill:#1e78f0"/><path d="M143,197.92c3.37,16.49,8.62,37.37,25.34,45,13.85,6.34,31.23,5.55,46,3.4,16.94-2.46,33.72-10.26,41.08-26.64,4-8.8,5.12-18.43,5.68-28,.16-2.68.35-5.44.42-8.22,0-.29.07-.6.11-.89,1.05-9,.58-18.2-3.21-26.52-3.5-7.68-9.88-13.73-16.7-18.51-14.13-9.91-32.55-14.33-49.68-13-16.21,1.26-31.88,7.85-41.4,21.5C140.15,161.12,139.47,180.55,143,197.92Z" style="fill:#1e78f0"/><path d="M321.69,736.6c3.37,16.49,8.62,37.37,25.33,45,13.85,6.34,31.24,5.55,46,3.4,16.95-2.46,33.73-10.26,41.09-26.64,4-8.8,5.11-18.42,5.68-28,.16-2.68.35-5.44.41-8.21,0-.3.08-.6.11-.9,1.06-9,.59-18.2-3.2-26.52-3.5-7.68-9.89-13.73-16.7-18.51-14.14-9.91-32.56-14.33-49.69-13-16.21,1.27-31.87,7.86-41.4,21.5C318.83,699.8,318.15,719.23,321.69,736.6Z" style="fill:#1e78f0"/><path d="M189.82,305.88c-16.49,3.36-37.37,8.62-45,25.33-6.34,13.85-5.55,31.24-3.4,46,2.46,16.95,10.26,33.73,26.64,41.09,8.8,4,18.43,5.11,28,5.68,2.68.16,5.44.35,8.21.41l.9.11c9,1.06,18.2.59,26.52-3.2,7.68-3.5,13.73-9.89,18.51-16.71,9.91-14.13,14.33-32.55,13-49.68-1.26-16.21-7.86-31.87-21.5-41.4C226.62,303,207.19,302.34,189.82,305.88Z" style="fill:#1e78f0"/><path d="M265.08,541.33c-1.61-16.87-5.69-38.66-19.32-50.21-7.59-6.43-17-8.12-26.61-7.37-4.35-.94-8.42-1.51-11.19-1.88-16.38-2.22-33.81-.47-47.81,9-13.61,9.19-19.92,23-21.41,39-.9,9.61-2.41,25.25,3.94,34,3.53,18.35,16.12,33,34.22,38.63,10.07,3.11,20.91,3.56,31.38,3.75,10.67.19,21.4-.78,29.88-7.93,8-6.71,14.5-17,19.49-26C262.92,562.8,266.13,552.31,265.08,541.33Z" style="fill:#1e78f0"/><path d="M629.11,341.19C625.82,321.36,612.58,305.31,593,300c-10-2.69-20.49-2.95-30.75-2.8s-21.17.66-30.08,6.56c-16.22,10.76-22.12,32-24.62,50.24-1.83,13.34,1,25.1,5.41,37.53.22,3.36.87,6.62,3.06,9.38a12,12,0,0,0,1.4,1.44c3.22,6.52,7.5,12.41,14,16.22a35.37,35.37,0,0,0,7,3.08c7.1,4.39,16.2,4.24,24.36,4.08,18.87-.38,39.75-3,51.43-19.68,6.38-9.12,10.19-21.07,12.9-31.76S630.93,352.25,629.11,341.19Z" style="fill:#1e78f0"/><path d="M607.63,491.13c-7.12-4.7-15-7.28-23.18-9.29-9.43-2.3-19.15-5.52-28.92-5.82-7.2-.22-14.27,1.79-19.28,6.84a44.31,44.31,0,0,0-21.5,14.19c-10.19,12.25-14.37,28.44-13.82,44.19,1.08,31,20.32,65.17,53.35,69.55,30.53,4.05,65.36-14.95,77.15-43.61C642.87,539.39,632.59,507.6,607.63,491.13Z" style="fill:#1e78f0"/></g></g></svg>