<svg xmlns="http://www.w3.org/2000/svg" viewBox="0 0 800 1000"><title>bg-question-mark</title><g id="backgrounds"><g id="question-mark" style="opacity:0.25"><path d="M561.75,134.8c-29.71-22.09-69.18-32.8-106.86-38-38.23-5.27-78.79-.38-115.3,10-42.36,12.11-73.75,34.19-94.92,68.78-20.4,33.34-31,92.9-13.52,130.14,20.54,43.8,61.4,53.25,99.67,39s72.54-59.86,46.59-100.28C355.67,210.6,312.87,195,276.54,226c4.39-30.18,42.21-51.11,73-58.16,17.72-4.06,37.14-4.55,55-.36,19,4.47,32.4,16.1,42.13,30.85,19.38,29.35,20.57,66.57,1.83,96-18.42,29-38.54,45.15-63.14,69.29-27.92,27.39-50.43,62.25-67.3,96.06-16.76,33.61-19.63,58.56-17.36,84.68,2.41,27.7,16.83,54.26,44.93,64.75s74.17,10.54,103-1.41,39.79-34.41,42.14-62c3.09-36.32-12.61-55.2-36.65-91.08-25-37.27,41.06-105.39,72-140.62,26.54-30.21,58.73-47.45,68.86-86C604.23,192.68,593.82,158.65,561.75,134.8Z" style="fill:#1e78f0"/><circle cx="391.77" cy="738.78" r="91.26" transform="translate(-165.98 115.73) rotate(-13.9)" style="fill:#1e78f0"/></g></g></svg>