<svg xmlns="http://www.w3.org/2000/svg" viewBox="0 0 800 1000"><title>bg-shape-4</title><g id="backgrounds"><path id="shape-4" d="M123.41,573.84c11.68,18.46,24,36.68,34.78,55.68A153.79,153.79,0,0,1,171,657.66a83.72,83.72,0,0,1,3.4,14.67c.51,3.73,2,10.5-.46,13.84-3.08,4.1-11.43,1.5-16.39-.21-.7-.67-1.37-1.32-2-1.92-7.12-6.79-13.66-14.21-22.22-19.26-18.39-10.87-41.28-4.08-56,9.89C35.68,714.31,72.06,776.82,100,812.82c16.58,21.39,35.74,40.7,55.78,58.84,9.86,8.93,20,17.58,30.17,26.11,6.11,5.1,12.18,10.64,18.5,15.78h230l7-.57c11.07-.9,23-1.85,32.15-8.92,8-6.16,11-16.79,5.46-25.64-4.3-6.92-12.16-9.94-19.39-12.82-3.15-1.26-6.63-2.49-9.22-4.5-2-1.54-3.38-3.28-1.69-6.34,1.8-3.25,6.16-5.38,9.39-6.83,5.89-2.66,12.26-4.41,18.41-6.37,26.83-8.59,54.08-16.06,80.17-26.78a274,274,0,0,0,36.88-18.33c10.07-6,20.69-13.25,24.28-25.06,8.16-26.84-21.59-46.66-41.54-57.19-23.55-12.44-49.4-19.42-74.23-28.76-22.66-8.51-46-19.21-62.53-37.49-14.6-16.13-23.22-39.21-18.1-60.9,5.34-22.59,27.14-34.74,48.58-38.22,26.71-4.35,53.43,2.92,79.85,6a217.75,217.75,0,0,0,34.31,1.32A133.47,133.47,0,0,0,608,560.53a107.46,107.46,0,0,0,42.39-4.45c13.54-4.37,27.82-12,32.55-26.36,9.18-27.84-12.58-57.18-31.59-75.2-22.53-21.37-50.66-35.12-76-52.63C554,387.15,531.63,366.66,524,341a35,35,0,0,1,11.49-9.76c17.72-9.71,39.33-5.38,58.46-4.13a315.31,315.31,0,0,0,64.63-2.34,310.84,310.84,0,0,0,31.73-6.21c9.51-2.38,19.37-4.74,28.35-8.79,8.08-3.66,15.35-9.08,19.28-17.24,3.83-7.93,3.31-17.07.49-25.21-5.79-16.69-20.42-29.2-33.94-39.72a238.44,238.44,0,0,0-31-20.37A409.48,409.48,0,0,0,640,180.54c-25.48-18.11-53.53-32.85-84-40.57s-63-7.71-92.95,1.72c-13.95,4.4-29.21,11.1-40.21,21-4.7,4.21-8.22,9.91-7.77,16.15a20.73,20.73,0,0,0-.77,5.59c0,17.05,17.81,23.14,32,24.25,9.14.71,18.3.43,27.44,1.42a188.14,188.14,0,0,1,30.31,5.73c8.54,2.38,17.63,5.78,24,12.22,5.17,5.23,8.75,13.51,6.14,20.79-5.32,14.88-29.13,15.25-41.86,15.73a184.49,184.49,0,0,1-60.74-7.94c-19.88-6.12-43.7-12.92-63.35-19.58-23.73-8-60.34-19.85-84-22.14s-44.47-5.06-62.52,3.77a53.19,53.19,0,0,0-19.32,6.72c-16.82,10.19-17.43,30-10.8,46.66,13.13,33.05,39.61,59,65.11,82.83,12.86,12,26,23.7,38.22,36.33a259.21,259.21,0,0,1,17.45,19.73c1.62,2,5.06,5.65,4.14,8.59-.69,2.21-3.92,3.14-5.92,3.63-7.78,1.92-16.18.1-24-.75l-33.77-3.68-67.52-7.37L117.83,404l-33.76-3.68c-5.71-.62-10.38-1.86-15.34,1.71a36.85,36.85,0,0,0-8.55,8.67c-24.79,35.55,8.36,76.45,27.1,106.07Z" style="fill:#1e78f0;opacity:0.25"/></g></svg>