<svg xmlns="http://www.w3.org/2000/svg" viewBox="0 0 800 1000"><title>bg-shape-2</title><g id="backgrounds"><path id="shape-2" d="M655.67,570.28A487.92,487.92,0,0,1,619.5,619.9c-11,13.36-23.38,27.15-28.41,44.1-4.41,14.86-1.39,29.94,4.53,43.93,12.21,28.86,33.88,54.55,35.52,87.05,1.93,37.95-26.54,69.3-52.82,93a365.24,365.24,0,0,1-32.83,26.27H214.26c-.32-1-.63-2-.94-3-3.22-10.15-6.57-20.26-9.67-30.44-3-9.78-1.72-17.81,5.58-25.18,2.64-2.65,4.72-4.79,5.09-8.68.42-4.33-.86-8.72-2.12-12.8a146.72,146.72,0,0,0-10.5-25.22,158.32,158.32,0,0,0-33.52-43.33c-21.82-19.83-58.11-40.27-51.07-75.26,3.68-18.31,19.16-33.35,30.67-47.24,11.33-13.66,23-28.06,28.9-45.05,13.76-39.63-5.55-80.72-20.63-116.9-8.09-19.41-15.31-39-18.86-59.85a215.44,215.44,0,0,1-1.68-62.56c2.29-18.49,5.78-38.33,20.69-51.09,13.15-11.25,30-15.93,46-21.62C219,280,235.45,272.44,250,262A109.6,109.6,0,0,0,269.1,244.4c6.17-7.19,10.95-15.43,16.07-23.36,10.63-16.46,23.53-29.71,41-38.91A162.88,162.88,0,0,1,374.51,166a195.75,195.75,0,0,1,95.34,7.7c30.42,10.29,58.64,27.74,80.48,51.38,24.47,26.49,38.78,59.76,50.77,93.31,12.21,34.2,22.41,69.62,41.72,100.7,18.62,30,47.92,58.5,39.46,97C678,535.6,666.2,553.66,655.67,570.28Z" style="fill:#1e78f0;opacity:0.25"/></g></svg>