<svg xmlns="http://www.w3.org/2000/svg" viewBox="0 0 800 1000"><title>bg-shape-9</title><g id="backgrounds"><path id="shape-9" d="M713.88,648.48a177.53,177.53,0,0,0-6.07-35.3c-6.36-22.86-17-44.47-29.83-64.35-13-20.14-28.28-38.76-44.63-56.3,29-14.79,57.51-39.4,62.42-72.74,5.65-38.35-22.79-72.54-58.72-82.53-17.15-4.77-35.28-4.53-52.64-.82,13.94-19.42,30.78-36.73,44.1-56.65,14.48-21.63,23.42-47.73,19.9-74-3.24-24.11-23.79-56.35-52.32-46.69-13.91,4.7-27.29,12.54-39.6,20.44a312.54,312.54,0,0,0-36,27.24c-18.34,16-34.94,33.78-50.54,52.42a398.23,398.23,0,0,0,3.24-67.81A407,407,0,0,0,468.32,143c-2-12.48-4.47-25.36-11-36.4C450.74,95.4,440,87.72,427,86.36c-13.43-1.4-26.78,4.61-37.67,12-11.8,8-22.08,18.08-31.89,28.33a271.82,271.82,0,0,0-27,32.7C316,180,305.44,204,304.38,229.09c-14.38-13.48-26.35-29.63-43.49-40-20.78-12.59-45.06-13.3-64.4,2.29S170.5,232,168,255.73c-2.76,26.28-4.06,54.7,4.58,80.07,5.91,17.33,16.92,33.26,32.16,43.16a200.58,200.58,0,0,0-84.13,68.39c-13.2,18.73-24.12,40.55-25.4,63.8-1.16,21,7.29,42.88,25,55,15.21,10.44,34.15,11,51.62,6.5-18.3,35.55-43.41,74-22.4,113.11C168.32,721,214,731.47,249.75,719.36c16.57-5.6,31.52-14.93,44.71-26.32a232.73,232.73,0,0,0,.8,37.6A227.46,227.46,0,0,0,300,759.76c2.07,8.63,6.85,15.6,15.83,17.87,14.37,3.63,31.44-1.31,44.43-7.43a93.32,93.32,0,0,0,34.18-28.15,86.49,86.49,0,0,0,16.44-37.68c22.8,20,35.35,51.17,63.84,64.59C513.83,787.38,554.18,761,584,737c4.26-3.45,8.13-7.36,10.19-12.53,2.24-5.66,1.75-11.59.5-17.43-2-9.19-4.45-18.3-6.92-27.4,7.62,3.07,14.68,8.09,21.9,11.57a121.69,121.69,0,0,0,36.43,11c21.3,2.91,53.62,3.17,64-20C714.78,671.73,714.66,659.71,713.88,648.48Z" style="fill:#1e78f0;opacity:0.25"/></g></svg>