<svg xmlns="http://www.w3.org/2000/svg" viewBox="0 0 800 1000"><title>bg-shape-1</title><g id="backgrounds"><path id="shape-1" d="M258.05,915.76H529.68c1.14-2.26,2.24-4.53,3.34-6.82,4-8.29,7.89-16.61,11.45-25.08,6.93-16.47,12-33.35,13.54-51.22,2.92-34-5.78-67.61-4.78-101.57.48-16.47,3.81-32.57,11.73-47.14,8.14-15,19.33-28,29.32-41.7C615.07,613.68,628.86,580,640,546.64s18.11-70,8.69-104.7c-8.65-31.82-30.68-57-51.24-81.84-21.52-26-39.66-54-51.3-85.8-10.09-27.58-14-57.1-25.47-84.19-5.28-12.44-12.36-24.35-22.39-33.57-11.93-11-26.91-17.06-42.68-20.09a371.78,371.78,0,0,0-51.23-5.72c-17.26-.86-35.27.09-51.54,6.41-31.39,12.21-53,41.25-69.18,69.56-17.52,30.61-30.58,64.32-42,97.64-6.22,18.22-10.67,36.81-12.09,56.05s-.27,38.48.32,57.71a689.24,689.24,0,0,1-5.48,111.13,678.89,678.89,0,0,1-23.53,108.45c-10.68,35.21-26.52,69.56-29.48,106.64C166,812.81,208.82,872.71,258.05,915.76Z" style="fill:#1e78f0;opacity:0.25"/></g></svg>