<svg xmlns="http://www.w3.org/2000/svg" viewBox="0 0 800 1000"><title>bg-splat</title><g id="backgrounds"><g id="splat" style="opacity:0.25"><path d="M451,759c-2.62-2.32-9.83-8-12.58-10.15a762.17,762.17,0,0,0-90.79-60.69,715.36,715.36,0,0,1,61.53-99c3-4.09.72-12-5.13-11.91q-98.64,1-197.27-.52a749.23,749.23,0,0,1,67.63-133c3.23-5,.51-10.65-5.13-11.91L73.2,388a18.75,18.75,0,0,0-5,5.71c-6.34,10.75-7.8,24.42-8.93,36.61-1.15,12.55-1.06,25.25-2.77,37.74-1.93,14-4.39,28-6.32,42-1.55,11.25-3.57,23.26-2.66,34.64.41,5.17,2,8.81,6.65,11.2,5.14,2.64,11,4.13,16.59,5.81q23.34-.39,46.67,1a298.32,298.32,0,0,0-33,93.82A7.56,7.56,0,0,0,91,664.85c56.55,4.38,113.72-11.66,169.85-2.06a799.62,799.62,0,0,0-46,89.29c-2.35,5.37,2.62,10.87,8.07,10.2a707.85,707.85,0,0,1,178.83.9c12.82,1.7,33.41,5.45,38.31,6.13S452.49,770.9,454,768,453.62,761.32,451,759Z" style="fill:#1e78f0"/><path d="M727.92,353.79c1.87-5.15-.38-13-6.75-12.1a467.73,467.73,0,0,0-86.41,20.08,444,444,0,0,0,52.76-144.72c.89-5-2.4-10.41-7.49-10.05l-75.1,5.31L567.38,215c-11.82.84-24.15.67-35.86,2.76-12,2.14-15.84,14.67-20.88,25.15q-8.85,18.38-17.69,36.75Q475.48,315.89,458,352.16l-40,83.19a8.22,8.22,0,0,0,6.75,12.09q51,4.5,102.14,4.35a725.36,725.36,0,0,0-75.44,165.34c-1.28,4.06,1.77,9.06,5.49,9.83a721.39,721.39,0,0,0,107.39,14,478.74,478.74,0,0,0-15.18,127.33c.09,6,6.65,10.11,11.38,6.66a69.86,69.86,0,0,0,23.64-30.65,9.64,9.64,0,0,0,.82-1.25l90.68-166.7c3-5.51-1.19-12.17-6.75-12.1l-57.11.78c20.3-32.38,40.8-64.65,60.3-97.59C693.52,431.29,713.31,393.84,727.92,353.79Z" style="fill:#1e78f0"/></g></g></svg>