<svg xmlns="http://www.w3.org/2000/svg" viewBox="0 0 800 1000"><title>bg-shape-3</title><g id="backgrounds"><path id="shape-3" d="M192.22,664.05c-12.1,10.29-23.92,21-34.24,33.07-20.55,24-33.14,52.55-32.73,84.22.74,57.55,38.34,105.09,87.15,133.21H551.17l.69-.34c.11.12.23.23.35.34h11.92c20.6-10.87,36-28.73,49.63-47,15.39-20.64,30.41-41.91,39.09-66.22,8.37-23.44,9.68-50.26-1.17-73.14-8.42-17.73-24.44-30.7-42.91-37.54a83,83,0,0,0-21.28-4.84,433.76,433.76,0,0,0,83-160c8.29-30.28,13.71-62.32,7.6-93.48-6-30.42-25.23-54.59-52-70.37-13.08-7.7-27.37-13.36-41.81-18.08-7-2.28-14-4.15-21.09-6.23-2.64-.77-5.73-1.67-7.83-3.49-2.68-2.31-1.57-5.41-.59-8.38,5.23-15.81,9.67-31,11.34-47.67a181.88,181.88,0,0,0-2-49.63c-10.47-59.62-53-111.41-109.83-134.9-29.57-12.24-63.07-18-91.92-.89-24,14.19-39.82,39.09-50.81,63.69-13.77,30.85-23,64.06-29.62,97.05A542.49,542.49,0,0,0,274,307.22c-1.7,17.41-1.57,34.77-2.52,52.19-.38,7.1-3.36,9.16-10.38,9.14-7.19,0-14-.87-21.21.26-14.7,2.31-27.69,9.8-38.49,19.64-21.76,19.83-34.24,48.54-40.21,76.62a195.09,195.09,0,0,0,17.64,129.79c6.82,13.23,15.56,24.7,24.78,36.36,3.82,4.83,9.92,12.1,5.42,18.17C204.83,655.08,197.62,659.46,192.22,664.05Z" style="fill:#1e78f0;opacity:0.25"/></g></svg>