<svg xmlns="http://www.w3.org/2000/svg" viewBox="0 0 800 1000"><title>bg-selfie-click</title><g id="backgrounds"><path id="selfie-click" d="M727.57,285.3C713.39,257.09,594.5,136,582.85,127.88,621,111.31,658.33,79.17,697.94,66.42c7.88-2.54,7.12-13.29-1.4-15.11a163.93,163.93,0,0,0-17.41-1L555.81,54.55l-1.72.05C523.38,54,393.44,60.48,370.9,61.29c-7.87.28-9.63,9.68-3.78,14Q377.35,82.78,388,89.62c.18.22,79,63.44,122,89.21q-69.3-3.36-138.69-2.85c-5.25,0-8.06,4.73-7.24,9.49q17,97.89,33.92,195.78L265.26,303.74c-3.17-3.22-9.67-2.87-11.78,1.52C228,358.38,178,429.45,168.71,439.51,144.52,398,102.55,322.08,97.28,305.66s-21.8-13.13-24.77,6.09-16.66,236.79-24,357.19Q45.36,720,42.58,771.09c-.45,8.12,10,9.26,14,3.79A1916,1916,0,0,1,186.18,615.6q15.45-17,31.3-33.67a2130.42,2130.42,0,0,0,93,218.46q15.68,31.74,32.4,63c3.23,6,11.72,4,13.71-1.79a844.14,844.14,0,0,0,31-116.69q5.58-29.5,9.08-59.35c2.08-17.48,3.69-35,7.16-52.3,3.38-16.78,8.57-33,17.48-47.55,59.5,33.74,106.89,84.32,149.4,137.22,12.55,15.61,24.73,31.52,36.83,47.48,4,5.34,14.42,4.45,14-3.78a1431.29,1431.29,0,0,0-22.63-188.23c-11.71-62.22-28.55-122.79-47.23-183.23-9.64-31.2-18.12-63.31-15.43-96.1,67.82-3.59,118.68,3.05,186.34-2.91C727.55,295.67,729.52,289.19,727.57,285.3Z" style="fill:#1e78f0;opacity:0.25"/></g></svg>