<svg xmlns="http://www.w3.org/2000/svg" viewBox="0 0 800 1000"><title>bg-shape-11</title><g id="backgrounds"><path id="shape-11" d="M702.26,221.12h0a20.49,20.49,0,0,0-14.07-9.91,20.18,20.18,0,0,0-6.45-.71c-48.65,2.33-92.25,20.89-124.81,36.8-23,11.24-45.87,23.37-68.24,35.45,16.88-30.76,33.45-62,49.48-93.25l2.33-3.41,5.39-7.86a19.55,19.55,0,0,0,1.05-21.12,22.25,22.25,0,0,0-18.82-10.82,20.83,20.83,0,0,0-9.17,1c-13.91,4.76-26.2,14-37.56,28.12-7.52,9.39-14.47,19.25-21.2,28.79-2.46,3.5-4.92,7-7.41,10.46L404.48,282a553.66,553.66,0,0,0-17.91-79.47,20.52,20.52,0,0,0-15.07-14.24,22.13,22.13,0,0,0-20.86,6.26,20.09,20.09,0,0,0-4.38,19.79l0,.06c-.52,23.51-.35,47.28.51,71-19.87-18.26-36.68-40.27-54.22-63.23-15.82-20.7-32.18-42.11-51.12-60.67-16.18-15.84-33.16-28.51-50.49-37.65A21.88,21.88,0,0,0,166.48,127a19.46,19.46,0,0,0-5.55,21.84c6.72,18,17,33.21,26.23,45.74,7.4,10.08,15,20.25,22.32,30.08q5.18,6.94,10.34,13.88l60.45,81.31-154-23.76c-10.56-1.62-19.79,3.33-23.53,12.62-4.13,10.27.28,22.21,9.84,26.63,9,4.14,18.45,8.38,28.17,12.62a20.35,20.35,0,0,0,9.56,4.79l3.09.66c26.94,11.43,54.46,22.12,82.15,31.89L169,413.84c-9.91,2.74-19.91,5.61-29.75,8.53a20.61,20.61,0,0,0-12.14,9.46c-8.68,4-13,13.48-10.64,23.28,2.49,10.19,11.44,17,21.26,16.3A1590.1,1590.1,0,0,0,302.2,450.3C282.72,500.92,263.33,550.48,242.83,599c-6.38,10.77-11.93,20.65-17,30.18a459.09,459.09,0,0,0-30.76,71.18,19.86,19.86,0,0,0,9.55,24.16,21.09,21.09,0,0,0,12.61,4.24,20.41,20.41,0,0,0,2.7-.18,20.68,20.68,0,0,0,14.82-9.73L374.73,498.94C399.44,553.41,426.4,607.11,455,658.88c1.3,2.35,2.59,4.73,3.88,7.12,8.63,15.94,17.55,32.42,31.91,45.28a21.63,21.63,0,0,0,26,2,20,20,0,0,0,8.51-23.2c-2.95-9.71-6.22-20.28-10-32.29a18.24,18.24,0,0,0-1.09-3.58l-.14-.33c-16.33-52-33.74-103.94-51.89-154.83a753.16,753.16,0,0,0,127.76,59c18.56,6.54,37.86,12.48,57.37,17.64a21,21,0,0,0,22.18-7.82,20.7,20.7,0,0,0,1.34-23.16c-9.26-15.52-23.73-28.68-44.24-40.24-11-6.22-22.46-11.77-33.52-17.13-6.56-3.19-13.34-6.48-19.86-9.83-29.41-15.11-58.6-31.33-87.1-48.4,16.44-3.73,32.89-7.18,49.15-10.31,17.58-3.38,35.47-6.5,53.18-9.26l1.5-.23c6.77-1.05,13.73-2.13,20.58-4.33a20.66,20.66,0,0,0,17.92-9.67,45,45,0,0,0,7.68-8.49,20.18,20.18,0,0,0,.82-21.44,20.65,20.65,0,0,0-19-11c-39.5,1.93-79.46,2.74-119.33,2.41,46.9-24.89,93-51.42,137.67-79.17,1.48-.92,3-1.85,4.43-2.79l52.94-24.44a19.49,19.49,0,0,0,10.4-12.08A21.68,21.68,0,0,0,702.26,221.12Z" style="fill:#1e78f0;opacity:0.25"/></g></svg>