<svg xmlns="http://www.w3.org/2000/svg" viewBox="0 0 800 1000"><title>bg-shape-8</title><g id="backgrounds"><path id="shape-8" d="M88,631.62c-21.91,17.58-22.92,50.21-20.5,75.75,5,53.49,26.08,104.51,59.07,146.8a274.83,274.83,0,0,0,52.63,51.38h367c5.11-2.47,9-6.47,12.5-10.9,8-10.16,15.2-21,22.33-31.74a739,739,0,0,0,39.83-67.62c20.49-39.42,41.44-90.46,11.57-131-15.8-21.47-41.45-28.91-67.07-23.21-14.86,3.3-28,10.56-40,19.46q16-32.12,31.74-64.33c15-30.9,29.54-63.07,34.79-97.31,4.79-31.31,1.17-65.38-21.74-89.18-21.8-22.64-53.94-24.76-81.65-12.38-21,9.37-36.57,25.78-49.73,44.14a93.81,93.81,0,0,0-1.38-21.77A63.35,63.35,0,0,0,411,378.94c-13.8-9.3-30.79-10.2-45.76-3.22-15.82,7.39-27.13,21.77-37.52,35.28s-20,27.43-29,41.84c-10.9-30.66-28.25-59.5-53.4-80.4C216,348.06,176.63,334.69,138.6,342.25c-18.38,3.66-34.12,13.88-43.11,30.54-8.36,15.49-11,33.38-12,50.73A399.24,399.24,0,0,0,95,543.67a403.34,403.34,0,0,0,33.73,88.7C115.58,625.92,100.55,621.54,88,631.62Z" style="fill:#1e78f0;opacity:0.25"/></g></svg>