<svg xmlns="http://www.w3.org/2000/svg" viewBox="0 0 800 1000"><title>bg-shape-10</title><g id="backgrounds"><path id="shape-10" d="M664.87,195.85c-26.48-120.2-142.34-146.16-249-118.09-55,14.47-99.66,34.36-102.38,96.58-.95,21.93-1.08,47.44,13.1,65.69,14,18,36.24,27.6,19.23,53.77-28.55,43.92-108.88,14.56-152,21.39-50.36,8-99.47,40.9-103.3,95.62-3.76,53.9,30.77,97.06,80.82,112.13C214.93,536.06,273,538.66,307.07,573c47.45,47.78-53.23,68.53-83.66,75-24.36,5.2-48.93,0-73.26,9.4A105.4,105.4,0,0,0,94.9,706.26c-23.07,43-14.93,96.49,20.23,130.38C156.54,876.55,207.89,868.81,259,857c27.66-6.4,51.55-9.14,79.39-4.27,7.62,1.34,34.09,11,38.76,1.58s-6.61-15.47-10-24.52c-20.31-53.5,94.13-37,121.94-38.9,53.4-3.56,117.53-28.41,145.91-77.41,12.27-21.16,16.66-49.24,17.61-72.86,1-25.43-5.15-47.7-21.14-69-37-49.25-90.53-77.42-142.75-106.72-20.26-11.37-53.7-27-60.34-51.48-7.3-26.92,21.52-47.78,42.82-57.52,46.65-21.33,100.75-14.53,147.86-34.19C672.54,299.38,676.2,247.31,664.87,195.85Z" style="fill:#1e78f0;opacity:0.25"/></g></svg>