<svg xmlns="http://www.w3.org/2000/svg" viewBox="0 0 800 1000"><title>bg-shape-6</title><g id="backgrounds"><path id="shape-6" d="M231.79,883.72c6.62,10,13.68,19.8,21.09,29.28H594.71c6.86-6.29,11.53-15.78,15.62-23.56a209.74,209.74,0,0,0,16.2-40.93C643,790,636.25,728,624.85,669.25c-6.56-33.76-14.58-67.23-20.47-101.11s-8.82-67.71-7.19-102c1.62-33.86,5.8-67.88,1.54-101.7-3.81-30.22-14-59.36-35.08-82C553.3,271.35,541,262.1,528.43,253.69c-12.89-8.61-26.17-16.93-40.07-23.82a142.75,142.75,0,0,0-46.9-14.4c-16.68-2-33.59-.91-50.19,1.28a306.25,306.25,0,0,0-92.59,27.58c-13.43,6.46-26.6,13.85-37.8,23.79A81.93,81.93,0,0,0,237.3,305c-5,15.56-7.09,32.17-9.14,48.33-2.14,16.82-3.5,33.72-4.52,50.64-2,33.9-2.7,67.87-5.39,101.72A529.26,529.26,0,0,1,201,605.29c-8.8,31.91-19.15,63.53-23.52,96.45a200.55,200.55,0,0,0,10.61,96C199,828,214.13,856.91,231.79,883.72Z" style="fill:#1e78f0;opacity:0.25"/></g></svg>