<svg xmlns="http://www.w3.org/2000/svg" viewBox="0 0 800 1000"><title>bg-shape-5</title><g id="backgrounds"><path id="shape-5" d="M75.21,633.56c12.25,41.11,36.62,77,58.81,113.2,12.69,20.7,24.72,41.81,34,64.31,9.91,24.13,18.32,49.15,32.8,71.06,3.38,6.73,6.77,13.49,10.52,20-2.27,4.45-.17,11.26,6.36,11.25h2.07c.52.43,1.06.84,1.62,1.22h19.45c.39-.39.78-.81,1.15-1.26l237-.51,65.83-.14,31.92-.07c9.32,0,18.33-.77,24.88-8.24,6.42-7.31,11.54-16.06,17.06-24.06S629.84,864.1,635.35,856c11.35-16.76,22.49-33.68,33.12-50.92s20.72-34.69,30-52.63q6.76-13,12.91-26.36c4.09-8.88,9-18.13,11.11-27.71,2.28-10.33-.16-19.43-4.43-28.85s-9-18.85-13.44-28.26l-28.08-59q-13.85-29.06-27.67-58.11-7-14.65-14-29.33c-4.21-8.88-8.25-17.86-10.19-27.55-2-10.15-1.46-20.71-.84-31q.95-15.64,2.35-31.26,2.85-32.24,7.43-64.3,2.25-15.56,4.89-31c1.69-9.85,4.49-20.19,2.14-30.17S630.26,262,623.9,254.57l-20.75-24.31L517.58,130l-20.75-24.32c-2.7-3.16-7.59-2.52-10.46-.12a7,7,0,0,0-2.2.93A802.72,802.72,0,0,1,323,186.1a7.9,7.9,0,0,0-3.05,2q-37.71,2.28-75.46,3.77-40.31,1.57-80.63,2.24c-3,0-6.72,2.27-7.24,5.51a1072,1072,0,0,0-13.49,156c-.16,12.8-.14,25.63-1.41,38.39-1.24,12.45-4.34,24.52-8.17,36.41C126,454,117.5,477.38,108.72,500.52S90.2,546.73,78.65,568.78c-5.54,10.56-10.93,20.45-9.92,32.78A159.49,159.49,0,0,0,75.21,633.56Z" style="fill:#1e78f0;opacity:0.25"/></g></svg>