<svg xmlns="http://www.w3.org/2000/svg" viewBox="0 0 800 1000"><title>bg-trees</title><g id="backgrounds"><g id="trees" style="opacity:0.25"><path d="M208.57,540.51c-1.93,85.46-3.87,200.93-5.81,286.39Q201.86,867,201,907h32.53c-6.44-98.65-5.86-226,1.89-323.77q1.71-21.69,3.91-43.34a74.21,74.21,0,0,0,20-6.3,106.83,106.83,0,0,0,39.11-14.31c26.2-16.24,45.92-43.88,51.2-74.41,5.42-31.32-4-63.24-23.78-87.86-22.18-27.62-55.8-39.64-90.35-41.54a249.27,249.27,0,0,0-29.18,0,8.13,8.13,0,0,0-2-.44,57.19,57.19,0,0,0-28.33,4.74c-16.5,3.86-32.16,10.36-45.4,20.66-13,10.11-23.24,23.76-27.74,39.75-5,17.67-4.13,37.32-1.74,55.34,4.11,31.12,17.83,62.17,43.88,80.43,13.3,16,34.51,20.24,54.16,23.29C202.18,539.78,205.37,540.18,208.57,540.51Z" style="fill:#1e78f0"/><path d="M719.11,263.06c-4.36-30-17.79-63.9-41.91-83.48-13.93-11.31-31.13-16.91-48.44-20.64a353.38,353.38,0,0,0-57-7.48,11.43,11.43,0,0,0-1.44-.27c-64.45-8-131.93,25.47-163.31,82.56a168.75,168.75,0,0,0-20,95.87c2.92,31.92,14.64,68.51,40.46,89.34,14.67,11.83,32.57,16.29,50.88,18.86q30.61,4.28,61.53,5.91l4.58.25c2.65,42.64,1.92,85.61,1.91,128.21q0,106-.43,211.92-.24,60-.61,119.95A7.1,7.1,0,0,0,546,907h33.38a3.69,3.69,0,0,0,1.07-2.47c.35-74.08-2.84-146.91-2.57-220.54.27-74.24-6.8-148.24-3.21-222.41q.4-8.38.9-16.77A208.21,208.21,0,0,0,600,443.17a120.75,120.75,0,0,0,50.76-18.73C703.51,389.85,728,324.37,719.11,263.06Z" style="fill:#1e78f0"/></g></g></svg>