<svg xmlns="http://www.w3.org/2000/svg" viewBox="0 0 800 1000"><title>bg-tv-sounds</title><g id="backgrounds"><path id="tv-sounds" d="M779.51,667.52a854.75,854.75,0,0,0-140.3-127.63q-18.68-13.54-38.1-26C639.27,465.05,697.7,437.29,741,393.65a203.85,203.85,0,0,0,33-42.8c2.33-4.11.29-9.84-4.48-11-43.9-10.82-89.12-3.54-133,3.33-45.24,7.09-90.31,15.26-135.29,23.82q-24.12,4.59-48.2,9.3c41.43-44.89,64.64-79.21,97.35-120.24,3.48-4.36-7.09-11.05-12.23-9.22Q431.28,284.72,323.92,321q-23.68,8-47.38,15.9l32.13-100.72c2.06-6.48-5.51-11.45-11-8.47q-65.4,35.37-128.33,75l4.18-50c.53-6.33-8.68-10.1-12.81-5.3Q113.61,302.22,70.18,360c-3.33,4.43,1.14,11.74,6.48,11.28a263.62,263.62,0,0,0,36.07-5.57,282.69,282.69,0,0,0-43.17,67.88c-3.07,6.82,3.22,13.75,10.26,10.26q51.21-25.42,101.06-53.4-8.55,20-17.12,40c-2.51,5.87,1.61,12.67,8.47,11q58.13-14,117.09-23.95a413.31,413.31,0,0,0-65.14,57.82c-5.24,5.75,0,13.89,7.3,12.53q100.89-18.71,203.21-27.62c-16.17,16.25-37.06,27.46-57.36,37.82C351,511.57,323.91,524.35,302,544.64c-3.77,3.48-2.28,9.17,1.52,11.78a505.69,505.69,0,0,0,124.3,62c-57.34,14.68-116.62,19.9-175.53,24.95-6.4.54-10,7.83-5.3,12.8q70.77,75.19,140.33,151.52a1024.09,1024.09,0,0,1-185.38-33.91c-6.78-1.9-11.09,5.33-8.47,11A471.56,471.56,0,0,1,214.36,839L129.1,810.68c-7.62-2.53-11.85,7.29-7.3,12.54a328.1,328.1,0,0,1,30.59,41.4q6.6,10.59,12.4,21.64c3.55,6.77,6.37,14.17,11.12,20.22A24.14,24.14,0,0,0,182,912H619.41c6.29-.28,12.57-.55,18.85-.85,3.91-.18,7.68-3.28,7.5-7.5-1.71-39.67-34.27-65.9-48.37-100.59L746.8,829.58c6.24,1.11,11.91-5,8.47-11q-35.46-62.17-70.9-124.36l91.83-14.14C782.22,679.13,782.82,671.29,779.51,667.52Z" style="fill:#1e78f0;opacity:0.25"/></g></svg>