<svg xmlns="http://www.w3.org/2000/svg" viewBox="0 0 800 1000"><title>bg-trumpet-sound</title><g id="backgrounds"><path id="trumpet-sound" d="M690.3,89.9q-62,19.5-125,35.66,4.5-28.47,6.61-57.25c.38-5.36-6.8-9.79-11.29-6.48a374,374,0,0,0-58.24,53.38q-.83-19.6-.44-39.23c.14-7.47-10.3-10.16-14-3.79Q457.73,124.5,427.53,176.8c-17.82,31-36.12,65.54-31.52,102.49.42,3.4,2.34,6.41,5.6,7.26a6.92,6.92,0,0,0,4.74,4.21c34.2,9.87,61.42,34.15,91.46,52.1S560.52,373.92,591.6,390c17.59,9.09,34.83,19.16,50.33,31.55,5.23,4.18,15.28.53,12.53-7.3-14.26-40.7-50.39-64.91-77.44-96.38a744,744,0,0,1,101.56,9.95c5.69,1,10.56-3.28,9.23-9.22a185.58,185.58,0,0,0-43.14-83.34l47.83-24.09c5.38-2.71,4.63-12.8-1.8-13.71q-25.47-3.6-50.61-9.11a668.53,668.53,0,0,1,57.51-85.9C701.83,97.07,698.16,87.42,690.3,89.9Z" style="fill:#1e78f0;opacity:0.25"/></g></svg>