<svg xmlns="http://www.w3.org/2000/svg" viewBox="0 0 800 1000"><title>jake-home</title><g id="jake"><g id="home"><g id="body"><path d="M351.14,906.43a.25.25,0,0,1,0,.07l0-.13S351.14,906.41,351.14,906.43Z" style="fill:#1e78f0"/><path d="M576.66,634.09c.58-19.64.11-51.41-.4-71-.51-19.21-8.72-93.43-11.41-111.19-.17-1.09-.35-2.17-.55-3.24v0c-3.32-23.89-19.86-56.71-36.83-73.22A135,135,0,0,0,500.12,355c-11.25-6.28-29.74-11.42-45.64-11.6-5.42-.06-16.73.37-30.13,1.06-28.59-1.29-73.51-2.27-86.18-1.69C322.28,343.52,304,349.3,293,356a134.88,134.88,0,0,0-26.62,21.29c-10.23,10.67-18.88,22.24-24.54,35.26-7.05,13.24-12.88,26.15-15.18,41.35-2.68,17.76-10.9,92-11.41,111.19-.51,19.63-1,51.4-.4,71,.45,15.58-2.08,35.13.53,55.59h0a87.48,87.48,0,0,0,1,10.28c1.6,9.82,7.59,19.22,17.84,21.45,9.31,2,30.62.33,38.73-6.16-.07,10.3-.08,20.61-.12,30.92-.11,27.26-.74,54.52-2.65,81.71-.94,13.26-2.6,55.57-3.19,64.56-4.2,1.87-14.32,7-17.5,10.61-3.68,4.15-1.71,9.58,4.1,10.1,28.92,2.55,83.41.25,90.5.25s7.05-6.88,7.09-11.59-.2-25,.1-33c.27-7.47.63-14.93.76-22.4.14-8.21,1-31.65,1.08-39.85.18-30,5.16-135.24,5.8-165.7.7-33.4,2-66.78,3.32-100.16,14.75-.1,29.49-2.18,44.26-2,7,.06,14.88.4,22.26-.77.23,15,3.58,30,5.27,45,1.45,12.82,1.4,25.71,3.08,38.53,1.78,13.53,6.31,68,6.72,81.72.42,14,1.11,27.94,1.85,41.91,1.48,27.93,3.22,55.86,3.62,83.83.21,15.36.52,41.23.52,56.4s-.82,28.52,3.88,28.66c15.19.46,39.81.61,55-.09,12.66-.58,22.51.17,34.91-3,7.2-1.84,5.12-10.57-1.66-12.59-2.48-.74-14.23-8-14.23-8s-2.72-31.53-3.22-58.15c-.52-28.53-.62-69.8-3.2-98.19-.46-5-.89-11.85-1.3-19.71,8.93,5.68,28.54,7.11,37.37,5.18,10.25-2.23,16.24-11.63,17.84-21.45a87.48,87.48,0,0,0,1-10.28h0C578.74,669.22,576.21,649.67,576.66,634.09Z" style="fill:#1e78f0"/><path d="M316.56,288.87c10.37,6.63,38.25,0,42.62-20,11.63,8,24.7,2.17,31.81-6.6,5-6.22,5.53-13.56,1.56-18.28,7.06-5.72,13.17-13.06,18.35-20.12,7-9.52,15.09-23,11.68-35.29-3.12-11.29-17.09-17.82-28-14.6-11.48,3.37-17.84,15.42-21.77,25.82a122.74,122.74,0,0,0-5.95,21.84c-6.29-6.6-15-9.73-24.42-3.57a24.19,24.19,0,0,0-11.16,20.34c-.09,5.38,1.17,10.56,2.21,15.78-8.08-2.55-17-1.55-22.77,5.85C303.77,268.85,306.19,282.23,316.56,288.87Z" style="fill:#1e78f0"/></g><g id="body-lines"><path d="M512,702.89a21,21,0,0,1,5-16" style="fill:none;stroke:#3741f0;stroke-linecap:round;stroke-linejoin:round;stroke-width:6px"/><path d="M514.1,694.58a7.57,7.57,0,0,0,5.27.88" style="fill:none;stroke:#3741f0;stroke-linecap:round;stroke-linejoin:round;stroke-width:6px"/><path d="M539.35,717.41a9.21,9.21,0,0,0,5.29-3.43" style="fill:none;stroke:#3741f0;stroke-linecap:round;stroke-linejoin:round;stroke-width:6px"/><path d="M553.1,719.38a9.24,9.24,0,0,0,4.62-4.29" style="fill:none;stroke:#3741f0;stroke-linecap:round;stroke-linejoin:round;stroke-width:6px"/><path d="M500.66,476.62c4.94,38.89,6.08,78.15,7.21,117.34L510,667.7a24.3,24.3,0,0,1-.44,6.82c-1.36,5.3-6.19,9.47-6.5,14.94-.25,4.32.87,11.95,5.54,11.32-1.31,7,4.66,16.45,10.16,16.63" style="fill:none;stroke:#3741f0;stroke-linecap:round;stroke-linejoin:round;stroke-width:6px"/><path d="M279.5,704.89a21,21,0,0,0-5-16" style="fill:none;stroke:#3741f0;stroke-linecap:round;stroke-linejoin:round;stroke-width:6px"/><path d="M277.37,696.58a7.57,7.57,0,0,1-5.27.88" style="fill:none;stroke:#3741f0;stroke-linecap:round;stroke-linejoin:round;stroke-width:6px"/><path d="M252.12,719.41a9.21,9.21,0,0,1-5.29-3.43" style="fill:none;stroke:#3741f0;stroke-linecap:round;stroke-linejoin:round;stroke-width:6px"/><path d="M238.37,721.38a9.24,9.24,0,0,1-4.62-4.29" style="fill:none;stroke:#3741f0;stroke-linecap:round;stroke-linejoin:round;stroke-width:6px"/><path d="M290.81,478.62c-4.94,38.89-6.08,78.15-7.21,117.34l-2.13,73.74a24.3,24.3,0,0,0,.44,6.82c1.36,5.3,6.19,9.47,6.5,14.94.25,4.32-.87,11.95-5.54,11.32,1.31,7-4.66,16.45-10.16,16.63" style="fill:none;stroke:#3741f0;stroke-linecap:round;stroke-linejoin:round;stroke-width:6px"/><line x1="224.76" y1="916.35" x2="577.86" y2="916.35" style="fill:none;stroke:#3741f0;stroke-linecap:round;stroke-linejoin:round;stroke-width:6px"/></g><path id="object" d="M638.59,554.2c-2.85-9.82-23.07-77.9-30-98.85S587.08,387,583,372.75s-12.52-51.33-20.43-51.33h0a11.78,11.78,0,0,0-4.9-.87c-9.81,0-41-.67-63.06.14-26.28,1-52.59.81-78.88,1.32-18,.35-37.16,1.13-56.66,1.94-.08-5.07-.17-10.14-.31-15.2-.08-2.93-1.07-5.86-6.47-6.18-9.18-.53-29,0-32.39.09-9.94.29-10.54,1.86-11,13.52-.11,2.76-.17,6-.19,9.62-15,.41-29.61.63-43.52.45-8.44-.12-15.09.51-19.67,4.16s-6.72,10.28-9.33,17.5c-3.94,10.89-13.19,37.76-17.5,48.5-7.22,18-31,91.59-36.55,111.38-6.33,22.72-14.5,47.89-21.11,70.52-1.06,3.63-.12,8.16,4.88,8.28s87.82.08,106.94,0q62.64-.14,125.21.08c23.64.08,66.16.83,70.87.95s7.53-.86,9.33-6.23,16.6-54.45,24.54-77.5,19-56,26.1-73.45c3.51-8.67,8.86-22.39,14-35.61,10.62,16.66,19.15,37.3,21.43,53.72v0c.2,1.07.38,2.15.55,3.24,2.69,17.76,10.9,92,11.41,111.19,0,1.08,0,2.2.08,3.35q28.38-.07,56.75-.34C636.1,566,641.44,564,638.59,554.2Z" style="fill:#f0b441"/><g id="object-lines"><path d="M568.17,340.08q-13.95,28.05-25.86,57.05" style="fill:none;stroke:#dc8c2d;stroke-linecap:round;stroke-linejoin:round;stroke-width:6px"/><path d="M306.5,328.67c0,14.42.5,35.11.38,47.32-.16,17.21.51,21.78,2.82,23.26s4.35,1.82,8.83,1.91,25.09,0,30.54-.17,7.7-1,9.38-3,2.3-6.28,2.55-12c.39-8.58.18-25.8.26-33.22q.15-13.23,0-26.47" style="fill:none;stroke:#dc8c2d;stroke-linecap:round;stroke-linejoin:round;stroke-width:6px"/></g></g></g></svg>