<svg xmlns="http://www.w3.org/2000/svg" viewBox="0 0 800 1000"><title>jake-singing</title><g id="jake"><g id="singing"><g id="body"><path d="M645.11,318.57c-3.88-6-10.38-11.39-16.21-15.59-6.62-4.77-19.87-12-27.18-15.63-15.12-7.47-25.39-12.56-40.47-20.09l0,0q-2.13-1.29-4.36-2.61a33.3,33.3,0,0,0,1.57-8.51c.31-8.7-4.33-17.63-13-20.35a15.87,15.87,0,0,0-14.63,3c-5.86-2.6-11.52-1.48-16.29,1.88.47-5.58.9-11.16,1.23-16.76s2.48-14.2-1.94-18.7c-2.68-2.74-6.43-2.14-9.19,0-6.08,4.7-7.14,12.75-8.53,19.8-1.74,8.79-3.28,17.62-4.68,26.47,0,.12,0,.24,0,.36a6.48,6.48,0,0,0-3.32,4c-3.36,10.72-7.83,28.11,2.77,36.32a15.17,15.17,0,0,0,2.78,1.69c24.71,17.39,68.67,35.34,81.68,46,4.94,4.22,2.71,8.3-4.38,9.1-16.8,1.89-55,4-83.68,2.53s-69.7-2.13-103.71,0H370.25a123.89,123.89,0,0,0-13.76.12c-37.16.79-60.92,5.19-78.42,9.45-19.57,4.76-44.9,14.22-59.33,22.5-29,16.62-50.19,40-59.84,52.09s-15.74,30.6-15,50.48,16.27,43.39,27.7,55c11.89,12.07,32.61,35.44,49.43,45.18S256.87,602,270.27,597a11.6,11.6,0,0,0,3.77-2.82c-.05,3.46-.08,7.92-.07,11.38,0,14.27.8,32.14.76,46.39h0q-.4,31.71-.55,63.43c-.11,31.47.06,63,.7,94.41.28,13.87-.42,70.2-.42,70.2s-11.6,7.78-16.08,11.66-3,13.67,6.11,13.67h90.86c8,0,10.27-4.89,10.27-12.12s-.13-73.29-.15-88.33c-.06-54.24-1.31-108.51.93-162.72,1.89-45.73,2.48-136.35,2.48-136.35l53.51,1.58S426,876.82,426,886.72s3.51,18.63,13.74,18.63,80.12-.14,89.27-.14,11.88-2.66,11.88-8.19-17.23-15.9-24-19.46c-.13-.07-2.53-162.23-2.9-194.65-.18-15.82-.2-31.65-.49-47.46-.3-16.35-1.35-32.67-1.69-49-.64-30.93,0-62.07-.4-93-.33-22.94-.51-50-.53-66.83,13.91-1.27,28.18-2.85,38.86-4.57a389.41,389.41,0,0,0,49.94-11.59c13.3-4,29.09-8.95,40.59-19.95s15-20.78,15.83-36.64S652.39,329.84,645.11,318.57Zm-437.73,170c.3-7.68,10.09-16,24.21-25.61s30.15-14.5,46.51-16.51c.06,2.48.12,4.76.19,6.9-.38,18.64-.91,37.79-1.29,55.81-9.69,8.59-17.67,19.07-22,31.16h0C238.91,535.17,207.09,496.28,207.38,488.6Z" style="fill:#1e78f0"/><path d="M375,293.29a96.71,96.71,0,0,0,6.84,12.56c4.32,6.59,12,12.7,20.38,11.91,7.95-.76,16.52-8,19.13-15,3.85-10.32,3.14-23.11-1.05-34.46l5.92-4a2,2,0,0,0,.5-3.08A85.64,85.64,0,0,0,401,244.05c-5.82-3.17-12.76-4.77-18.51-2.36-11.43,4.79-17.2,18.46-13,35.14a60.82,60.82,0,0,0-6.8,1.55c-5.49,1.62-11.24,5.64-9.16,12.18C356.17,299.07,366.43,296.37,375,293.29Z" style="fill:#1e78f0"/></g><g id="body-lines"><line x1="576.89" y1="905.35" x2="212.87" y2="905.35" style="fill:none;stroke:#3741f0;stroke-linecap:round;stroke-linejoin:round;stroke-width:6px"/><path d="M279.51,506.69c1.91-3,19.4-17.87,25.13-11.92,6,6.23-18.05,21.24-21.95,26.13,7.67-6.5,23.55-19.92,27.68-13.7s-6.66,12.83-12.15,17.69c-6.91,6.1-11.41,12.23-17.66,18.43,3.43-4,15.81-18.48,21.88-14.93,8.44,4.93-7.08,15.75-10.11,19.36-9.32,11.12-14.8,23.58-19,42" style="fill:none;stroke:#3741f0;stroke-linecap:round;stroke-linejoin:round;stroke-width:6px"/><path d="M531.63,238.22c4.91,1.93,8.36,6.61,9.86,11.66s1.25,10.46.5,15.68c-.68,4.64-1.8,9.36-4.48,13.22a16.69,16.69,0,0,1-2.83,3.11" style="fill:none;stroke:#3741f0;stroke-linecap:round;stroke-linejoin:round;stroke-width:6px"/><path d="M557.59,265.57c-2.8,6.84-10.13,11.06-16.91,8.1" style="fill:none;stroke:#3741f0;stroke-linecap:round;stroke-linejoin:round;stroke-width:6px"/><path d="M519.83,268.58a22.31,22.31,0,0,1,14.75,13.19c.9,2.29,2.1,4.44,2.88,6.78" style="fill:none;stroke:#3741f0;stroke-linecap:round;stroke-linejoin:round;stroke-width:6px"/></g><g id="object2"><path d="M488,255.8c2.48-7.91,14.91-5.13,12.65,3a22.42,22.42,0,0,0-.63,8.19,20.49,20.49,0,0,1,6-1.4,20.74,20.74,0,0,1,13,3.57c.33-1.33.71-2.54,1-3.52A33.37,33.37,0,0,0,521.38,254c-.12-3.18-.56-4-2.19-5a12.42,12.42,0,0,0-4.85-1.19L469,253a6.78,6.78,0,0,0-2.83,1h-.89a6.63,6.63,0,0,0-6.5,6.5,13.63,13.63,0,0,0,0,1.7c-4.21,7.26,3.64,16.2,11.89,16.19,4.46,0,9-1.07,13.51-2C484.12,269.18,486.23,261.54,488,255.8Z" style="fill:#dc8c2d"/><path d="M574.9,240.84l-20,2.29a22.61,22.61,0,0,1,3.51,13,33.69,33.69,0,0,1-1.69,8.89q14.84-2,29.68-3.81a10,10,0,0,0,8.53-10C594.94,239.85,583.84,239.83,574.9,240.84Z" style="fill:#dc8c2d"/></g><path id="object" d="M451.85,246.76c-11.72,3.24-16.17,18.12-11.67,28.77a15.87,15.87,0,0,0,7.09,10.11c11,7.35,25.52-1.27,27.38-13.49C476.55,259.6,466.22,242.79,451.85,246.76Z" style="fill:#f0b441"/></g></g></svg>