<svg xmlns="http://www.w3.org/2000/svg" viewBox="0 0 800 1000"><title>jake-shopping-cart</title><g id="jake"><g id="shopping-cart"><g id="body"><path d="M616.68,466.65c-8.25-9.12-23.78-11.52-37.17-11.11-.78,0-1.55-.05-2.34-.05a367.16,367.16,0,0,0-55.1,4.55,80.88,80.88,0,0,0-25.31-8.48C490.7,439,486.2,429,478.44,413.32A123.59,123.59,0,0,0,458,383.85a66.55,66.55,0,0,0-30-18,115.19,115.19,0,0,0-14-3.05l-.05,0c-15.67-2.37-39-4-50.52-4.47-12.14-.47-33.34-1-45.5-.61l-1.09,0q-12.66.12-25.31,1c-11.64.82-25.21,1.41-33.54,10.81-8.7,9.81-10.3,24.31-8.7,36.83A75.93,75.93,0,0,0,252.37,420c-4.25,12.82-10.54,32.16-16.93,52.35-8.87,25.3-42.5,130.91-45.5,139.83s-10.64,15.44-18.17,21C166.72,637,67.75,684.85,15,709.16a5.87,5.87,0,0,0-2.94,2.77,6.51,6.51,0,0,0-.95,6.52c9.84,28.68,14.32,50.83,26,77.58.69,1.58,4.32,8.38,5.21,9.19,2.15,2,4.64,2.27,7.42,1.66s4.28-3.73,4.4-6.32a48.75,48.75,0,0,1,.76-6.47c33.92-18.33,76.91-35.6,100.58-47C203.33,724,235.45,708,253.14,689.4c8.79-9.25,19.58-33,29.09-68.61,5.52-20.65,14.8-57.7,22.17-87.47L317,538.17c5.76,16.36,11.33,32.36,15.36,44.42,8,24,22.27,73.28,23.43,82.63s3.42,29.81,3,39.18c-.25,6.28-12.18,151.82-13.76,209.87a5.85,5.85,0,0,0,1.18,3.87,6.19,6.19,0,0,0,5.42,3.73c29.05,2,55.49,1.18,84.68.34,1.72-.05,9.38-.87,10.46-1.39,2.64-1.27,3.84-3.46,4.32-6.27s-1.86-5.36-4.22-6.44a51.42,51.42,0,0,1-5.72-3.12c3.71-26,5.93-73.06,7.94-99.26,4.06-52.94,6.34-130.28-.86-154.91-3.58-12.25-7.89-37.72-17.78-73.2-4.91-17.63-12.95-40.38-20.3-60.22,13-4,27.6-9.08,38.46-14,4.4,5.62,9.63,10.29,16.81,12.94,11.94,4.41,28.66,7.28,53,3.58,6.3-1,27.54-11.38,41.14-20.67a15.19,15.19,0,0,0,3.76,9.39c2.52,2.56,7.58,4,11.84,4,4.57.73,10.12-.44,14.66-1.75,2.78,3.81,11.11,4.45,16.45-.67,5.33,2.43,12.54-3,16.12-8.58C629,491.45,624.28,475.07,616.68,466.65Zm-205-32.1a217.08,217.08,0,0,1,11.93,18.9c-5.7.57-11.76,1.22-17.74,1.9C407.8,448.48,409.53,441.42,411.69,434.55Zm155.73,58.67a23.89,23.89,0,0,0,2.66-2.83c1.48-2,2.46-.91,3.76.71,1.17,1.46,2.35,2.92,3.55,4.36a9.09,9.09,0,0,0,1.84,1.54,10.51,10.51,0,0,1-.23,2c-2.24-2.68-6.72-3.64-10.33-4.42C568.25,494.08,567.84,493.62,567.42,493.22Z" style="fill:#1e78f0"/><path d="M347.33,308.13c-.73,5.81,1,11.07,3.56,18.31s9.26,13.24,22.41,13.79c16.3.68,23.54-13.7,27-27.48l7.29.78a2.44,2.44,0,0,0,2.95-2.51,106.08,106.08,0,0,0-9.77-35.34,32.21,32.21,0,0,0-5.06-9.79c-10.55-13.67-27.92-8.58-36.61,4.05a63.78,63.78,0,0,0-6.71,12.95c-3.31-.73-6.74-1.83-10.19-1.24A14,14,0,0,0,331,296.11C331.52,304.67,339.42,307.24,347.33,308.13Z" style="fill:#1e78f0"/></g><g id="object"><path d="M495.77,920.25c8.21,2.26,19.12-2,22.18-12.49,2.28-7.77-1-16.43-6.94-19.2a4.08,4.08,0,0,0-1.79-1.72c-9-4.38-19.75-4.1-24.17,8.31C481.3,905.69,486.82,917.79,495.77,920.25Z" style="fill:#f0b441"/><path d="M589.91,895.15c-4.41-12.41-15.21-12.69-24.17-8.31a4.11,4.11,0,0,0-1.78,1.72c-6,2.77-9.22,11.43-6.94,19.2,3.06,10.45,14,14.75,22.18,12.49C588.15,917.79,593.66,905.69,589.91,895.15Z" style="fill:#f0b441"/><path d="M640.62,920.25c8.21,2.26,19.12-2,22.18-12.49,2.28-7.77-1-16.43-6.94-19.2a4.08,4.08,0,0,0-1.79-1.72c-9-4.38-19.75-4.1-24.17,8.31C626.15,905.69,631.67,917.79,640.62,920.25Z" style="fill:#f0b441"/><path d="M731.7,909.65c5.63-11.58-.67-19.8-9-23.52a3.29,3.29,0,0,0-2.22-.17c-5.42-2.58-13.16.79-17,7.68-5.12,9.27-1.45,20.25,5,24.84C715.55,923.49,726.93,919.49,731.7,909.65Z" style="fill:#f0b441"/><path d="M775.33,546.91c0-2.68-6.16-6-9-6-83.54,1.27-163.08,1.54-246.61,2.81l-35.8.55-16.91.26c-3.28.05-7.25-.52-10.56.4-3.14-.89-7.52,1.73-6.74,6.1,2.87,16.12,3.66,32.44,4.67,48.75q1.59,25.77,3.19,51.54,3.19,51.54,6.38,103.08a5,5,0,0,0,4.23,4.71,5.09,5.09,0,0,0,2.61.91c38.82,2.88,107,1,155,1s116.34-.36,138.52-.36c5.89,0,8.21-3,8.35-6.92C775.21,682.45,774.94,617.59,775.33,546.91Z" style="fill:#f0b441"/><path d="M473.55,504.34c5.54-2.3,5.19-13.87-.86-15.93a22.76,22.76,0,0,0-3.31-.75l-15.45.42-12.76.35a8.5,8.5,0,0,0,.23,17h.23l12.77-.36,18.6-.51Z" style="fill:#f0b441"/><path d="M571.78,486.29c-.22,0-.44-.06-.66-.1-13.35-.09-26.83,0-40.27.15.48,6.19-.6,12.3-3.91,17.06,16.45-.24,33-.33,49.21-.17C581.88,499.78,579.18,487.25,571.78,486.29Z" style="fill:#f0b441"/><path d="M632.5,488c-2.33-.14-4.7-.25-7.06-.38.38,5.06-.45,10-3,14a24.53,24.53,0,0,1-2.07,2.73q5.64.25,11.16.58a8.5,8.5,0,1,0,1-17Z" style="fill:#f0b441"/></g><g id="body-lines"><path d="M253,423.8s7.78,16.76,13.61,27.54c13.61,25.2,22.32,42.8,39.46,65.76,5.61,7.53,18.47,14.92,29.23,16.31,14.2,1.83,51.3-5.69,73.17-13.64" style="fill:none;stroke:#3741f0;stroke-linecap:round;stroke-linejoin:round;stroke-width:6px"/><path d="M359,466.35c-11.61-16.32-18.38-28-28.4-49.29" style="fill:none;stroke:#3741f0;stroke-linecap:round;stroke-linejoin:round;stroke-width:6px"/><path d="M489.78,450.07c-39.21-1.45-99.67,9.5-129.95,17.11" style="fill:none;stroke:#3741f0;stroke-linecap:round;stroke-linejoin:round;stroke-width:6px"/><path d="M465.42,507.63a12,12,0,0,0,6.15,5.75,25.6,25.6,0,0,0,12.32,1.83c5.4-.78,10.09-4.5,12.9-9.17s3.92-10.2,4.12-15.65" style="fill:none;stroke:#3741f0;stroke-linecap:round;stroke-linejoin:round;stroke-width:6px"/><path d="M516.92,489.73c.2,4.15-.63,9.85-6.35,17.9s-14.88,9.77-21.58,5.9" style="fill:none;stroke:#3741f0;stroke-linecap:round;stroke-linejoin:round;stroke-width:6px"/><path d="M528.37,505.12c-2.86,3.92-4.41,4.77-8.46,7.44s-10.58,3.19-14.07-.15" style="fill:none;stroke:#3741f0;stroke-linecap:round;stroke-linejoin:round;stroke-width:6px"/><path d="M523.33,462c3.3,3.8,9.28,15.17,9.38,22.19" style="fill:none;stroke:#3741f0;stroke-linecap:round;stroke-linejoin:round;stroke-width:6px"/><path d="M591.62,509.26c3.72-3.27,6.78-13.35,6.66-18.3" style="fill:none;stroke:#3741f0;stroke-linecap:round;stroke-linejoin:round;stroke-width:6px"/><path d="M612.78,491c.71,3.71-.39,10.92-5.49,18.3" style="fill:none;stroke:#3741f0;stroke-linecap:round;stroke-linejoin:round;stroke-width:6px"/><path d="M554.78,466.46c27.09-2.88,39.52,2.28,37.66,11.65-2.41,12.15-13.34,8.5-22.32,7.87" style="fill:none;stroke:#3741f0;stroke-linecap:round;stroke-linejoin:round;stroke-width:6px"/><line x1="747.25" y1="922.36" x2="223.09" y2="922.36" style="fill:none;stroke:#3741f0;stroke-linecap:round;stroke-linejoin:round;stroke-width:6px"/></g><g id="object-lines"><line x1="623.77" y1="505.5" x2="625.82" y2="541.95" style="fill:none;stroke:#dc8c2d;stroke-linecap:round;stroke-linejoin:round;stroke-width:6px"/><path d="M474.89,759.46c1.57,43,3.44,79.23,7.05,123.56,121.19-2.95,262.79-.1,262.79-.1" style="fill:none;stroke:#dc8c2d;stroke-linecap:round;stroke-linejoin:round;stroke-width:6px"/><path d="M452.78,505.93s1.76,20.76,2.71,38.92" style="fill:none;stroke:#dc8c2d;stroke-linecap:round;stroke-linejoin:round;stroke-width:6px"/><path d="M472.58,604c129.25-5.78,184.22-6.08,291.71-5" style="fill:none;stroke:#dc8c2d;stroke-linecap:round;stroke-linejoin:round;stroke-width:6px"/><path d="M473.84,652.2c107.29-1.52,175.4-1.66,283.89.86" style="fill:none;stroke:#dc8c2d;stroke-linecap:round;stroke-linejoin:round;stroke-width:6px"/><path d="M477.58,707.63c96.12-.41,179.22.23,280.15.23" style="fill:none;stroke:#dc8c2d;stroke-linecap:round;stroke-linejoin:round;stroke-width:6px"/><path d="M504.48,554.1c3.31,77.54,6.62,118.07,9.92,195.61" style="fill:none;stroke:#dc8c2d;stroke-linecap:round;stroke-linejoin:round;stroke-width:6px"/><path d="M566.62,555.64c-.24,74.51-.47,118-.71,192.53" style="fill:none;stroke:#dc8c2d;stroke-linecap:round;stroke-linejoin:round;stroke-width:6px"/><path d="M622.29,555.69c-1.24,74.57-.16,188.77-.16,188.77" style="fill:none;stroke:#dc8c2d;stroke-linecap:round;stroke-linejoin:round;stroke-width:6px"/><path d="M676.8,558.4c-2.93,73.27-3,187.59-3,187.59" style="fill:none;stroke:#dc8c2d;stroke-linecap:round;stroke-linejoin:round;stroke-width:6px"/><path d="M726.05,557.71c-.57,80.14-3.28,131.92-3.5,190.71" style="fill:none;stroke:#dc8c2d;stroke-linecap:round;stroke-linejoin:round;stroke-width:6px"/></g></g></g></svg>