<svg xmlns="http://www.w3.org/2000/svg" viewBox="0 0 800 1000"><title>jake-boxer</title><g id="jake"><g id="boxer"><g id="body"><path d="M569.12,557.64c7.42-11.83,14.41-28.47,19.68-48.63,7.63-29.17,9.68-73.83,7.32-108.43-.09-1.34-.28-3.53-4.08-3.84-18-1.48-30.16-2.9-47.89.29a4.31,4.31,0,0,0-3.06,3.23q-2.4,21.38-6.26,42.55c-.65,3.55-3,18.72-6.43,32-4.14-22.59-14.69-70.75-28.08-89.43-9.69-13.51-22.62-22.42-39.17-25a95.71,95.71,0,0,0-11.64-1.06A94.58,94.58,0,0,0,435,356.71c-15.17-1.48-41.89-2.48-57-.7-12.32,1.45-84.65,6.69-110.25,21.11a235.71,235.71,0,0,0-64.08,53.15,262.42,262.42,0,0,0-21.15,28.5,176.45,176.45,0,0,0-27,58.1c-7.37,28.11-9.55,64.91,8.76,89.56,22.76,30.64,65.55,28.72,101.68,18.16-.24,17.38-.25,35-.66,48.75-.8,26.67-1.35,53.23-1.84,79.89-.49,26.5-.93,53-2,79.47-.5,12.91-2.12,56.49-2.63,65.24-4.06,1.84-9.48,4.54-12.54,8-3.55,4.06-1.59,10.3,4.07,10.76,28.13,2.27,50.79-.11,79,.65a6.26,6.26,0,0,0,2.75-.52,8.21,8.21,0,0,0,.9.41c5.58,2.14,6.69-7.89,6.82-9.36l0,.06,0-.12a1.16,1.16,0,0,0,0-.13c.07-.4-.56-8-.59-11.06-.06-7.81.17-15.63.4-23.44.21-7.26.5-15.91.57-23.17.08-8,2-82.92,2.8-112,.81-29.64,2-58.27,2.37-87.9.44-32.48,1.49-78.79,2.5-111.25,14.33-.21,28.65-2.33,43-2.31,6.83,0,14.47.27,21.63-.91.34,14.55,3.71,29.16,5.46,43.72,1.5,12.45,1.55,25,3.29,37.45,1.82,13.13,6.63,79.92,7.13,93.24.51,13.59,1.28,27.17,2.11,40.74,1.65,27.15,3.54,54.29,4.13,81.49.33,14.93,1.67,66.15,2.1,76.95,0,.11,1,7.85,5.6,8,14.76.63,26.63-1.06,41.37-1.06,12.33,0,24.78,1.33,37-1.18,7.08-1.46,5.81-11.61-1-12.3-2.5-.26-5-.62-7.42-1l0-.32c-3.4-25.71-6.78-109.21-6.7-136.93s-2.93-79.9-4.38-107.43c-.71-13.48-2.23-40.55-3.75-53.95-1.1-9.78-1.92-19.59-2.79-29.4,7.1,5.39,17,9.34,30.84,9.71,14.49.38,25.3-4.88,33.55-12.88l0,0c.39-.38.78-.77,1.16-1.17l.24-.25c.27-.28.54-.56.8-.86A68.56,68.56,0,0,0,569.12,557.64ZM233.19,533.29C223.61,513,232.91,489.66,251,475a82.73,82.73,0,0,1,14-8.77,167.28,167.28,0,0,1,1.44,17.22c.18,14.54-.66,29.06-.58,43.59,0,6.53.45,13.11.74,19.69C253.22,550.44,240.11,547.91,233.19,533.29Z" style="fill:#1e78f0"/><path d="M325.53,319.23c3.67,11.32,10.72,21.85,22.84,24.66a6.52,6.52,0,0,0,2.55.09c17.22,3.2,20.51-18,19-37.41l8.06-1.9a2.35,2.35,0,0,0,1.89-3.22,102.18,102.18,0,0,0-19.27-28.07c-7.46-10.36-20.47-16.94-30.91-5.26-5.61,6.28-7.6,15-7.85,23.84-8.77,3.34-23.74,9.41-17.68,20.82C308,320.05,317.55,320.38,325.53,319.23Z" style="fill:#1e78f0"/></g><g id="body-lines"><path d="M269.47,623.53c15.68-5.88,43.61-22.45,56.83-40.09" style="fill:none;stroke:#3741f0;stroke-linecap:round;stroke-linejoin:round;stroke-width:6px"/><path d="M267.5,546.66c16.24-4.12,32.59-12.32,40.8-15.58" style="fill:none;stroke:#3741f0;stroke-linecap:round;stroke-linejoin:round;stroke-width:6px"/><line x1="206.88" y1="915.6" x2="559.88" y2="915.6" style="fill:none;stroke:#3741f0;stroke-linecap:round;stroke-linejoin:round;stroke-width:6px"/><path d="M482.08,417.75c5.82,8.67,13.75,121.83,15.77,176.32" style="fill:none;stroke:#3741f0;stroke-linecap:round;stroke-linejoin:round;stroke-width:6px"/></g><g id="object"><path d="M629.76,307.22c-.28-8.18-1.45-16.51-5-24-8.09-17.25-29.1-23.53-46.34-23.38-8.47.08-21.54,3.46-29.36,7.07-8.79,4-17,14.23-20.8,22.82-8.31,18.93-5.11,44.28-2.86,57s14,29.05,16,31.42a33.45,33.45,0,0,0-4.75,10.91c-.64,2.9-2.75,10.34-1.58,12.5s4.55,2.24,9.33,2.67a358.79,358.79,0,0,0,53.77.21c2.83-.2,5.24-3.16,4.34-5.7l-6.78-19.1a4.85,4.85,0,0,0-.53-1.07,12.79,12.79,0,0,0,1-.8A35.48,35.48,0,0,0,606,361.08a61.77,61.77,0,0,0,.86-19c7.34-1.52,13.82-3.46,18.19-9.47C630.24,325.4,630.05,315.71,629.76,307.22Z" style="fill:#f0b441"/><path d="M426.48,560.65c6.8-4.57,13.24-10,17.73-16.9,10.35-16,5-35.87-4.24-50.43-4.54-7.14-11.81-17.29-19-22-8.08-5.31-23-8.06-32.3-6.72-20.46,3-39.1,16.53-48.7,25.17s-19.18,29.15-20.1,32.13a33.58,33.58,0,0,0-11.78,1.75c-2.8,1-10.22,3.13-11.44,5.27s.5,5.05,2.67,9.33A357.61,357.61,0,0,0,327.6,584c1.66,2.3,5.45,2.78,7.13.67q6.31-7.92,12.62-15.86a5,5,0,0,0,.63-1,9.81,9.81,0,0,0,1.22.44c5.5,1.64,12.75,3.22,17.92,1.3a61.82,61.82,0,0,0,16.61-9.35c5.18,5.42,11.32,9.37,18.73,9.9C411.32,570.67,419.43,565.39,426.48,560.65Z" style="fill:#f0b441"/></g><g id="object-lines"><path d="M540.37,316.47a66.6,66.6,0,0,1,35.42-13.19,32,32,0,0,1,13.2,1.41c4.18,1.55,8,4.63,9.53,8.8,2.5,6.67-1,14-5,19.95a128.77,128.77,0,0,1-16.26,20" style="fill:none;stroke:#dc8c2d;stroke-linecap:round;stroke-linejoin:round;stroke-width:6px"/><path d="M603.81,344.28l-18-.53" style="fill:none;stroke:#dc8c2d;stroke-linecap:round;stroke-linejoin:round;stroke-width:6px"/><path d="M543,379.74c18.33,4.12,33.07,4.3,51.5.65" style="fill:none;stroke:#dc8c2d;stroke-linecap:round;stroke-linejoin:round;stroke-width:6px"/><path d="M549.23,300.39a12.61,12.61,0,0,0,.1,7.52" style="fill:none;stroke:#dc8c2d;stroke-linecap:round;stroke-linejoin:round;stroke-width:6px"/><path d="M319.32,524c6.21,17.73,13.85,30.34,26.7,44" style="fill:none;stroke:#dc8c2d;stroke-linecap:round;stroke-linejoin:round;stroke-width:6px"/><path d="M407.66,549.54a87.22,87.22,0,0,1-19.3,8.82" style="fill:none;stroke:#dc8c2d;stroke-linecap:round;stroke-linejoin:round;stroke-width:6px"/></g></g></g></svg>