<svg xmlns="http://www.w3.org/2000/svg" viewBox="0 0 800 1000"><title>jake-power-plug</title><g id="jake"><g id="power-plug"><g id="body"><path d="M589.74,496.14a5.69,5.69,0,0,0-1.5-5.67c-2.44-2.23-11.23-5.87-16.84-8.34l1.33-.2c8.23-1.33,4.74-13.86-3.46-12.53a127.11,127.11,0,0,1-17.4,1.56c-8.34-6.14-14.34-14-20.3-22.51-4.59-6.54-9.06-13.15-13-20.08-9.32-27.35-21.18-54.07-41.66-74.94A106.69,106.69,0,0,0,434,326.56c-17.4-5.73-40.42-10-54.82-11.55h0c-5.15-.76-10.48-1.31-16.27-1.64-4.89-.27-11.93-.72-19.06-.79h0c-13.38-3.54-34.68-3.28-47.32,1.81-16.3,6.55-26.82,19.51-30.53,36.28-6.92,31.28-9.39,62.56-6.48,94.15-.17,7.23-.09,14.56.43,21.49,2.1,27.93,11,49.85,16.95,67,6.18,17.92,21.17,57,26.16,74.6,4.54,16,3.55,52.67.52,76.53-2.47,19.34-15,97-17.36,116.69-2.2,18.56-9.61,81.87-10.08,90.09s1.71,15,8.16,15H389.35c8.45,0,4.16-9.88,1.17-12.72-5.59-5.3-11.39-12.63-17-17.89,2.23-14.2,3.7-28.55,6.08-42.71,3.79-22.56,22.73-135.6,25.58-158,2.59-20.34,5.43-59.38-7.69-97.94-5.77-17-12.34-33.69-19.24-50.25,10.42-2,20.75-4.47,30.92-7.5.77-.22,1.52-.48,2.29-.71,5.33,12,10.75,24,15.21,33.41a517.94,517.94,0,0,1,21.58,52c7.77,22.49,9.08,33,8.24,53.49-.36,8.85-3.83,29.31-5.13,38.08-3.31,22.37-13.21,69.85-17.3,92.1-4.19,22.77-16.81,98.82-17.24,106.61s1.36,12,6.8,12H524.46c5,0,6-6,2.52-10.48s-11.13-15.3-19.68-22.51c.64-3.72,19.09-81.66,26.94-117.24,4.42-20,8.88-39.75,13.1-59.83,4-18.81,6.92-40.88,5.95-58.35s-6.43-33.86-9.47-42.21c-10.85-29.88-24.19-62.61-36.8-93,33.75,19.57,49.58,23.64,54.48,24.83s11.44,2.64,18,.24c4.68-1.72,5.83-7.86,1.39-10.66-.79-.5-1.59-.94-2.39-1.36l4.73-.29c4.17-.25,7.59-4.84,5-8.78a16.29,16.29,0,0,0-4.49-4.63c.42-.18.84-.36,1.24-.56A8.25,8.25,0,0,0,589.74,496.14Z" style="fill:#1e78f0"/><path d="M343,274.4a69.82,69.82,0,0,0,14.22,3.7,26.59,26.59,0,0,0,3.7,12.37A18.93,18.93,0,0,0,377.11,299c15.05-.12,23.68-13.5,27-26.71l10.25.66a2.35,2.35,0,0,0,2.74-2.53,102.64,102.64,0,0,0-11.3-34.49,22.42,22.42,0,0,0-6.92-10.32c-7.54-6.28-21.73-6.25-27.41-2.75s-9.43,12.21-11,19.34c-.25,1.11-.48,2.22-.7,3.33-5.64-.72-11.33-.69-16.64,1.75-5.65,2.59-9.8,7.79-9.95,14.13C333,267.93,337.14,272.16,343,274.4Z" style="fill:#1e78f0"/></g><g id="body-lines"><path d="M449.72,380.6A143,143,0,0,1,456,407.45" style="fill:none;stroke:#3741f0;stroke-linecap:round;stroke-linejoin:round;stroke-width:6px"/><line x1="610.26" y1="907.76" x2="230.95" y2="907.76" style="fill:none;stroke:#3741f0;stroke-linecap:round;stroke-linejoin:round;stroke-width:6px"/><path d="M335.12,378.8c-2,9.95.54,37.79,6.34,66.54,23.94.13,55.53-1.53,91.75-11.32" style="fill:none;stroke:#3741f0;stroke-linecap:round;stroke-linejoin:round;stroke-width:6px"/><path d="M261.66,444.93c4.23,21.8,9.54,42.29,18.38,62.66,3.4,7.82,10.93,17.46,17.74,22.59,8.63,6.51,20.47,7.48,31.25,6.73,12.62-.88,33.48-2.87,47.53-5.68" style="fill:none;stroke:#3741f0;stroke-linecap:round;stroke-linejoin:round;stroke-width:6px"/></g><path id="object" d="M573,405.44c-2.42-10.53-12.8-44.77-21.16-45s-51.26.25-72.42,11.22c-10.26,5.31-17.34,14.08-23.75,23.43-6.57,9.59-12.52,19.58-16.45,30.57q-1.44,4-2.49,8.16l.2-.06a21.29,21.29,0,0,0,6.57-4.94A59.7,59.7,0,0,1,460,417.17c2.5-1.21,6.46.63,7.13,3.35,1.34,5.47-1.72,7.74-4.92,11.67-.22.27-.43.55-.63.82q17.55-2.49,35.27-3.57c6.21-.37,8.47,8.8,2.36,10.8l-25.91,8.47c.07.71.14,1.41.2,2.12l19.16-3.76c6.19-1.22,17.15-3.15,16.91,6.81-.21,8.4-11,9.93-17.15,12-5.9,2-11.77,4-17.63,6a5.4,5.4,0,0,1-4.51,2.81l.14.19q7-2.14,14.2-3.74c5-1.1,11.73-3.79,16.16-.18a5.41,5.41,0,0,1,1.84,5.23c-1.79,5.78-8.34,7.32-13.35,9.75l-2.46,1.2a151.52,151.52,0,0,1-37.56,16.81c-2.36,1.14-4.78,2.17-7.11,3.14a125.43,125.43,0,0,0,7.19,16.22,28.24,28.24,0,0,0,9.23,10.53c7.63,8.66,18.32,15.24,28.31,19.69A108.36,108.36,0,0,0,551.48,561a5.63,5.63,0,0,0,2.29-1,4.44,4.44,0,0,0,2.57-.89c23.47-17.91,22.34-58.57,24.44-82C583,453.05,578.17,428.14,573,405.44Z" style="fill:#f0b441"/><g id="object2"><path d="M616.44,454l-69.6,3.18a6,6,0,0,0,.27,12h.27L617,466a6,6,0,0,0-.54-12Z" style="fill:#dc8c2d"/><path d="M635.4,434.93,567.26,438a6,6,0,0,0,.27,12h.27l68.14-3.07a6,6,0,0,0-.54-12Z" style="fill:#dc8c2d"/></g><g id="object-lines"><path d="M273.62,526c-8.21,92.72-27,372.16-164.29,372.16" style="fill:none;stroke:#dc8c2d;stroke-linecap:round;stroke-linejoin:round;stroke-width:6px"/><path d="M547.68,365.84c-6.91,12.86-12.3,35.26-13.43,51.42-3.22,46,1.64,93.18,14,135.82" style="fill:none;stroke:#dc8c2d;stroke-linecap:round;stroke-linejoin:round;stroke-width:6px"/><path d="M384.49,439.46a114.3,114.3,0,0,1-7.67-31.1c-2.08-18.93-2.79-38-5.86-56.78-3.34-20.49-7-35.73-26.83-42a32.06,32.06,0,0,0-15.22-.81" style="fill:none;stroke:#dc8c2d;stroke-linecap:round;stroke-linejoin:round;stroke-width:6px"/></g></g></g></svg>