<svg xmlns="http://www.w3.org/2000/svg" viewBox="0 0 800 1000"><title>jake-bird</title><g id="jake"><g id="bird"><g id="body"><path d="M644.46,437.33c-9.65-12.12-30.88-35.47-59.85-52.09-14.42-8.28-39.75-15.74-59.32-20.5-15.51-3.78-44.76-8.29-70.61-9.77s-59.89-1.8-85.38-1.8-66.68-4.71-84.58-11.2a160.39,160.39,0,0,1-54.29-32.81c-6.14-5.7-11.23-13.52-12.49-22.61s4.67-19.79,9.1-25.81c10.7-14.59,23-32.54,36.13-47,4.28-3.24,8.31-6.34,11.57-9.09,6.81,1.57,11.86,4.62,18.27,7.4,6.19,2.68,14.3,5.93,21.15,4a6.48,6.48,0,0,0,5-6.65c-.24-3.59-3.07-6.53-5.38-9a70.61,70.61,0,0,0-18.18-13.91c9.84-9.17,16.69-17.11,27-25.8,5.93-5,14.07-11.76,20-16.76,4.08-3.45,7.27-9.68,3.22-14.47-4.44-5.25-12.82-.76-17.89,1.15a176.93,176.93,0,0,0-19.82,8.91c-2.88,1.52-5.71,3.13-8.5,4.8-3.23-6.72-12-8.33-18.61-10.76a3.47,3.47,0,0,0-.48-.13A13.61,13.61,0,0,0,279,132c-7.1-5.73-17.93-3.88-25.73-.76-8.56,3.41-17.31,12.64-24.8,20.12-13.52,12.28-27.44,26.95-40.59,39.34-13.37,12.57-25.24,32.37-34.56,48.13-14.46,24.46-16.82,49.18-6.1,86.24s47.39,68.49,107.17,90.79c19.9,7.43,29.9,7.6,38.4,10.3,0,0-.39,45-.73,69-.44,30.93.24,62.07-.41,93-.34,16.34-1.38,32.66-1.68,49-.29,15.82-.31,31.64-.49,47.46-.38,32.42-2.78,194.58-2.9,194.65-6.81,3.56-24.05,13.94-24.05,19.46s2.73,8.19,11.89,8.19,79,.14,89.27.14,13.74-8.73,13.74-18.63S381,509.16,381,509.16l53.5-1.57s.59,90.62,2.48,136.34c2.25,54.21,1,108.48.93,162.72,0,15-.14,81.09-.14,88.33S440,907.1,448,907.1h90.87c9.16,0,10.59-9.79,6.11-13.67s-16.09-11.66-16.09-11.66-.69-56.33-.41-70.2c.64-31.46.8-62.94.69-94.41q-.1-31.71-.54-63.43h0c0-14.25.72-32.11.76-46.39,0-3.46,0-7.92-.07-11.38a11.82,11.82,0,0,0,3.77,2.82c13.41,4.94,32.38-1.06,49.2-10.81s37.53-33.11,49.43-45.18c11.42-11.6,26.91-35.1,27.7-55S654.1,449.45,644.46,437.33ZM548.32,542.1h0c-4.3-12.09-12.27-22.56-22-31.16-.38-18-.91-37.17-1.29-55.81.07-2.14.13-4.41.19-6.89,16.35,2,32.39,6.88,46.51,16.5s23.91,17.93,24.2,25.61S564.44,536.92,548.32,542.1Z" style="fill:#1e78f0"/><path d="M385.27,270.84q3.21,2.43,6.44,4.84c-3.24,9.35-3.76,19.68-.73,28.15,2.17,6.07,9.48,12.38,16.33,13.12,7.19.79,13.92-4.4,17.72-10a83.23,83.23,0,0,0,6.05-10.76c7.34,2.76,16.16,5.21,18.6-2.11,1.87-5.61-3-9.14-7.76-10.61a53.55,53.55,0,0,0-5.85-1.41c3.79-14.35-1-26.21-10.83-30.48-4.66-2-10.26-1-15.12,1.38a79.57,79.57,0,0,0-25.19,15A1.81,1.81,0,0,0,385.27,270.84Z" style="fill:#1e78f0"/></g><g id="body-lines"><line x1="226.47" y1="907.1" x2="590.49" y2="907.1" style="fill:none;stroke:#3741f0;stroke-linecap:round;stroke-linejoin:round;stroke-width:6px"/><path d="M229.47,185.73l3.4,4.74" style="fill:none;stroke:#3741f0;stroke-linecap:round;stroke-linejoin:round;stroke-width:6px"/><path d="M282.56,135.41a14.23,14.23,0,0,1,2.28,4.47c.93,3.47-.16,7.14-1.41,10.51a36.53,36.53,0,0,1-5.13,9.9,22.25,22.25,0,0,1-9.29,6.94c-3.31,1.31-7.44,1.66-10.13-.68-3-2.59-2.83-7.44-1-11s4.88-6.19,7.38-9.26" style="fill:none;stroke:#3741f0;stroke-linecap:round;stroke-linejoin:round;stroke-width:6px"/><path d="M300.25,145.45a24.94,24.94,0,0,1-24.48,32.06,11.5,11.5,0,0,1-5.43-1.25c-2.9-1.66-4.21-4.48-3.17-7.65" style="fill:none;stroke:#3741f0;stroke-linecap:round;stroke-linejoin:round;stroke-width:6px"/><path d="M523.85,508.44c-1.91-3-19.41-17.87-25.14-11.92-6,6.23,18.06,21.24,22,26.13C513,516.15,497.12,502.73,493,509s6.65,12.83,12.15,17.69c6.9,6.1,11.41,12.23,17.66,18.43-3.44-4-15.82-18.48-21.89-14.93-8.43,4.93,7.08,15.75,10.11,19.36,9.33,11.12,14.81,23.58,19,42" style="fill:none;stroke:#3741f0;stroke-linecap:round;stroke-linejoin:round;stroke-width:6px"/></g><path id="object" d="M379.63,67.85l-17.26-1.13c3.13-4.2,6.18-8.45,8.92-12.93.89-1.46-1-3.41-2.53-2.69q-7.71,3.76-15,8.23a13.93,13.93,0,0,0-1.94-1.23,13.6,13.6,0,0,0-16.4,3.24A22,22,0,0,0,331.33,70a31.49,31.49,0,0,0-1.46,7.75c-5.59-.65-11.2-1.17-16.81-1.52-2.07-.12-5-.86-6.13,1.52-.95,2.08-.68,5.27-.5,7.49.07.92.2,1.83.36,2.73q-4.76-1.35-9.44-3a2,2,0,0,0-2.81,2c.15,3.6,1.6,7.06,2.93,10.36a45.52,45.52,0,0,0,5.1,9.69,28.85,28.85,0,0,0,17,11.09A33.79,33.79,0,0,0,340.16,116c6.63-2.81,13-7.34,15.63-14.3S359.28,87,359.2,79.42A123.87,123.87,0,0,0,380,71.67C381.62,70.9,381.78,68,379.63,67.85Z" style="fill:#f0b441"/><g id="object-lines"><path d="M323.71,117l.53,16.24" style="fill:none;stroke:#dc8c2d;stroke-linecap:round;stroke-linejoin:round;stroke-width:6px"/><path d="M334,114.73a118.7,118.7,0,0,0,.94,18.56" style="fill:none;stroke:#dc8c2d;stroke-linecap:round;stroke-linejoin:round;stroke-width:6px"/><path d="M307.34,89.24a27.08,27.08,0,0,0,2.33,6.82c1.34,2.51,2.68,5.41,4.68,7.43s4.56,3.13,7.11,4.23" style="fill:none;stroke:#dc8c2d;stroke-linecap:round;stroke-linejoin:round;stroke-width:6px"/><path d="M344.8,67.24l-.48,3" style="fill:none;stroke:#dc8c2d;stroke-linecap:round;stroke-linejoin:round;stroke-width:6px"/><path d="M402.31,33.06a71.84,71.84,0,0,1,9.11-5.3" style="fill:none;stroke:#dc8c2d;stroke-linecap:round;stroke-linejoin:round;stroke-width:6px"/><line x1="416.51" y1="55.24" x2="427.86" y2="55.77" style="fill:none;stroke:#dc8c2d;stroke-linecap:round;stroke-linejoin:round;stroke-width:6px"/><path d="M406.05,80.9,417.61,86" style="fill:none;stroke:#dc8c2d;stroke-linecap:round;stroke-linejoin:round;stroke-width:6px"/></g></g></g></svg>