<svg xmlns="http://www.w3.org/2000/svg" viewBox="0 0 800 1000"><title>jake-laptop</title><g id="jake"><g id="laptop"><g id="body"><path d="M661.25,894.73c0-.73-1.11-38.09-1.49-47.5s-1.43-45.1-1.68-51.19c-.71-17.27-5.84-87-6.58-104.82-.77-18.64-1.92-37.27-2.73-55.91-.93-21.26-1.57-42.52-1.6-63.8,0-6.4-10-6.42-9.95,0v.92a5,5,0,0,0-.85,2.47c-1.46,19-6.5,37.43-8.93,56.25-6.35,10.6-5.75,25.33-6.24,37.07-.22,5.17-.7,10.32-1.18,15.47-1.74,18.91-3.71,37.81-5.58,56.71-4.5,45.44-9.55,91.06-11.05,136.73-.24,7.31-.08,18.86-.08,26.77s1,11.66,9.94,11.66,54.27.65,59.34.65,6.42-5.86,4.18-9.1C673,901.63,666.3,898.59,661.25,894.73Z" style="fill:#1e78f0"/><path d="M718.16,381.82c-8.28-11.45-20.77-19.9-32.84-26.89C671.24,346.78,656,340.46,641.05,334c-31.27-13.49-65.55-26.46-100.19-24.94-19.16.84-36.56,7.09-52.45,17.71-7.34,4.9-14.29,10.31-21.13,15.88-23.25,14.5-43,34.9-60.66,55.51A560.73,560.73,0,0,0,304.21,574.29q-9.24,25.32-16.42,51.33c-3.68,13.26-20,68.43-23.54,82.78-2.73,11-6.89,18.36-1.66,29,1.38,2.81,6.54,9.33,12.55,7.86,2.13,3.9,7.8,9.64,12.21,8.45-.44,6.32-.76,12.67-1.43,18.94-.77,7.25.47,16.9,7.43,18.53s13.26-7.62,14.89-14.71C311,764.38,312,754,315.67,742.05c15.93,0,27-29.82,14-43.57,6.25-17.33,14-33.68,19.51-50.93,6.7-20.82,14.32-41.36,23-61.42,8.3-19.16,17.73-37.84,26.85-56.62,7.65-15.77,15.7-31.36,25.34-46,2.25,5.76,4.74,11.45,6.36,17.48,1.94,7.25,3,16,6.65,22.92a5.18,5.18,0,0,0,.49,2.63c7.17,15.49,26.4,20.82,42.15,20.88,9.89,0,19.31-3,29-4.6,6.19-1,12.42-1.83,18.64-2.63-.3,5.19.4,10.36,4.51,11.48,6,1.62,8.49-1.28,11-7.63.68-1.76,1.5-4,2.45-6.39l3.36-.57c1.66-.3,3.32-.61,5-1-.25,1-.51,2.09-.76,3.18-1.77,7.66-2.48,14.43,4.25,15s11.25-6.73,14.5-15.73,6.08-13.67,9.5-16.75c1.34.2,1.77.08,3.12.25-2.8,5.7-6.15,13.56-6.4,19.68s5.93,7.72,9.53,5.7c5.27-3,7.7-9,10.42-14.88s5.5-10.65,9.7-13c6.29-3.51,10.92-2.57,17.49-2.53a14.49,14.49,0,0,0,6.66-1.43l.05,0c5.09-1.48,19.95-14.37,25.48-20,5.83-5.95,29.92-32.78,36.42-40.09,4.89-5.49,11.52-12.33,17.36-19.77a92.53,92.53,0,0,0,10.17-13.61C729.61,408.38,727.3,394.45,718.16,381.82Zm-108.75,19.9c9.19,2.9,18.4,5.82,27.08,10-11,13.22-23.16,25.44-33.21,39.52-1.18,1.66-2.39,3.28-3.61,4.91C593,435,585.72,413.94,575,394.59a123.91,123.91,0,0,1,14.4,1.78A159.53,159.53,0,0,1,609.41,401.72Z" style="fill:#1e78f0"/><path d="M392,351.81l3.41-2.63a40.57,40.57,0,0,0,23,7.78,4.61,4.61,0,0,0,2.54-.63c5.22-1.21,8.88-5.9,9.95-11.07,1.53-7.43-1.81-14.18-6.4-19.95,4.7-5.94,10.56-13.5,7.23-19.93-2.59-5-9.31-5-13.75-2.75-3.64,1.84-6.13,4.93-8.57,8.08-5.59-4.33-12.09-8-18.68-7.74-8.15.27-10.89,7-11.15,14.06h0c-1,12.14,2.7,24.14,9,34.45A2.28,2.28,0,0,0,392,351.81Z" style="fill:#1e78f0"/></g><path id="object" d="M654,527.44c-3.47-6.59-13.39-9.49-26.28-10.57a16.42,16.42,0,0,1-2.5.16c-6.57,0-11.2-1-17.49,2.53-4.2,2.35-7,7.09-9.7,13s-5.15,11.93-10.42,14.88c-3.6,2-9.78.43-9.53-5.7s3.6-14,6.4-19.68c-1.35-.17-1.78,0-3.12-.25-3.42,3.08-6.25,7.75-9.5,16.75s-7.77,16.27-14.5,15.73-6-7.31-4.25-15a187.06,187.06,0,0,1,5.75-19.76,20.66,20.66,0,0,1-2.63-.37c-6.5,6.12-10.66,18.51-13.13,24.87s-5,9.25-11,7.63-4.74-11.89-3.68-18.25c.68-4.05,3-10.25,5.7-16.19-28.79.38-56.7.75-67.55.75-9,0-33.75-.29-61.58-.64q-3.07,6-6,12.15c-9.12,18.78-18.55,37.46-26.85,56.62-8.7,20.06-16.32,40.6-23,61.42-5.55,17.25-13.26,33.6-19.51,50.93,13,13.75,2,43.53-14,43.57C312,754,311,764.38,308.24,776.47c-1.63,7.09-7.93,16.35-14.89,14.71s-8.2-11.28-7.43-18.53c.67-6.27,1-12.62,1.43-18.94-4.41,1.19-10.08-4.55-12.21-8.45-6,1.47-11.17-5-12.55-7.86-5.23-10.64-1.07-18,1.66-29,3.58-14.35,19.86-69.52,23.54-82.78q7.21-26,16.42-51.33a605,605,0,0,1,24.57-57.92c-14.64-.18-25.56-.31-29.28-.31-14.82,0-27.42,10.39-31.19,24s-7.62,34.47-12.66,54.38c-5.82,23-10,46.36-13.89,69.75-4,23.85-7.65,47.76-11.89,71.56-2.08,11.66-10.75,59.29-13.44,71.49-4.05,18.35-8.91,42.4-12.41,57.9-26.36.12-80.73,2.75-90.77,2.75-10.66,0-20.21,1.18-24.5,5.47s-4,12.16-4,18.66.44,18.8,3.84,22.21,28.18,1.29,41.33,1.29l79.64-.1c4,1.45,9.24.81,16.69.81,12.67,0,371.84-.37,378-.37s12.18.09,15-2.67,4.3-19.44,5.35-27.88c1.49-12,3.61-23.94,5-36,1.46-12.88,7.69-62.24,9.17-74.32,3.13-25.66,4.29-51.36,6.24-77.11,2-26,7.75-88.56,9.92-114.58C657.29,554,658.76,536.45,654,527.44Z" style="fill:#f0b441"/><g id="object-lines"><path d="M205.68,864.78c52.38,0,104.51,2.39,157,1.55,33-.53,66.08.15,99.11.15,32.13,0,147.35-.85,147.35-.85" style="fill:none;stroke:#dc8c2d;stroke-linecap:round;stroke-linejoin:round;stroke-width:6px"/><path d="M417.58,639.32c-12.48,12-28.48,20.67-41.53,32.21" style="fill:none;stroke:#dc8c2d;stroke-linecap:round;stroke-linejoin:round;stroke-width:6px"/><path d="M519.29,608a1625,1625,0,0,0-139,113.58" style="fill:none;stroke:#dc8c2d;stroke-linecap:round;stroke-linejoin:round;stroke-width:6px"/><path d="M499.8,685.94c-24.5,16.35-45.05,38.39-68.66,55.94" style="fill:none;stroke:#dc8c2d;stroke-linecap:round;stroke-linejoin:round;stroke-width:6px"/><path d="M417.19,874.26c0,10.52.24,21.11-.85,31.36" style="fill:none;stroke:#dc8c2d;stroke-linecap:round;stroke-linejoin:round;stroke-width:6px"/><path d="M532,889h10.17" style="fill:none;stroke:#dc8c2d;stroke-linecap:round;stroke-linejoin:round;stroke-width:6px"/><path d="M558,889h8.47" style="fill:none;stroke:#dc8c2d;stroke-linecap:round;stroke-linejoin:round;stroke-width:6px"/><path d="M582.86,889.35c3,.28,10.39,0,10.39,0" style="fill:none;stroke:#dc8c2d;stroke-linecap:round;stroke-linejoin:round;stroke-width:6px"/><path d="M311.5,541c-5.19,1-9.76,2.94-13.25,6.42-10.4,10.41-14.14,25.81-18.59,41.46s-15.79,75.33-19.81,93c-4.69,20.59-10.45,62.21-10.45,62.21s-9.32,45.48-11.7,60.64,0,26.12,14.32,25.87,36.76-.53,63.44-.53c36.53,0,76.34,1,112.92,1,58,0,100.82,2.5,158.72,2.5,16.16,0,22.67-8.9,24.43-22.69,3.08-24.11,5.16-40.43,8.65-65.81s12-103.92,14.57-133.5,4.5-47.12-3-61c-4-7.42-14.69-10.15-28.49-11" style="fill:none;stroke:#dc8c2d;stroke-linecap:round;stroke-linejoin:round;stroke-width:6px"/><path d="M517,540.12c-23.91-.37-47.79-1-71.75-.06-13.76.54-29.84.72-45.25.74" style="fill:none;stroke:#dc8c2d;stroke-linecap:round;stroke-linejoin:round;stroke-width:6px"/><path d="M455.83,527.73h6.67" style="fill:none;stroke:#dc8c2d;stroke-linecap:round;stroke-linejoin:round;stroke-width:6px"/></g><g id="body-lines"><line x1="73.55" y1="916.27" x2="705.25" y2="916.27" style="fill:none;stroke:#3741f0;stroke-linecap:round;stroke-linejoin:round;stroke-width:6px"/><path d="M321.5,721.84a43.25,43.25,0,0,0-3.92,16.89" style="fill:none;stroke:#3741f0;stroke-linecap:round;stroke-linejoin:round;stroke-width:6px"/><path d="M288.42,737.4a103.74,103.74,0,0,0-1.83,14" style="fill:none;stroke:#3741f0;stroke-linecap:round;stroke-linejoin:round;stroke-width:6px"/><path d="M270.26,728.9a21.81,21.81,0,0,0,0,9,8.74,8.74,0,0,0,2.58,5" style="fill:none;stroke:#3741f0;stroke-linecap:round;stroke-linejoin:round;stroke-width:6px"/><path d="M511.8,515.62c.85-12.32,15.09-12.71,24-12.71" style="fill:none;stroke:#3741f0;stroke-linecap:round;stroke-linejoin:round;stroke-width:6px"/><path d="M532.15,516.06c5-10.7,11-24.91,25.59-30.83,10.39-4.22,37-8.06,47.07-2.09" style="fill:none;stroke:#3741f0;stroke-linecap:round;stroke-linejoin:round;stroke-width:6px"/><line x1="598.05" y1="454.62" x2="572.61" y2="480.14" style="fill:none;stroke:#3741f0;stroke-linecap:round;stroke-linejoin:round;stroke-width:6px"/></g></g></g></svg>