<svg xmlns="http://www.w3.org/2000/svg" viewBox="0 0 800 1000"><title>jake-genie</title><g id="jake"><g id="genie"><g id="body"><path d="M368.49,216c.37,5.52,2.84,13.21,9.29,15.08,5.23,1.51,13.22.07,17.05-3.21,10.06-8.6,10.92-25.12,10.17-37.66-.39-6.42-3.07-13.85-8.09-18.31a15.81,15.81,0,0,0-14.85-3.36c-8.1,2.64-12.32,11.81-13.7,20.08-8.83.47-21.29,3.58-20.6,14.59C348.39,213.32,359.57,215.92,368.49,216Z" style="fill:#1e78f0"/><path d="M624.08,296.32c-6.5-27.15-16.14-46.21-39.12-80.68-7.17-10.76-22.28-29.78-28.71-38.79s-12.08-15.28-17.42-23.28c-4.06-6.08-6.12-12-8.55-18.9-2.24-6.38-3.52-13-5.6-19.43-1.39-4.28-4-8.52-8.92-9.09s-8.12,3.25-9.34,7.51c-1.62,5.67,0,11.68.69,18.18s4,18.27,4,18.27l-1.78.66c-1.91-2.65-9.48-13.38-13.1-22.17-2.94-7.09-7.57-19.35-15.5-19.66S470.42,114,470.9,121.1c.64,9.31,5.07,18.48,8.67,25.17s10.33,17.5,10.33,17.5l-1,1.27c-15.83-15.27-21.09-23.4-27.9-25.73-6.4-2.18-10.05,1.79-11.43,7.46S454,160.29,458.9,166c5.22,6.07,16.86,18.83,24.84,29.63l.06.34c-2.93,4.31-6.21,8.37-8.86,12.89-3.19,5.42-8.09,13.76-3.76,19.59s15.7-5.93,25.64-13.2c10.32,13.2,20.6,26.47,29.92,40.36,6.12,9.12,14.25,27,19.22,37.26,6,12.41,13.86,30.76,2.12,36.74s-33.64-22.94-43.67-38-23.06-30-37.33-37-29.6-12.48-47.07-12.71c-19.19-.26-41.63,1.11-57.35,2.21S323.2,247.39,305,251a164.93,164.93,0,0,0-64.8,27.74c-15.74,11.31-29.35,25.46-38.89,42.41-9.73,17.31-14.86,36.67-16.85,56.35-2.23,22.17,2.43,52.1,3.83,63.65s3.84,35.85.4,50.7c0,0,0,.06,0,.1-4.59,14.86-8.59,26.89-15.58,41.05-2.66,5.42,5.14,9.63,8.06,7.2,5.49-4.55,9.22-10.38,14.3-18.74l2.57,1.14s-4,8.76-5.87,11.95c-3.6,6.13-8,16.49-7.53,20s5.46,5.61,9.72,3.93,13.8-17.29,20.56-28.81l2.67.81s-2,6.39-3.88,12.14S208.54,555,209,559s6.69,6.69,9.42,4c7.14-7,13.09-23.22,15.07-28.34s5.29-14.24,5.29-14.24a45.68,45.68,0,0,1,9.84,11.67c4.62,7.65,10.82,1.73,10.16-4.56-.6-5.78-6.68-15.75-13.4-29.45A100.66,100.66,0,0,0,248.66,478c1.07-16.64.19-27.84-.16-44.5-.33-15.52-.2-31.79,3.67-46.83,4.35-16.94,11.44-33.92,23.89-46.52,6.28-6.36,13.52-11.32,20.66-16.61,2.2-1.63,4.37-3.41,6.56-5.18-3.65,12.17-5.59,24.93-6.84,37.42A271.5,271.5,0,0,0,298,422.06c1.83,12.57,4.55,25.21,9.36,37,4.59,11.24,10.71,21.71,16.75,32.21,11.05,19.24,21.76,42.76,9.92,65-8.08,15.19-24.35,20.12-39,25a76.28,76.28,0,0,0-41.34,33C244.19,630.09,240,649,241.22,667.3c1.11,17.36,12.45,33.92,15.22,43.59s-1.62,26.14-7.74,38.19-8,25.92-4,39.21a60.56,60.56,0,0,0,21.15,31.18c4.22,3.18,10.77,1.67,7-4.57s-8.55-19.44-6.64-28.71a49.1,49.1,0,0,1,22.19-31.09c14.52-8.93,22.71-22.88,23.48-34.57s-6.69-25.72-7.35-34.68c-.69-9.25-1.88-36.39,14-32.33,11.94,3.05,19.16,15.52,26.59,24.32a63.48,63.48,0,0,0,33.39,20.67c45.25,11.59,101.18-5.31,121.24-50.24,10.79-24.16,10-51.31,2-76.16-8.16-25.56-19.33-48.62-28.78-73.66C454.29,449,457.23,394.31,460.38,342.16c4.7,13.49,23.16,36,35,46.34,12.39,10.8,30.95,20.08,47.21,19.75,17-.35,37.23-4.9,51.45-14.43,14-9.41,21.66-24.65,28.25-40.19C629.51,336.7,628.28,313.88,624.08,296.32Z" style="fill:#1e78f0"/></g><path id="object" d="M488.4,836.18a6.06,6.06,0,0,0-.48-2,5.5,5.5,0,0,0-5.3-5.92q-27-1.45-54.1-2.31c4.67-5.36,10.55-11.78,11.12-19.25S434.56,795,427.53,795s-14.7,3.09-16.57,10.47c-1.67,6.59,1.77,14.49,5.4,20.11-50.15-1.45-100.34-1.71-150.52-1.94-6.12,0-8.52,9.84-1.93,11.16,25.56,5.12,48.06,9.34,70.35,22.9,10.27,6.25,19.52,13.88,29.55,20.47,9.83,6.45,26.33,16.17,37.88,18.25,2.74.5,5.47.94,8.17,1.32a16.46,16.46,0,0,1-9.6,6.19c-6.48,1.61-13.22,2.43-19.8,3.57s-6,11.23,1.52,11.23h78.4c7.78,0,6.55-8.65-.28-10.31-11.39-2.77-26,.27-32.85-9.47,12.83-.18,25.13-3.21,36.8-11.66C480.15,875.65,489.7,856.06,488.4,836.18Z" style="fill:#f0b441"/><g id="object-lines"><path d="M387.53,828.27c1.26,7.49,3.59,15.32,9.35,20.28A29.89,29.89,0,0,0,407,853.84c10,3.31,21.26,4,30.86-.28s16.54-13.36,16-23.88" style="fill:none;stroke:#dc8c2d;stroke-linecap:round;stroke-linejoin:round;stroke-width:6px"/><path d="M487.92,832.21c26.36,0,46.85,1.24,59.75,4.46s21.68,14.16,19.94,24.66-12.75,19-28.17,14-32.22-11.41-43.15-11.58-16.9,7.12-14.88,13.54" style="fill:none;stroke:#dc8c2d;stroke-linecap:round;stroke-linejoin:round;stroke-width:6px"/></g><g id="body-lines"><line x1="502.67" y1="919.76" x2="335.35" y2="919.76" style="fill:none;stroke:#3741f0;stroke-linecap:round;stroke-linejoin:round;stroke-width:6px"/><path d="M394.52,185.9a75.4,75.4,0,0,1,1.34,23.72,60.24,60.24,0,0,1-10.4-.27" style="fill:none;stroke:#3741f0;stroke-linecap:round;stroke-linejoin:round;stroke-width:6px"/></g></g></g></svg>