<svg xmlns="http://www.w3.org/2000/svg" viewBox="0 0 800 1000"><title>jake-wave</title><g id="jake"><g id="wave"><g id="body"><path d="M332.22,304.54a25.92,25.92,0,0,0,11.72,0c1.61,8.73,5,17,13.11,21.09,7.15,3.61,15.72.87,21.47-4.15,6.46-5.64,8.53-14.23,8.69-22.51.29-14.48-3.1-36.41-16.65-44.68-6.23-3.8-13.46-2.87-19,.6s-9.25,12.88-9.52,22l-1.41.43c-2.29.69-4.59,1.33-6.83,2.19-5,1.94-10.08,4.94-11.79,10.45-.85,2.76.31,6.69,1.8,9.27C325.58,302.4,328.88,303.79,332.22,304.54Z" style="fill:#1e78f0"/><path d="M672.34,333.19c-6.56,1.13-14.6,7.58-20.06,10.69L651,342.56c1.45-2.13,4.91-5.16,6.71-7,5.14-5.26,11.26-10.87,13.15-15.32s-1.42-9.27-8.13-8-25.45,17.41-25.45,17.41l-1.7-1.7c.61-.78,6.23-8,10.31-12.58,3.51-4,6-10,2.82-13.26s-9.7-.35-13.42,2.57c-6.78,5.32-25.54,23.64-36.61,35.85-.56-6.91,0-14.51-.09-18.07,0-3.75-1.68-7.32-6.15-6.62s-6.85,8.54-9.27,19.49-2.46,26.19-5,39.32c-9.12,16.57-16.63,37.62-22.6,54.59-7.4,21.05-12.49,36.31-15.9,59.43-2.79-5.09-9.16-17.84-12.13-22.82-7-11.69-13.33-23.73-20.25-35.47C494,408,478.46,387.13,455.52,373.84,433.36,361,408,355.71,382.82,352.51a556.05,556.05,0,0,0-70.53-4.28c-14,.12-36.71.87-56.41,7.95-15.72,5.65-30.55,15.46-44.27,24.85-27.56,18.86-63.32,50.19-72.75,62.47s-17.28,25.91-16.14,45.78,17,43.1,28.66,54.49c12.11,11.86,35.23,34.82,52.22,44.27S239.66,603.16,253,598a6,6,0,0,0,2.74-1.86c0,3.46,0,6.92.11,10.38.72,34.49,1.48,68.87.91,103.37-.56,34.09.66,68.17.34,102.26-.18,18.9.7,80.91.7,80.91-4.76,4.38-10.89,8.48-16.06,12.37-4.39,3.3-4,10,2.64,10s79.68.23,84.1.23,8-1.27,8.07-5.09c.23-25.6.94-50.09,1.74-75.68.42-13.37-.75-76.9.1-90.75.84-13.47.2-57.81.07-71.25-.28-27.92,4.41-120.53,1.38-148.66a243.11,243.11,0,0,1,52-2c.29,25.44,3.81,106.27,3.92,133.67.21,54.47.36,108.93.9,163.39.29,29.52-.37,80-.37,84.93S397.21,915,404,915s27.3-.36,40.36,0c14.12.42,27.11-.69,41.22,0,4.23.21,8-5.52,4.42-8.84-5.23-4.88-10.63-9.82-17.34-15.15.33-57.88-1.58-118-1.45-175.88.06-29.15-.25-58.29-1.84-87.4s-.9-58.28-1.29-87.42c-.22-16.09-1-32.14-1.83-48.21-.12-2.43-.21-4.86-.31-7.3,18.94,40.51,44.25,76.53,56.93,85.26,16.36,11.25,48.93,8.78,60.75-3.7s21-34.94,24.15-52.69c3.84-21.93,4.8-30.76,10.29-52.44,5.69-22.48,11.5-38.2,19.85-59.82q1.9-4.95,3.94-9.85c5.72-12.52,24.19-39.41,34-49C679.23,339.17,676.7,332.44,672.34,333.19ZM182.19,490.77c.16-7.68,15.69-22.27,29.64-32.14s37.52-26,47.95-32.35c1.14,28.38,1.16,52.88-.26,79.35-.06,1.11-.12,2.21-.19,3.32-10.07,9-18.34,19.95-22.59,32.61C220.53,536.67,182,498.45,182.19,490.77Z" style="fill:#1e78f0"/></g><g id="body-lines"><path d="M260.62,507.48c1.86-3,19.08-18.21,24.92-12.36,6.09,6.12-17.68,21.56-21.49,26.51,7.55-6.63,23.19-20.33,27.43-14.19s-6.42,12.95-11.83,17.9c-6.8,6.23-11.2,12.44-17.34,18.74,3.37-4.09,15.49-18.75,21.62-15.31,8.52,4.78-6.8,15.87-9.76,19.54-9.13,11.28-14.39,23.84-18.29,42.28" style="fill:none;stroke:#3741f0;stroke-linecap:round;stroke-linejoin:round;stroke-width:6px"/><path d="M599.27,299c-10.39-3.35-24-7.35-34.34-8.25-14-1.22-30.46-2.92-45.68-2.11" style="fill:none;stroke:#3741f0;stroke-linecap:round;stroke-linejoin:round;stroke-width:6px"/><path d="M555.51,331.23c-13-4.16-27.34-5.19-40.94-5.75" style="fill:none;stroke:#3741f0;stroke-linecap:round;stroke-linejoin:round;stroke-width:6px"/><line x1="168.76" y1="915.76" x2="569.59" y2="915.76" style="fill:none;stroke:#3741f0;stroke-linecap:round;stroke-linejoin:round;stroke-width:6px"/><path d="M601.85,384.76l9.44,4.62" style="fill:none;stroke:#3741f0;stroke-linecap:round;stroke-linejoin:round;stroke-width:6px"/><path d="M612.31,342.15a13.58,13.58,0,0,1,9.86,20.66" style="fill:none;stroke:#3741f0;stroke-linecap:round;stroke-linejoin:round;stroke-width:6px"/><path d="M370,270.24a89,89,0,0,1,5.26,27.46A71,71,0,0,1,363.11,299" style="fill:none;stroke:#3741f0;stroke-linecap:round;stroke-linejoin:round;stroke-width:6px"/></g></g></g></svg>