
<svg width="626px" height="718px" viewBox="0 0 626 718" version="1.1" xmlns="http://www.w3.org/2000/svg" xmlns:xlink="http://www.w3.org/1999/xlink">
    <g id="Page-1" stroke="none" stroke-width="1" fill="none" fill-rule="evenodd">
        <g id="jake-peace">
            <g id="body" fill="#1E78F0" fill-rule="nonzero">
                <path d="M332.961159,120.873686 C347.17239,119.594549 355.515976,108.940686 360.416985,96.1156574 C372.287941,95.9978422 384.769403,90.4268651 389.246449,81.3046005 C394.028749,71.6774135 388.415482,60.6364438 379.817519,55.4020816 C375.873613,53.0939822 371.551044,51.4930645 367.047762,50.6726418 C366.759467,42.1562841 365.351911,33.4716189 361.061408,26.3353824 C356.071883,17.4903155 346.368746,12.3175359 336.183276,13.0727542 C326.771304,13.5271843 318.783846,21.4881274 313.323207,31.5865753 C307.862567,41.6850232 304.521741,58.7177387 303.317687,71.643752 C301.587919,91.1842487 306.302384,123.263652 332.961159,120.873686 Z" id="Path"></path>
                <path d="M622.7,127.49 C621.22,113.37 619.03,99.59 616.44,85.64 C616.44,85.52 616.39,85.39 616.37,85.27 C616.902774,84.9085148 617.407538,84.507378 617.88,84.07 C625.11,77.36 621.44,65.98 617.21,58.63 C612.98,51.28 605.31,45.41 596.48,47.09 C590.26,48.28 586.15,52.62 584.05,58.01 C583.05,58.01 582.05,58.01 581.18,58.01 C580.23,50.1 579.41,42.19 578.25,34.32 C577.12,26.61 576.06,18.83 574.68,11.16 C573.74,6 570.97,1.97 565.61,0.89 C552.15,-1.81 553.61,14.02 554.23,23.13 C555.07,34.97 556.23,46.18 558.12,59.21 C556.185386,59.5391294 554.269409,59.9697234 552.38,60.5 C550.67,56.5 549.44,52.2 548.04,48.21 C545.6,41.31 542.97,33.97 539.44,27.47 C537.28,23.47 530.88,20.27 525.95,23.17 C522.07,25.45 522.95,30.84 523.28,34.74 C523.932557,40.616103 525.22351,46.403598 527.13,52 C530.47,61.73 531.92,69.26 535.28,79 C538.47,88.2 545.36,115.72 547.33,127.47 C549.3,139.22 551.17,159.79 550.05,176.21 C549.49,184.51 548.64,193.92 546.54,201.97 C544.960903,208.431986 541.904093,214.439491 537.61,219.52 C533.21,224.65 527.2,227.28 521.05,226.18 C514.9,225.08 507.16,209.68 504.64,204.01 C501.15,196.16 498.03,188.32 493.93,180.75 C488.0896,169.724843 480.723758,159.578293 472.05,150.61 C463.83,142.34 453.72,136.45 442.89,132.3 C421,123.84 409.1,122.91 385.8,126 C372.92,127.68 360.3,130.72 347.56,133.16 C334.82,135.6 322.05,137.88 309.45,141.05 C283.02,147.7 276.09,151.8 252.2,164.96 C241.78,170.69 228.05,182.96 219.51,191.34 C211.85,198.83 205.51,207.56 199.51,216.39 C188.18,233 177.24,249.72 163.08,264.13 C150.08,277.34 132.55,291.51 112.81,289.87 C92.26,288.16 78.36,270.73 77.52,250.96 C76.81,234.22 84.9,211.57 90.59,202.74 C90.77,202.46 90.92,202.21 91.1,201.94 C92.3002849,200.236338 93.3988657,198.463249 94.39,196.63 L94.39,196.63 C96.11,193.75 97.58,191.13 98.92,188.63 C107.78,173.44 120.08,153.97 121.92,149.82 C123.64,147.233333 125.333333,144.626667 127,142 C131.65,134.62 136,127.06 140.69,119.7 C144.39,113.89 148.96,108.42 152.4,102.48 C155.01,97.96 156,92.4 151.5,88.59 C147.23,84.97 142.14,87.19 138.28,90.21 C130.11,96.62 114.58,118.3 114.58,118.3 L111.14,115.95 C112.53,112.95 119.62,97.47 121.84,92.2 C124.97,84.78 132.79,67.2 121.32,62.42 C112.58,58.77 106.38,72.58 103.55,78.5 C99.22,87.58 95.82,95.83 90,105.87 C87.07,94.64 83.25,94.76 73.49,94.87 C63.73,94.98 53.4,108.31 51.75,121 C49.04,126 27.54,167.94 16.49,187.36 C5.44,206.78 0.31,237.92 0.207665203,251.85 C0,278.1 14,311.58 24.46,323.3 C34.92,335.02 56.33,356.94 93.19,360.24 C130.05,363.54 166.69,350.92 182.83,337.75 C201.612719,322.482599 218.145876,304.639852 231.94,284.75 C225.45,311.01 215.42,346.54 208.78,372.75 C205.88,384.21 200.42,414.38 196.06,437.36 C192.32,457.03 191.91,478.69 193.31,502.44 C194.69,525.88 196.4,553.91 197.24,567.58 C198.57,588.89 200.16,634.12 200.29,655.48 C200.36,667.21 200.44,692.48 200.44,692.48 C200.44,692.48 188.56,701.2 184.62,704.86 C180.68,708.52 183,713.46 186.85,713.64 C189.92,713.78 262.12,714.58 265.85,713.34 C269.37,712.19 273.51,708.83 273.68,704.85 C273.85,700.87 271.47,602 270.67,582.28 C269.13,544.28 267.38,480.61 267.67,468.09 C267.96,455.57 280.67,409.49 287.88,380.46 C295.46,350.1 313.11,289.18 313.11,289.18 C313.11,289.18 337.96,283.23 340.19,283.18 C344.12,294.31 354.6,354.47 358.77,372.48 C362.87,390.18 365.41,408.19 368.33,426.12 C369.69,434.5 373.14,458.92 373.22,462.72 C372.69,504.5 360.37,630.99 358.85,652.72 C357.63,670.05 354.5,703.35 354.43,709.24 C354.64,711.47 356.28,714.73 359.18,714.73 L444.18,714.26 C447.77,713.88 451.31,708.87 447.61,705.98 C443.91,703.09 439.95,698.76 436.09,695.75 C436.09,695.75 439.27,642.27 440.87,627.63 C444.21,597.17 448.5,555.37 451.87,524.91 C454.87,497.23 458.75,474.2 457.37,452.83 C455.99,431.46 445.46,378.21 442.53,363.33 C439.86,349.83 433.02,305.33 430.53,284.83 C428.04,264.33 426.12,237.21 425.59,218.08 C430.95,235.08 439.45,250.94 449.41,265.66 C462.31,284.74 479.41,299.32 503.98,305.52 C544.79,315.8 586.16,296.18 605.45,259.92 C614.75,242.44 619.68,222.92 622.65,203.47 C624.461622,192.628191 625.487626,181.669668 625.72,170.68 C625.88,156.22 624.21,141.83 622.7,127.49 Z" id="Path"></path>
            </g>
            <g id="body-lines" transform="translate(49.000000, 45.000000)" stroke="#3741F0" stroke-linecap="round" stroke-linejoin="round" stroke-width="6">
                <path d="M498.94,40.27 C516.58,23.66 531.94,20.76 536.63,26.94 C541.32,33.12 533.88,38.35 521.86,43.83 C532.72,38.83 544.66,45.9 544.86,57.98" id="Path"></path>
                <path d="M547.32,20.84 C554.51,28.99 551.43,42.56 565.25,41.47" id="Path"></path>
                <path d="M539.89,81.09 C541.843538,79.0659934 544.508527,77.8823509 547.32,77.79" id="Path"></path>
                <path d="M48.79,104.13 C47.03,95.87 33.51,73.43 22,76.87 C13.57,79.39 18.91,88.12 21.47,93.05 C15.33,90.94 8.27,95.52 7.52,101.66" id="Path"></path>
                <path d="M0.09,123.11 C2.55361925,122.904545 4.97953045,123.814721 6.7,125.59" id="Path"></path>
                <path d="M3.89,78.17 C2.59,86.6 7.89,90.17 15.78,83.5" id="Path"></path>
                <path d="M26.82,64.21 C26.82,64.21 24.37,73.21 22,76.87" id="Path"></path>
                <path d="M73.32,669.76 L475.33,669.76" id="Path"></path>
                <path d="M278.7833,0 C274.06839,12.8815257 271.441619,26.4176929 271,40.1085859 C276.934934,41.2416618 282.9566,41.8744098 289,42" id="Path"></path>
            </g>
        </g>
        <path d="M297.975737,65.8992214 L368.993836,68.8013121 C370.540032,81.5697992 371.002086,90.5887012 370.379996,95.8580183 C369.757907,101.127335 367.442413,107.807736 363.433513,115.899221 L293.786758,100.518104 C291.53314,92.1403465 290.643361,85.9925876 291.117421,82.0748279 C291.59148,78.1570681 293.877586,72.7651993 297.975737,65.8992214 Z" id="Path-2" stroke="#979797" stroke-width="7" fill="#FFFFFF" stroke-linejoin="round" transform="translate(330.820776, 90.899221) rotate(-7.000000) translate(-330.820776, -90.899221) "></path>
        <path d="M366,64 L385,47" id="Line" stroke="#979797" stroke-width="8" stroke-linecap="round" stroke-linejoin="round"></path>
        <path d="M296,69 L302,56" id="Line" stroke="#979797" stroke-width="8" stroke-linecap="round" stroke-linejoin="round"></path>
        <path d="M371,104 L385,104" id="Line" stroke="#979797" stroke-width="8" stroke-linecap="round" stroke-linejoin="round"></path>
    </g>
</svg>