<svg xmlns="http://www.w3.org/2000/svg" viewBox="0 0 800 1000"><title>jake-relax</title><g id="jake"><g id="relax"><g id="body"><path d="M662.07,624.5a3.65,3.65,0,0,0-2.21-3.66,4.28,4.28,0,0,0-.07-.48,4.14,4.14,0,0,0-3.87-3.11c-54-4-107.44,9.56-161.42,7.16-3.62-2.44-7.26-4.83-11-7.13-15.13-9.36-31-17.72-46.81-25.87s-31.73-15.73-48-22.73c-14.58-6.27-30.56-13-46.79-10.86-6.95.94-13.88,4-20.3,6.72-4,1.71-33.76,15.36-44.89,19.66-7.58,2.93-15.16,5.88-22.64,9.06-7.31,3.11-98.79,38.55-114.46,44.48-11.05,4.19-22.31,8.12-33.2,12.83-5.37-3.43-11.67-5.1-17.06-8.76-2.82-1.92-7.32,1.06-6.15,4.47.69,2,3.53,8.84,4.9,13s16.74,42.17,24.76,64.88c.71,2,2.68,3.69,5,3,26.58-8.13,52-19.29,77.36-30.57a36.12,36.12,0,0,1-1.32,3.8c-7.23,15-10.72,33.42-15.2,48.48-5.62,18.91-19.21,68.36-23.22,88.13-4.41,21.78-8.37,35.86-13.51,57.48-6,3.62-11.63,8.16-15.52,11-2.62,1.9-3.15,8.86.72,8.9,28.21.29,59.54-1.29,87.37-1,3.83,0,5.75-2.59,6.59-7.77s7.16-19.56,12-52.79,17.93-80.47,30.09-118.61c8.87-.14,55.22-1.94,74.48-2.43s38.72,0,57.31,4.95a4,4,0,0,0,2.42-.07c5.14,3.9,15.25,2.66,20.91,2.59,10.51-.12,20.72-.14,31.22.61,32.22,2.32,64.38,7.05,96.67,8A348.71,348.71,0,0,0,594,745.87c11.63-1.27,23.5-1.75,35-4,10.75-2.08,20.45-6.23,27.36-15,6.38-8.07,9.28-18.1,10.37-28.2C669.42,673.78,661.12,649.35,662.07,624.5Z" style="fill:#1e78f0"/><path d="M669.81,582.75c-.95-5.78-.72-11.52-2.2-17.29-.83-3.23-1.74-6.47-2.84-9.62-.42-1.22-.9-2.42-1.3-3.66-.09-.27-.16-.65-.26-1a4.62,4.62,0,0,0-3.5-6.51c-.13,0-.26,0-.39,0-.4-1.62-1.68-3.34-3.81-3.1-6.3.69-10.33,3.43-12.84,7.2A67.67,67.67,0,0,0,630,570.33a1.54,1.54,0,0,0,1.42,2l8.3,1.2c.06.36.11.71.16,1.05,1.35,8.47,5.31,16,13.94,17.28C660.21,592.8,671.2,591.26,669.81,582.75Z" style="fill:#1e78f0"/></g><g id="object"><path d="M399.7,639.26c1.5-6.45-1.47-10.94-2.64-17-.43-2.23-3.52-3-4.79-3.1-23.67-1.91-49.31-2.25-73.07-3.35a4.36,4.36,0,0,0-4.2,2.67c-1.92,4.59-1.73,9.73-1.8,14.67,0,2.31.71,3.72,3,4,26.26,3.64,52.82,3.46,79.26,4.76C397.11,642,399.29,641,399.7,639.26Z" style="fill:#f0b441"/><path d="M727.82,473.51v0c-.15-3.24-1.33-9.12-4.48-11-4.62-2.81-11.61-3.25-16.81-3.09-29.57,1-60,8-85.73,22.91-24.76,14.38-44.46,35.59-59.43,59.81-8,12.9-14,26.15-17.53,40.94-1.74,7.33-3.16,14.71-2.68,22.28a69.36,69.36,0,0,0,1.65,11,43.54,43.54,0,0,0-3.42-4.8c-7-8.51-18-14.95-28.67-17.71-16.75-4.35-34.34,1.5-48.94,10.85,7.36,4,14.64,8.21,21.75,12.61,3.71,2.3,7.35,4.69,11,7.13,45.15,2,89.91-7.12,135-7.84a46.47,46.47,0,0,0-8.2,7c-7.93,8.65-13.26,20.59-15.09,32.14a46.12,46.12,0,0,0-.41,11.84c-5-8.27-11.7-14.67-23.39-14.86-18.74-.31-35.13,10.93-43.49,26.78a66.67,66.67,0,0,0-22-32c-15.17-12.07-35.31-15-53.94-10.89-20,4.38-38.06,15.94-53.44,29.13a203.77,203.77,0,0,0-39.77,46.1c-12.87,20.52-21.86,44-21.83,68.47a4,4,0,0,0,.82,2.51,3.73,3.73,0,0,0,3.17,1.7c55.08,1.46,110.24,3.17,165.34,1.87,27.59-.65,55.14-2.36,82.7-3.78,26.95-1.39,53.92-2.32,80.88-3.38,6.13-.24,12.26-.27,18.38-.46,3.88-.12,9.66-.22,13.28-1.76,5.77-2.45,6.88-5.67,7-11.09s.76-27.21.76-40.73,1.45-46.25,1.52-69.3c.08-23.24,1.34-46.07,2.13-69.29.52-15.21,1.16-29.86,2.28-45,.92-12.42,2.13-24.88,2.43-37.33C728.79,496,729.58,483.71,727.82,473.51Zm-74,118.35c-8.63-1.26-12.59-8.81-13.94-17.28-.05-.34-.1-.69-.16-1.05l-8.3-1.2a1.54,1.54,0,0,1-1.42-2,67.67,67.67,0,0,1,12.71-21.57,15.82,15.82,0,0,1,9.59-6.59,91.71,91.71,0,0,0,9.58,49.51A24.72,24.72,0,0,1,653.78,591.86Z" style="fill:#f0b441"/></g><g id="object-lines"><path d="M419.63,786.21s-12.33,27-17.54,41c-7.06,18.92-38,84.88-38,84.88" style="fill:none;stroke:#dc8c2d;stroke-linecap:round;stroke-linejoin:round;stroke-width:6px"/><path d="M639.67,781.8s19.48,49.14,24.6,62c7.82,19.6,29.2,68.57,29.2,68.57" style="fill:none;stroke:#dc8c2d;stroke-linecap:round;stroke-linejoin:round;stroke-width:6px"/><path d="M700.5,468.89c-13.77,7-26.19,17.68-34.34,30.82-20,32.18-19.22,75.48,4.18,105.23-13.82.89-28.17,3.45-39.72,10.84" style="fill:none;stroke:#dc8c2d;stroke-linecap:round;stroke-linejoin:round;stroke-width:6px"/></g><g id="body-lines"><path d="M193.89,697c17.58-10.61,97.51-43.78,128-56.53" style="fill:none;stroke:#3741f0;stroke-linecap:round;stroke-linejoin:round;stroke-width:6px"/><path d="M334.31,641.65c4.7,11,34.81,10,47.46,7.91" style="fill:none;stroke:#3741f0;stroke-linecap:round;stroke-linejoin:round;stroke-width:6px"/><path d="M344.88,648.22c7,14.89,42.46,13.38,55.79,13.91,2.37.09,4.82,0,7.32-.06" style="fill:none;stroke:#3741f0;stroke-linecap:round;stroke-linejoin:round;stroke-width:6px"/><line x1="109.5" y1="913.11" x2="728.78" y2="913.11" style="fill:none;stroke:#3741f0;stroke-linecap:round;stroke-linejoin:round;stroke-width:6px"/><path d="M393.9,619.46c-12.13-6.62-20.34-22.07-12.13-28.24s18.31,6,23.9,11.95,19,12.34,27.33,14c19.32,3.84,35.62,6.54,58.72,6.37" style="fill:none;stroke:#3741f0;stroke-linecap:round;stroke-linejoin:round;stroke-width:6px"/></g></g></g></svg>