<svg xmlns="http://www.w3.org/2000/svg" viewBox="0 0 800 1000"><title>jake-key</title><g id="jake"><g id="key"><g id="body"><path d="M198.52,623.6a7.08,7.08,0,0,0-2.49.23A67.05,67.05,0,0,1,176.3,626a32.62,32.62,0,0,1-3.58-.34c-3.75-7.37-4.58-15.75-7.33-22.74-2.23-5.66-9.31-5.4-11.65.71-2,5.22-1.59,11.31-1.6,16.8l-.26-.43c-1.75-2.88-2.45-6.46-3.11-9.72-1.28-6.26-2.62-13.36-3.86-19.62-1-5.29-9-6.93-11.69-2.45-3.87,6.51-4.13,15.81-4.16,23.7-4.93-9.1-3.11-20.23-6.07-30-1.72-5.65-8.92-4.68-12.47-1.15s-4.73,12.94-4.69,20.67a70.53,70.53,0,0,0,.73,8.22c-1.17-.85-2.35-1.67-3.56-2.44-4.9-3.12-10.15,1.69-9.31,6.81,1.8,11,10.34,20.54,18.91,28a16.25,16.25,0,0,0,4.46,6c4.55,7.89,9.15,12,15.13,14.57,8.13,3.47,20.14,6.39,32.51,2.33C188,657.4,201.44,650.93,207,628.43,208.1,623.85,202.45,622.14,198.52,623.6Z" style="fill:#1e78f0"/><path d="M298.56,911.91l.05.07a.65.65,0,0,0,0-.13A.13.13,0,0,1,298.56,911.91Z" style="fill:#1e78f0"/><path d="M326.48,314.69c.68,3.11,3.63,10.51,7.16,16.52s12.43,11.62,25.48,9.24c16.54-3,20.26-19.47,20.4-34,.14-14.77-2.84-34-14.94-44-13.4-11.08-29.32-2.23-35.05,12.11a63.55,63.55,0,0,0-3.71,14.2c-3.42,0-7-.3-10.29,1.05a14.07,14.07,0,0,0-7.77,16.69C310.19,314.8,318.51,315.57,326.48,314.69Z" style="fill:#1e78f0"/><path d="M639,445.48c-.47-7.84-11.08-9-13.46-2.71-3,7.86-7.5,18.32-12,25.36,1.93-6.13,3.25-24.19,1.94-30.78-1-4.91-9.81-8.37-12.36-3-4.48,9.43-5.8,19.73-10.07,29.15.56-5.51-.28-15.55-1.06-21-.81-5.67-10.8-7.19-12.15-.82-2,9.12-3.59,20.31-6,28.38a145.58,145.58,0,0,1-18.71,39.61h0c-7.06,9.66-17.73,14.51-22.3,11.47-7.34-4.87-10-12.22-11.89-20.52-4.12-18.55-6.42-37.63-10.14-56.29-3.17-15.86-5.9-32.31-12.1-47.33-20.29-49.15-80.26-44.37-123.58-41.58-28.89,1.85-56.85,1.08-85.42,6.74-22.83,4.52-51.11,9.64-65,30.88a144.72,144.72,0,0,0-10.29,15.78,6.64,6.64,0,0,0-.7,1.52,27.24,27.24,0,0,0-.57,13.52c-4.11,23.67-.5,49.53.91,72.6q3.78,61.53,7.54,123.06l.89,14.47c-.72,15.09-1.52,30.19-2.12,45.29-1.06,26.67,2.51,90.23,1,116.69-.71,12.91.89,63.7-.26,76.58-.78,8.76-1.94,20.66-2.39,29.41-4.05,1.87-10.66,5.21-13.7,8.74-3.52,4.09-1.51,10.31,4.15,10.73,28.15,2.07,71.26.05,79,.05s9.9-5.32,9.76-16.64c-.1-7.82.06-19.79.23-27.6.16-7.26.39-14.53.41-21.79,0-8,.93-82,3-111,2.1-29.58.55-59.28.73-88.91.2-32.48,1-65,1.79-97.43,14.33-.31,28.63-2.54,43-2.62,6.83,0,14.47.17,21.62-1.07.45,14.55,3.92,29.14,5.78,43.69,1.59,12.44,1.74,25,3.56,37.42,1.92,13.12,4.52,26.15,5.92,39.35s1.19,26.68,1.79,40c.61,13.58,1.47,27.15,2.39,40.72,1.85,27.14,3.94,54.27,4.73,81.46.43,14.93-.57,29.84-.79,44.78-.17,10.59.51,28.36.51,32.28s1.25,7.82,5.82,7.89c14.78.23,29.36-1.85,44.1-2.24,12.32-.33,24.8.66,36.91-2.18,7-1.65,5.5-11.76-1.36-12.27-2.51-.19-5-.48-7.45-.83l0-.31c-4.1-25.61-4.79-51.63-4.3-77.51.51-27.75-1.89-55.36-4.81-82.93s-.75-54.91-2.4-82.42c-.81-13.48-3.42-26.69-5-40.07-1.63-13.59-2.7-27.23-4.16-40.83-1.56-14.48-9.65-98.85-10.37-106.87.65-1,5.7-2.49,7.05-3.21l.93.46c-.22,21.9,1,44,6.9,65.2,5.59,20.08,15.36,42.16,32.37,55.1,28.48,21.65,73,14.18,95.23-13q3-3.65,5.89-7.51c14.7-17.39,39.32-64.82,44.43-83.23C636.71,471.44,640,462.66,639,445.48Z" style="fill:#1e78f0"/></g><path id="object" d="M733.34,428.7c-8.8-9.67-20.61-9.69-32.86-10.07-16.5-.52-35.18.39-51.68,1.29-17.79,1-85.11,6.38-102.89,7.57-32.63,2.19-86.54,8.63-105.95,10.45-19.12,1.79-38,3.5-57.1,5.34s-70.64,7.52-77.15,8.69c4.14-8.1,5.12-17.78-2-24.2-8.17-7.36-22-5.13-32.15,1.13-4.19-9.72-8.87-19.22-15.74-27.41-9-10.76-21.8-18.1-34.69-23.28-27.51-11-54.49-5.67-80.25,7.21C95.78,408,64.37,453.23,61.22,503.85c-2.52,40.49,13,85.4,46,110.16a96.32,96.32,0,0,1-1.35-12.51c0-7.73,1.14-17.13,4.69-20.67s10.75-4.5,12.47,1.15c3,9.73,1.14,20.86,6.07,30,0-7.89.29-17.19,4.16-23.7,2.66-4.48,10.64-2.84,11.69,2.45,1.24,6.26,2.58,13.36,3.86,19.62.66,3.26,1.36,6.84,3.11,9.72l.26.43c0-5.49-.39-11.58,1.6-16.8,2.34-6.11,9.42-6.37,11.65-.71,3.81,9.69,3.91,22.08,13.27,30.7a169.43,169.43,0,0,0,27.25-3.57c23.29-5,47.7-13.56,60.33-35.07,10.57-18,16.67-44.34,19.64-65.44,8.13,3.88,21.21,2.3,28.27-5,5-5.18,4.23-13.42-1.77-21.59,5.63-.75,16.47-1.44,22.1-2.2,35.28-4.78,70.61-9.73,106.23-10.87,17.53-.57,34.56-2.23,51.93-4.47s35.05-2.93,52.68-3.48c8.31-.26,16.61-.79,24.9-1.44,1.3-3.41,2.5-6.89,3.6-10.53,2.46-8.07,4.1-19.26,6-28.38,1.35-6.37,11.34-4.85,12.15.82.78,5.47,1.62,15.51,1.06,21,4.27-9.42,5.59-19.72,10.07-29.15,2.55-5.37,11.39-1.91,12.36,3,1.31,6.59,0,24.65-1.94,30.78,4.48-7,9-17.5,12-25.36,2.38-6.27,13-5.13,13.46,2.71,1,17.18-2.3,26-6.71,41.87a117.43,117.43,0,0,1-4.91,13.42c.29,3.18.5,6.33.54,9.34.16,11.84.64,30.61,4.78,41.86,4,10.81,13.72,9.08,20.33,1.37,1,6.54,2.57,12.94,5.55,18.42,5.45,10,17,9.08,22-.87,4.14-8.3,4.93-18.54,5.14-28.21,12.63,6.73,15.14-15.78,15.78-25.61.79-12-.26-17.27-1.67-29.15a176.54,176.54,0,0,1-1.32-17.77c11.85-.42,25.74-1.35,34.73-10C741.26,452.41,740.65,436.73,733.34,428.7ZM169.05,519.14a35.08,35.08,0,0,1-6.08,7.49c-13.52,12.54-40.41,16-52.33-.73-5.7-8-6.16-18-4.32-27.84s7-15.25,12.76-20.94c6.53-4.33,13.57-7.86,22-6.75C157,472.45,169,485.6,170.76,501.22A44.53,44.53,0,0,1,169.05,519.14Z" style="fill:#f0b441"/><g id="object-lines"><path d="M250.18,535.24c-7.44-2.39-15.22-7-21.91-11.23-5.4-3.44-17-9.74-19.26-17.55s23.42-1.7,33.66-.38c-7.19-3.51-16.73-4.83-20.53-11.66s9.23-9.87,15.57-11.76c-3.72-1.6-8.94-3.5-11.27-6.94,2.74-3.82,5.77-4.33,4.21-9.49-2.42-8-6.44-13.16-15.18-21.9,5.75,2.05,12.85,2.47,18.51,0" style="fill:none;stroke:#dc8c2d;stroke-linecap:round;stroke-linejoin:round;stroke-width:6px"/><path d="M326.3,494.79c20.4-2.22,66.44-9.34,86.9-10.86,44.84-3.34,89.64-6.19,134.31-11.49" style="fill:none;stroke:#dc8c2d;stroke-linecap:round;stroke-linejoin:round;stroke-width:6px"/><path d="M89.57,453.18c8.93-20,23.88-36.69,42.27-48.75" style="fill:none;stroke:#dc8c2d;stroke-linecap:round;stroke-linejoin:round;stroke-width:6px"/><path d="M187.32,619.4c13.55-.13,33.43-5.14,44.39-13.41,5.47-4.14,11.57-9.63,15.54-15,2.71-3.67,4.47-9.13,7.47-12.2" style="fill:none;stroke:#dc8c2d;stroke-linecap:round;stroke-linejoin:round;stroke-width:6px"/><path d="M729.21,449.35c-2.09,4.52-4.35,6.46-9.51,8.36-4.82,1.78-11.59,3.86-16.85,3.43" style="fill:none;stroke:#dc8c2d;stroke-linecap:round;stroke-linejoin:round;stroke-width:6px"/></g><g id="body-lines"><line x1="133.55" y1="920.08" x2="570.64" y2="920.08" style="fill:none;stroke:#3741f0;stroke-linecap:round;stroke-linejoin:round;stroke-width:6px"/><path d="M360.84,281.92a88.91,88.91,0,0,1,4.23,27.63,70.22,70.22,0,0,1-12.21.84" style="fill:none;stroke:#3741f0;stroke-linecap:round;stroke-linejoin:round;stroke-width:6px"/></g></g></g></svg>