<svg xmlns="http://www.w3.org/2000/svg" viewBox="0 0 800 1000"><title>jake-suitcases</title><g id="jake"><g id="suitcases"><g id="body"><path d="M647.33,881.74s-.07,0-.1,0c-4.18-17.32-20.68-100.68-26-125.92-5.81-27.55-8.78-54.76-16.25-78.94-6.71-21.73-44.23-104.53-86.47-172.83h0c-15.4-29-30.7-58.45-39.87-88.3a106.1,106.1,0,0,1,16.78-8.5c10.21-4.27,25.48-6.31,40.34-7.16,3.37-.2,7.24.41,8.28,2.61a94.71,94.71,0,0,1,4.69,12.69c10.44-1.65,21.43-1,31.73-.2a238.48,238.48,0,0,1,36.71,5.08C614,404,608.94,380.4,605.63,373.94c-4.51-8.79-10-14.18-17.82-19.37-14.52-9.68-35-10-52.06-8.92-27,1.64-59.61,6.1-86.86,17.15h0c-16,5.81-41.35,20.43-58.59,16.7-8.7-1.88-20.69-9.33-28.18-14l-.07,0c-28.41-18.84-68.66-27.72-101-32-17-2.22-37.4-3.34-52.55,5.31-8.14,4.64-14,9.64-19.11,18.09s-15.7,48.42-18.12,58.85-5.82,28.64-7.42,36.44-4.56,22.52-4.94,33.88c-.11,3.48-.56,8.25,3,10.25,2.88,1.6,6.49.45,8.52-1.9,3.05-3.52,3.41-9.23,4.41-13.59.71-3.09,1.42-6.17,2.14-9.26l2.67,1.35c-1.12,7.06-2.63,13.17-3.28,20.29-.55,6-3.72,18.77,4,21.34,7.92,2.62,9.92-9.6,11.57-14.53,2.49-7.45,5-15.93,7.48-23.37.89,0,1.77,1.09,2.65,1.08A67,67,0,0,0,199.72,495c0,4.44-.38,11,3.4,14.07,7.14,5.85,12.74-11.15,14.63-16.77,3.37-10,5.89-20.6,8.27-31,.95,2.05,5.49,4.32,6.79,6,3.36,4.43,8.5,2.55,9.49-.61a3,3,0,0,0,1-2.34c-2.17-17.07-7.31-34.49-3.89-51.67a132.93,132.93,0,0,1,9-21.2,21.27,21.27,0,0,1,2.18-1.92c1.77-.46,4.32-.06,6.62.23,14.76,1.88,29.85,3,39.74,7.93,11.28,5.67,22.64,12.51,28.75,23.52.53.94,1.06,1.81,1.59,2.64,3.35,27.58,1.63,55.63.83,83.65-.94,32.67.55,65.21-3.34,97.64-4.21,35-6.41,71-9.92,85S295,753.43,281.7,786.8c-13.21,33.1-34.45,81.71-40.47,116.84-.42,2.49,0,6.63,1.39,7.94.67,1.45,3.28,2.9,5.46,3l41.74,1.49c9.75.35,33.18,1.43,46.78,0,10-1.09,8-12.64-3.86-14.35l-.11,0c-.06-17.82,32.74-91.94,41.46-116.21,9.52-26.5,21.27-51.21,27.6-75.72,5.61-21.69,12.95-109.49,12.29-188.86q9.54-.87,19-2.4,6.79,11.91,12.94,24.21c14.65,29.21,25,56,38.74,85.64,14.79,32,31.82,63.8,36.16,77.54s16.29,64.22,22.47,99.6c6.14,35.11,10.16,64.15,15.49,99.4.38,2.5,1.55,6.44,3.19,7.4,1,1.26,3.86,2.06,6,1.63l40.94-8.22c9.58-1.93,32.62-6.31,45.51-10.89C663.89,891.43,659.28,880.65,647.33,881.74Z" style="fill:#1e78f0"/><path d="M374.25,323c-.51,5.62,1.32,10.62,4,17.51s9.35,12.44,22,12.53c15.71.12,22.21-14,25.05-27.35l7.05.5a2.34,2.34,0,0,0,2.76-2.51A102.35,102.35,0,0,0,424.61,290a30.82,30.82,0,0,0-5.2-9.26c-10.62-12.82-27.17-7.34-35.12,5.11a61.63,61.63,0,0,0-6,12.69c-3.21-.59-6.55-1.54-9.86-.85A13.46,13.46,0,0,0,358.12,312C358.92,320.2,366.61,322.42,374.25,323Z" style="fill:#1e78f0"/></g><g id="object"><path d="M630.53,402c-6.91-5.44-15.68-7.89-24.23-9.25-11.48-1.82-23.19-2.48-34.78-3.18q-19.54-1.17-39.13-1.22a110.56,110.56,0,0,0-37,8.64,76.25,76.25,0,0,0-18.9,11.42c8.79,32.37,25.32,64.3,42,95.66h0c14,22.66,27.5,46.9,39.52,70l2.64,0c11.61.09,23.22.09,34.83-.07,9.61-.14,20.49.77,29.6-2.93,17.54-7.12,15.23-29.69,15.63-45.11q.93-35.37,1.85-70.75C643.06,437.37,646.48,414.58,630.53,402Z" style="fill:#f0b441"/><path d="M383.56,476.24c-.65-17.64.21-36.17-2.9-53.59-2.37-13.26-9.7-24.51-21.77-30.82a43.14,43.14,0,0,0-29.52-4,199.11,199.11,0,0,0-25.58-.79q-25.44.51-50.87,1.08A18.13,18.13,0,0,0,247,393.3c-3.56,6.37-4.65,11-7.54,19.46-3.42,17.18,1.72,34.6,3.89,51.67a3,3,0,0,1-1,2.34c-1,3.16-6.13,5-9.49.61-1.3-1.72-5.84-8-6.79-10-2.38,10.37-4.9,25-8.27,35-1.89,5.62-7.49,22.62-14.63,16.77-3.78-3.1-3.4-9.63-3.4-14.07a67,67,0,0,1,2.37-17.26c-.88,0-1.76-1-2.65-1.08-2.49,7.44-5,15.92-7.48,23.37-1.65,4.93-3.65,17.15-11.57,14.53-7.76-2.57-4.59-15.32-4-21.34.65-7.12,2.16-13.23,3.28-20.29L177,471.59c-.72,3.09-1.43,6.17-2.14,9.26-1,4.36-1.36,10.07-4.41,13.59-2,2.35-5.64,3.5-8.52,1.9-3.61-2-3.16-6.77-3-10.25.38-11.36,3.34-26.07,4.94-33.88s5-26,7.42-36.44c1.07-4.62,3.75-15.06,6.85-26a72,72,0,0,0-18.45,3.52,39.4,39.4,0,0,0-23.87,23.16c-4.66,11.58-5.25,24.37-5.72,36.7-.62,16.77-1.13,33.55-.83,50.34A363.54,363.54,0,0,0,133,552.4c1.66,10.75,5.2,23.17,16.39,27.5,6.34,2.44,13.55,1.92,20.21,2l26.69.37,51.31.73,102.63,1.44c12.05.17,25.94.37,32.34-11.91,6-11.53,3.61-26.43,3.15-38.85Z" style="fill:#f0b441"/></g><path id="object2" d="M650.48,456.05c3.67-5.12,4.73-12-.88-16.51S635,435.19,627.44,437c2.18-3.18,4.13-6.29,1-10.43-5.12-6.67-13.5-2.94-18.89,1.1a3.19,3.19,0,0,0-1.26,2,2.73,2.73,0,0,0-1.63,3.51,102.89,102.89,0,0,1,3,15.4c.31,6.11,0,12.37,0,18.16-.58,5.34-1.35,10.66-1.48,16-.09,3.95-.43,9.63,1.85,13.14,3.7,5.69,12.87,4.65,17.19.34a12,12,0,0,0,2.47-13.14,155,155,0,0,0,15.56-1.36c5.11-.8,11.94-2.71,14.78-7.52C664.48,466.72,657.71,459.1,650.48,456.05ZM372.61,492.59c-.26-6.69-4.65-10.6-10.11-12.66.72-.43,1.43-.89,2.12-1.39,2.53-1.83,6.31-4.45,5.87-8-.62-4.86-4.53-6.57-8.92-6.82,2-2.18,3.22-4.56,2.15-6.81-2.5-5.24-10.78-1.44-14.46-.42a3,3,0,0,0-1.63,4.72q.72,8.86.95,17.73a3.33,3.33,0,0,0,.09,4.17q.18,12.42-.55,24.84a3.11,3.11,0,0,0,3.08,3.09C361.64,510.63,373.08,504.53,372.61,492.59Zm-243.5-3.38c-6.28,5.81-15.8,7.79-20.59-1.17-4.19-7.85-1.14-18.82,2.38-27.18a12.32,12.32,0,0,1-7.78-12c.18-7,4.9-12,10.09-16.14-5.68-5.63-6.1-16.77.29-22.11,4.52-3.77,12.3-2.69,17.63-1.63a22.91,22.91,0,0,1,6.94,2.54,46.18,46.18,0,0,0-2.34,4.91c-4.66,11.58-5.25,24.37-5.72,36.7C129.56,465.18,129.18,477.19,129.11,489.21Z" style="fill:#dc8c2d"/><g id="object-lines"><path d="M557.56,395.16c7.61,1.13,13.54,7.64,16.23,14.85s2.74,15.09,2.75,22.79L576.72,535c0,8.49-.17,17.64-5.24,24.47a20,20,0,0,1-7.75,6.22" style="fill:none;stroke:#dc8c2d;stroke-linecap:round;stroke-linejoin:round;stroke-width:6px"/><path d="M593.78,395.24c10.73,4.62,13.09,18.53,13.72,30.19a945.47,945.47,0,0,1-.38,109.23" style="fill:none;stroke:#dc8c2d;stroke-linecap:round;stroke-linejoin:round;stroke-width:6px"/><path d="M289.88,393.72c8.45-.91,16.52,4.82,20.82,12.15s5.55,16,6.47,24.46c4.5,41.12,3.15,82.63,1.79,124-.18,5.61-.4,11.38-2.69,16.51s-7.18,9.5-12.79,9.43" style="fill:none;stroke:#dc8c2d;stroke-linecap:round;stroke-linejoin:round;stroke-width:6px"/><path d="M335.37,394.48c9.35,7.35,11,20.66,11.74,32.53a1237.4,1237.4,0,0,1,1.48,126.15" style="fill:none;stroke:#dc8c2d;stroke-linecap:round;stroke-linejoin:round;stroke-width:6px"/></g><line id="body-lines" x1="676.89" y1="916.37" x2="203.32" y2="916.37" style="fill:none;stroke:#3741f0;stroke-linecap:round;stroke-linejoin:round;stroke-width:6px"/></g></g></svg>