<svg xmlns="http://www.w3.org/2000/svg" viewBox="0 0 800 1000"><title>jake-hoverboard</title><g id="jake"><g id="hoverboard"><g id="body"><path d="M646.08,372.21c-.79-17-4.6-37-16.73-48.44s-38.88-19.43-71.86-19.43c-15.75,0-32.29-.19-47.48.47a113.87,113.87,0,0,0-18.44,1.36c-9.16,1-17.32,2.65-23.8,5.16a63.15,63.15,0,0,0-8.9,4.24c-1.76.73-3.5,1.49-5.24,2.29-26,11.82-50.36,27-74,42.87-47.07,31.68-91.6,67.62-142.25,93.66-8,4.11-16.13,7.71-24.37,11.11a138.33,138.33,0,0,1-21.42,5.63c-8.33,1.47-18,.61-25.75,4.14-2.36,1.07-3.81,3.9-2.12,6.28,3.08,4.33,7.85,4.2,12.74,4.32,3.66.09,7.32.11,11,.1,0,.25,0,.5,0,.75-5.37.83-10.72,1.74-16.06,2.53-4.25.63-19,0-16.9,8.2,1.73,6.83,14.75,5.95,19.91,5.9a132.79,132.79,0,0,0,14.09-1.07c.12.52.25,1,.38,1.56-8.34,2-16.76,3.57-25.26,4.74-4.19.58-9.68.46-11.13,5.41-1.2,4.14,1.7,7.74,5.33,9.2,5.74,2.3,13.48,2.06,19.57,1.95a124.45,124.45,0,0,0,20.82-2.29c7.11-1.34,16-2.44,22.74-6.24a451.4,451.4,0,0,0,74.95-24.87,9.48,9.48,0,0,0-.17,2.45c.1,2.07,1.72,4.48,4.1,4.26a149.08,149.08,0,0,0,24.06-4.15c0,.68,0,1.37,0,2.05-4.73,1.8-9.5,3.54-14.09,5.61-3.77,1.7-7.35,4.17-7.55,8.65a4.26,4.26,0,0,0,3,4.09c5.69,1.73,14-.37,19.75-1.51,1.64-.33,31.67-8.17,49.5-13.91,7.09-2.29,17.13-5.4,29.57-9.58q-4.21,17.3-9,34.43A992.16,992.16,0,0,1,343.4,665.21c-23.23,51.08-46,114.15-73.59,163-1.83,3.25-2.9,26.39,3,26.16a2.74,2.74,0,0,0,.55-.09,4,4,0,0,0,1.83.33q46.19-1.8,92.41-.84c3.42.07,4.87-3.55,3.61-6.29a86.94,86.94,0,0,0-11.89-18.91C371.44,806.25,421.36,692,434,666.91,460.14,615.09,474.5,558.44,486.56,502q3.54-16.59,7-33.21,14.34-3.72,28.66-7.51a916.12,916.12,0,0,1-23.61,112.07c-15.36,55.42-36.68,109-58.7,162.07-12.05,29.05-31.84,74.42-39.26,92.84-6.72,16.68-5,22.67,5.57,23.65a4.86,4.86,0,0,0,1.95.57,688.52,688.52,0,0,0,95.6.41c3.43-.23,5.74-4.51,2.95-7.14l-9.31-8.78a85.1,85.1,0,0,1-6.37-7c-2.14-3,85.07-227.14,109-341.47,3-14.33,5.69-32.3,8.09-46.73C632.83,424.09,647.5,402.79,646.08,372.21Z" style="fill:#1e78f0"/><path d="M533,265.76c3.64,2.29,8.11,2.49,12.55,2.15A24.42,24.42,0,0,0,547,277c1.6,3.72,5.89,6.26,9.38,8,8.17,4,16.67.53,22.43-5.93A41.42,41.42,0,0,0,586,266.77l5.78.66c1.26.14,2.32-.55,2.24-1.58a60.93,60.93,0,0,0-5.3-20.11c-1-5.37-3.67-10-8.7-12.92a13.51,13.51,0,0,0-11.69-1.31A24.23,24.23,0,0,0,556,237.68a28.58,28.58,0,0,0-6.18,8.18,52.33,52.33,0,0,0-6.71.21c-5.61.52-12.74,1-15.07,7.14C526.27,257.91,528.9,263.2,533,265.76Z" style="fill:#1e78f0"/></g><g id="object"><path d="M560.52,819.24c-5.21-22.29-23.47-38.3-43.65-42.69a73.49,73.49,0,0,0-7.37-1.21C497.94,807.77,490.35,829.08,491,830a85.1,85.1,0,0,0,6.37,7l9.31,8.78c2.79,2.63.48,6.91-2.95,7.14a688.51,688.51,0,0,1-71.54.94c.07,1.91.18,3.82.34,5.71,1.17,14.15,6.31,26.2,18.31,34.46s16.31,9.42,30.65,9.45c7.87,0,26.39.59,34.13-.76A52.77,52.77,0,0,0,537.08,893c10.26-7.6,17.14-21.17,21.12-32.95A75.06,75.06,0,0,0,560.52,819.24Z" style="fill:#f0b441"/><path d="M291.06,775.35c-20.34-2.6-41.74,1.45-51.78,5.7-13.83,5.86-22.06,15.63-26.39,29.93a134.49,134.49,0,0,0-5.16,49.26C208.9,874.51,214,886.66,226,895s27.09,10.44,41.41,9.52c7.85-.51,15.64-.62,23.37-2,7.52-1.33,15.19-3.83,21.46-8.51,10.27-7.66,17.15-21.34,21.12-33.22a76.19,76.19,0,0,0,2.33-41.17C330.51,797.16,311.4,778,291.06,775.35Z" style="fill:#f0b441"/></g><g id="object-lines"><path d="M336,855.59c60.15-1.19,135.4-2.38,179.72-3.56" style="fill:none;stroke:#dc8c2d;stroke-linecap:round;stroke-linejoin:round;stroke-width:6px"/><path d="M252.89,844.07c1.83,4,4.22,8.46,8.47,9.76a16,16,0,0,0,4.53.5,14.11,14.11,0,0,0,6.31-.88,9.29,9.29,0,0,0,3.48-3.11c5.1-7.26,1.25-18.8-7.27-21.65C260.35,826,249.15,835.81,252.89,844.07Z" style="fill:none;stroke:#dc8c2d;stroke-linecap:round;stroke-linejoin:round;stroke-width:6px"/></g><g id="body-lines"><path d="M349.58,496c-5.59-.23-13.08-6.41-9.77-10.79s17.53-2.34,25.89.26" style="fill:none;stroke:#3741f0;stroke-linecap:round;stroke-linejoin:round;stroke-width:6px"/><line x1="196.55" y1="905.76" x2="568.63" y2="905.76" style="fill:none;stroke:#3741f0;stroke-linecap:round;stroke-linejoin:round;stroke-width:6px"/><path d="M296.84,490.85c19.36-10.93,63.34-38.56,74.58-45.58,22.25-13.87,50-37.13,74.58-54.94" style="fill:none;stroke:#3741f0;stroke-linecap:round;stroke-linejoin:round;stroke-width:6px"/><path d="M419.22,410.53c-4.47,24.71-12.81,55.88-18.6,80.32" style="fill:none;stroke:#3741f0;stroke-linecap:round;stroke-linejoin:round;stroke-width:6px"/><path d="M522.31,459.3a262.49,262.49,0,0,0,3.11-34.84,194.13,194.13,0,0,0-21.22-.23C501.69,440,498.65,451,494.15,465.7" style="fill:none;stroke:#3741f0;stroke-linecap:round;stroke-linejoin:round;stroke-width:6px"/><path d="M618.38,369.65c2.41,8.73-3.75,45.2-8,68" style="fill:none;stroke:#3741f0;stroke-linecap:round;stroke-linejoin:round;stroke-width:6px"/><path d="M325.45,624.14c-28.67,1-53.35,1.05-82,2.08" style="fill:none;stroke:#3741f0;stroke-linecap:round;stroke-linejoin:round;stroke-width:6px"/><path d="M186.86,595.92A511.7,511.7,0,0,1,291.3,591.6" style="fill:none;stroke:#3741f0;stroke-linecap:round;stroke-linejoin:round;stroke-width:6px"/><path d="M215.08,344.38q57.24-4.29,114.72-3.2" style="fill:none;stroke:#3741f0;stroke-linecap:round;stroke-linejoin:round;stroke-width:6px"/><path d="M307.56,323.39a671.45,671.45,0,0,0,67.45-.27" style="fill:none;stroke:#3741f0;stroke-linecap:round;stroke-linejoin:round;stroke-width:6px"/><path d="M92.57,775.29s45,1.84,82.29-1.38" style="fill:none;stroke:#3741f0;stroke-linecap:round;stroke-linejoin:round;stroke-width:6px"/><path d="M152.21,749.55s41.32-.16,78.79,0" style="fill:none;stroke:#3741f0;stroke-linecap:round;stroke-linejoin:round;stroke-width:6px"/></g></g></g></svg>