<svg xmlns="http://www.w3.org/2000/svg" viewBox="0 0 800 1000"><title>jake-phone-click</title><g id="jake"><g id="phone-click"><g id="body"><path d="M639.38,403.18a77.43,77.43,0,0,0-10.08-27.59A117,117,0,0,0,609.67,352c-14.71-13.79-34.32-19.73-54-21.86-20.6-2.24-41.67-1.35-62.33-.56A585.57,585.57,0,0,0,429,335.28c-21.06,3.17-57.12,10.85-88.29,22.29s-67.82,34.68-75.2,40.76c-9.1,7.51-18.24,15-26.93,23-32,29.34-53.7,67.07-68.12,107.71a483.32,483.32,0,0,0-17.06,62.09c-4.61,21.89-9.06,45.61-1.3,67.34,3.29,9.23,9.34,17.62,18.29,22,9.59,4.67,21.43,3.88,31.42,1,17.72-5.18,32.17-17.53,43.4-31.89-.27,9.55-.53,17.61-.76,22.53-1.25,26.65-.94,53.22-.84,79.88.1,26.5-.31,53-2,79.47-.81,12.9-3.12,56.49-3.63,65.24a30.67,30.67,0,0,0-10.54,8c-3.55,4.06-1.59,10.3,4.07,10.76,28.13,2.27,50.79-.11,79,.66a6.4,6.4,0,0,0,2.75-.53,9.39,9.39,0,0,0,.9.42c5.58,2.13,6.69-7.9,6.82-9.37l0,.06,0-.12a1,1,0,0,0,0-.13c.06-.4-.57-8-.59-11.06-.06-7.81.17-15.63.4-23.44.21-7.26.5-15.9.57-23.17.08-8,1.52-82,3.8-111,2.32-29.56,1-59.28,1.37-88.9.34-25.59,1.69-78.33,2.74-115.43l.83-.89c3.89-4.09,13.13-12.65,14-17.2s-1.82-8.41-6.29-6.7c-2.21.85-5,2.2-7.92,3.49.05-1.56.09-3.05.14-4.45,14.33-.2,28.65-2.33,43-2.31,6.84,0,9.47.27,16.64-.91.34,14.55,2.71,59.09,4.46,73.65,1.5,12.44,1.55,25,3.28,37.44,1.83,13.13,8.42,120.41,9.24,134,1.65,27.15,3.55,54.29,4.14,81.49.33,14.94,1.67,66.15,2.09,76.95,0,.11,1,7.85,5.61,8,14.76.63,31.63-1.06,46.37-1.05,12.33,0,24.78,1.32,37-1.19,7.08-1.46,5.81-11.61-1-12.3-2.51-.26-5-.61-7.43-1,0-.11,0-.21,0-.31-3.4-25.71-5.56-134.34-8.28-161.93s-5-123-6.55-136.38c-1.15-10.2-4.09-79.36-5.35-95.66-.61-7.84-.88-15.67-.92-23.48,10.44.42,23.3.77,31.86.3,21.83-1.19,44.08-1.35,65.65-5.17,19.15-3.4,38-10.53,52-24.52C635.05,439.94,642.63,422.08,639.38,403.18Z" style="fill:#1e78f0"/><path d="M321.6,327.41a2.35,2.35,0,0,0,3.67.68l6.15-4.45c10,10.84,21.93,17.71,30.44,7.37a6.09,6.09,0,0,0,1.75-1.6c6.91-9.19,5.47-20.73,1.14-30.79,6.38-4,13-9.93,11.28-17.29-2.69-11.55-17.08-6.81-25.37-3.88-5.58-6-12.37-10.86-20.21-11.86C313,263.36,308.93,281.45,313,294.38A102.22,102.22,0,0,0,321.6,327.41Z" style="fill:#1e78f0"/></g><g id="body-lines"><line x1="183.01" y1="914.25" x2="536.01" y2="914.25" style="fill:none;stroke:#3741f0;stroke-linecap:round;stroke-linejoin:round;stroke-width:6px"/><path d="M565.52,387.63c-2.91,2.78-10.2,5.2-26.52,8.16-26.11,4.73-84.86,12.21-94.95,15-15.82,4.33-31.15,8.68-46.5,14.46s-36.6,19.91-41.2,26.68-.25,13,5,13.24c7.81.4,18.1-4.83,24.88-8.74l11.75-6.79" style="fill:none;stroke:#3741f0;stroke-linecap:round;stroke-linejoin:round;stroke-width:6px"/><path d="M406.32,439.83c-5.81,2.7-9.1,9.76-9.94,16.1-.46,3.43-.56,7,.7,10.23s2.39,5.32,5.28,7.2" style="fill:none;stroke:#3741f0;stroke-linecap:round;stroke-linejoin:round;stroke-width:6px"/><path d="M412.53,456.45c-2.7,2.52-6,5.3-7.31,8.73-1.9,4.86-3,10.38-1.35,15.34a18.46,18.46,0,0,0,4.25,6.83,27.83,27.83,0,0,0,17,8.57c3.24.38,11.88,1.52,14.57-3s-.21-7.9-2.42-10.3" style="fill:none;stroke:#3741f0;stroke-linecap:round;stroke-linejoin:round;stroke-width:6px"/><path d="M426.37,482.19c8.49.3,31.55.9,40,1.21" style="fill:none;stroke:#3741f0;stroke-linecap:round;stroke-linejoin:round;stroke-width:6px"/><path d="M425.91,415.56l-14.78-2.8c-4.15-.78-8.59-1.54-12.48.11s-5.67,8.8-2.47,11.56" style="fill:none;stroke:#3741f0;stroke-linecap:round;stroke-linejoin:round;stroke-width:6px"/><path d="M240,465.49c-3.15,1.5-4.49,5-5.15,8.39-2.39,12.26,1.76,25.19-1.19,37.33-2.2,9-8.07,16.61-13.8,23.9l-37.71,48.07" style="fill:none;stroke:#3741f0;stroke-linecap:round;stroke-linejoin:round;stroke-width:6px"/><path d="M317.49,550C292,582.32,266.7,615.43,245.87,651" style="fill:none;stroke:#3741f0;stroke-linecap:round;stroke-linejoin:round;stroke-width:6px"/></g><path id="object" d="M369.88,528.08c-3.66-12.53-9.68-23.94-16.26-35.16-6.26-10.68-12.24-21.47-18.27-32.29C329.46,450,323,439.7,314,431.37c-2.1-1.95-4.31-4-7.24-4.55-3.42-.61-7.13.67-10.47,1.37-6.83,1.42-13.66,2.82-20.49,4.25-13.77,2.89-27.5,6.29-39.3,14.27a4.39,4.39,0,0,0-1.22,5.17c3.75,7.74,14.15,26.24,22.95,41.44,12.46-5.31,43-26.58,47.14-29.45,4.58-3.15,13-7.27,16-2s-3.39,11.74-7.64,18.89c-1.56,2.62-6.11,7.72-7.67,10.34l2,2.33c6.75-2.66,21.67-11.62,27.84-13.42a6.06,6.06,0,0,1,6.49,9.75c-4,4.67-15.71,12.12-25,22.34l3.67,3.33c4.71-1.07,12.1-5,16.71-6.81s7.17,2.14,6.29,6.7-10.11,13.11-14,17.2c-4.39,4.63-8.76,9.3-13.06,14l20.32-5c10.06-2.45,20.6-4.34,30-8.8C369,532,370.41,529.91,369.88,528.08Z" style="fill:#f0b441"/></g></g></svg>