<svg xmlns="http://www.w3.org/2000/svg" viewBox="0 0 800 1000"><title>jake-peace</title><g id="jake"><g id="peace"><g id="body"><path d="M413.1,314.84c8.38-.76,13.3-7.09,16.19-14.71,7-.07,14.36-3.38,17-8.8,2.82-5.72-.49-12.28-5.56-15.39a23,23,0,0,0-7.53-2.81c-.17-5.06-1-10.22-3.53-14.46A15.49,15.49,0,0,0,415,250.79c-5.55.27-10.26,5-13.48,11s-5.19,16.12-5.9,23.8C394.6,297.2,397.38,316.26,413.1,314.84Z" style="fill:#1e78f0"/><path d="M704.7,328.49c-1.48-14.12-3.67-27.9-6.26-41.85,0-.12-.05-.25-.07-.37a12.81,12.81,0,0,0,1.51-1.2c7.23-6.71,3.56-18.09-.67-25.44s-11.9-13.22-20.73-11.54c-6.22,1.19-10.33,5.53-12.43,10.92-1,0-2,0-2.87,0-.95-7.91-1.77-15.82-2.93-23.69-1.13-7.71-2.19-15.49-3.57-23.16-.94-5.16-3.71-9.19-9.07-10.27-13.46-2.7-12,13.13-11.38,22.24.84,11.84,2,23.05,3.89,36.08a56,56,0,0,0-5.74,1.29c-1.71-4-2.94-8.3-4.34-12.29-2.44-6.9-5.07-14.24-8.6-20.74-2.16-4-8.56-7.2-13.49-4.3-3.88,2.28-3,7.67-2.67,11.57A81.38,81.38,0,0,0,609.13,253c3.34,9.73,4.79,17.26,8.15,27,3.19,9.2,10.08,36.72,12.05,48.47s3.84,32.32,2.72,48.74c-.56,8.3-1.41,17.71-3.51,25.76a43,43,0,0,1-8.93,17.55c-4.4,5.13-10.41,7.76-16.56,6.66s-13.89-16.5-16.41-22.17c-3.49-7.85-6.61-15.69-10.71-23.26a132.72,132.72,0,0,0-21.88-30.14c-8.22-8.27-18.33-14.16-29.16-18.31C503,324.84,491.1,323.91,467.8,327c-12.88,1.68-25.5,4.72-38.24,7.16s-25.51,4.72-38.11,7.89c-26.43,6.65-33.36,10.75-57.25,23.91-10.42,5.73-24.15,18-32.69,26.38-7.66,7.49-14,16.22-20,25.05-11.33,16.61-22.27,33.33-36.43,47.74-13,13.21-30.53,27.38-50.27,25.74-20.55-1.71-34.45-19.14-35.29-38.91-.71-16.74,7.38-39.39,13.07-48.22.18-.28.33-.53.51-.8a52.91,52.91,0,0,0,3.29-5.31h0c1.72-2.88,3.19-5.5,4.53-8,8.86-15.19,21.16-34.66,23-38.81q2.58-3.88,5.08-7.82c4.65-7.38,9-14.94,13.69-22.3,3.7-5.81,8.27-11.28,11.71-17.22,2.61-4.52,3.6-10.08-.9-13.89-4.27-3.62-9.36-1.4-13.22,1.62-8.17,6.41-23.7,28.09-23.7,28.09l-3.44-2.35c1.39-3,8.48-18.48,10.7-23.75,3.13-7.42,10.95-25-.52-29.78-8.74-3.65-14.94,10.16-17.77,16.08-4.33,9.08-7.73,17.33-13.55,27.37-2.93-11.23-6.75-11.11-16.51-11S135.4,309.31,133.75,322c-2.71,5-24.21,46.94-35.26,66.36s-16.18,50.56-16.28,64.49C82,479.1,96,512.58,106.46,524.3s31.87,33.64,68.73,36.94,73.5-9.32,89.64-22.49a257.16,257.16,0,0,0,49.11-53c-6.49,26.26-16.52,61.79-23.16,88-2.9,11.46-8.36,41.63-12.72,64.61-3.74,19.67-4.15,41.33-2.75,65.08,1.38,23.44,3.09,51.47,3.93,65.14,1.33,21.31,2.92,66.54,3.05,87.9.07,11.73.15,37,.15,37s-11.88,8.72-15.82,12.38-1.62,8.6,2.23,8.78c3.07.14,75.27.94,79-.3,3.52-1.15,7.66-4.51,7.83-8.49S353.47,803,352.67,783.28c-1.54-38-3.29-101.67-3-114.19s13-58.6,20.21-87.63c7.58-30.36,25.23-91.28,25.23-91.28s24.85-5.95,27.08-6c3.93,11.13,14.41,71.29,18.58,89.3,4.1,17.7,6.64,35.71,9.56,53.64,1.36,8.38,4.81,32.8,4.89,36.6-.53,41.78-12.85,168.27-14.37,190-1.22,17.33-4.35,50.63-4.42,56.52.21,2.23,1.85,5.49,4.75,5.49l85-.47c3.59-.38,7.13-5.39,3.43-8.28s-7.66-7.22-11.52-10.23c0,0,3.18-53.48,4.78-68.12,3.34-30.46,7.63-72.26,11-102.72,3-27.68,6.88-50.71,5.5-72.08s-11.91-74.62-14.84-89.5c-2.67-13.5-9.51-58-12-78.5s-4.41-47.62-4.94-66.75c5.36,17,13.86,32.86,23.82,47.58,12.9,19.08,30,33.66,54.57,39.86,40.81,10.28,82.18-9.34,101.47-45.6,9.3-17.48,14.23-37,17.2-56.45a228.23,228.23,0,0,0,3.07-32.79C707.88,357.22,706.21,342.83,704.7,328.49Z" style="fill:#1e78f0"/></g><g id="body-lines"><path d="M629.94,286.27c17.64-16.61,33-19.51,37.69-13.33s-2.75,11.41-14.77,16.89c10.86-5,22.8,2.07,23,14.15" style="fill:none;stroke:#3741f0;stroke-linecap:round;stroke-linejoin:round;stroke-width:6px"/><path d="M678.32,266.84c7.19,8.15,4.11,21.72,17.93,20.63" style="fill:none;stroke:#3741f0;stroke-linecap:round;stroke-linejoin:round;stroke-width:6px"/><path d="M670.89,327.09a10.82,10.82,0,0,1,7.43-3.3" style="fill:none;stroke:#3741f0;stroke-linecap:round;stroke-linejoin:round;stroke-width:6px"/><path d="M179.79,350.13c-1.76-8.26-15.28-30.7-26.79-27.26-8.43,2.52-3.09,11.25-.53,16.18-6.14-2.11-13.2,2.47-13.95,8.61" style="fill:none;stroke:#3741f0;stroke-linecap:round;stroke-linejoin:round;stroke-width:6px"/><path d="M131.09,369.11a8.25,8.25,0,0,1,6.61,2.48" style="fill:none;stroke:#3741f0;stroke-linecap:round;stroke-linejoin:round;stroke-width:6px"/><path d="M134.89,324.17c-1.3,8.43,4,12,11.89,5.33" style="fill:none;stroke:#3741f0;stroke-linecap:round;stroke-linejoin:round;stroke-width:6px"/><path d="M157.82,310.21s-2.45,9-4.82,12.66" style="fill:none;stroke:#3741f0;stroke-linecap:round;stroke-linejoin:round;stroke-width:6px"/><line x1="204.32" y1="915.76" x2="606.33" y2="915.76" style="fill:none;stroke:#3741f0;stroke-linecap:round;stroke-linejoin:round;stroke-width:6px"/><path d="M408.93,269a73.62,73.62,0,0,0-4.35,22.69,59.63,59.63,0,0,0,10.06,1.07" style="fill:none;stroke:#3741f0;stroke-linecap:round;stroke-linejoin:round;stroke-width:6px"/></g></g></g></svg>