<svg xmlns="http://www.w3.org/2000/svg" viewBox="0 0 800 1000"><title>jake-who-knows</title><g id="jake"><g id="who-knows"><g id="body"><path d="M746,276.76c-4.25-4.91-10.38-5.86-16.42-7.53-5.67-1.57-17.06-4.45-17.06-4.45l.91-1.41s19.27,3.15,25.8,2.1c4.67-.75,6.93-5.32,4.07-9.18s-11.85-5.2-21.26-6.3c-7.81-.92-28.43-2.07-38.5-2.92.25-.16.49-.34.74-.49,6.36-4,14.81-5.68,20-11.18,1.85-2,2.15-5.47,0-7.37-7.62-6.76-18.19-3.41-27-.86-9.75,2.82-20.17,6.67-28.65,12.37S636.34,255,633.17,264.45c-2.82,8.37-4.24,17.36-2.06,25.91C635.76,316,640.47,342,643,367.93a140.22,140.22,0,0,1,.76,17.27c-.11,4.4.55,11.05-5.42,10.4-5.67-.62-11.66-3.17-17.08-4.88-5.12-1.62-10.2-3.32-15.27-5.06-21.28-7.28-42.4-15.22-64.37-20.22-22.51-5.13-45.63-6.8-68.64-7.88-8.81-.41-55.51-1-75-1s-61.86.58-71,1c-23,1.08-46.13,2.75-68.64,7.88-22,5-43.09,12.94-64.36,20.22-5.08,1.74-10.16,3.44-15.28,5.06-5.42,1.71-11.41,4.26-17.08,4.88-6,.65-5.31-6-5.42-10.4a140.22,140.22,0,0,1,.76-17.27c2.56-26,7.27-51.9,11.92-77.58,2.18-8.54.76-17.53-2.06-25.9-3.17-9.44-7-19.16-15.51-24.91s-18.9-9.55-28.65-12.37c-8.78-2.55-19.35-5.9-27,.86-2.15,1.9-1.85,5.42,0,7.37,5.21,5.5,13.66,7.19,20,11.18.25.15.49.33.74.49-10.07.85-30.69,2-38.5,2.92-9.41,1.1-18.4,2.45-21.26,6.3s-.6,8.43,4.07,9.18c6.53,1,25.8-2.1,25.8-2.1l.91,1.41s-11.39,2.88-17.06,4.45c-6,1.67-12.17,2.62-16.42,7.53-2.78,3.22.29,7.66,3.82,8.19,7.15,1.08,14-1.13,20.85-2.87l16.59-3.63,1,2.18s-14.42,5.52-17.77,7.31-3.18,8.14.58,9.64,16.32-1.5,21.27-2c3-.29,6.2-.8,9.34-1.2-.38,1.75-.69,3.51-.93,5.3C102.52,321,97.23,343,97.28,365.19c0,23.82-.94,50.71,11.66,71.92,26.6,44.77,89.29,26.21,126.88,12.67,15.75-5.67,31.77-11.62,48.16-15-.08.37-.67,44.74-1,64.5-.45,31.28.24,62.76-.41,94-.35,16.53-1.4,33-1.7,49.56-.3,16-.31,32-.5,48-.38,32.78-2.81,196.75-2.93,196.81-6.88,3.61-24.32,14.1-24.32,19.69s2.77,8.28,12,8.28,77.61.14,87.95.14,13.9-8.83,13.9-18.85,3.6-383.53,3.6-383.53l59.91-1.58s.6,91.62,2.51,137.86c2.27,54.81,1,109.68.94,164.52,0,15.22-.15,82-.15,89.32s2.27,12.26,10.38,12.26h88.39c9.26,0,10.71-9.91,6.17-13.83s-16.26-11.79-16.26-11.79-.7-56.95-.42-71q1-47.73.7-95.47c-.22-63.78-1.57-127.56-2.51-191.34-.45-30.42-2.59-95.55-2.8-97.28,15.88,3.44,31.4,9.2,46.69,14.7,37.58,13.54,100.27,32.1,126.87-12.67,12.6-21.21,11.61-48.1,11.66-71.92,0-22.2-5.1-44.18-11.23-65.52-.23-1.76-.52-3.5-.9-5.23,3.07.39,6.13.88,9.11,1.17,4.95.47,17.51,3.47,21.27,2s3.93-7.85.58-9.64-17.77-7.31-17.77-7.31l1-2.18,16.59,3.63c6.87,1.74,13.7,3.95,20.85,2.87C745.71,284.42,748.78,280,746,276.76Z" style="fill:#1e78f0"/><path d="M375.85,308.16c2.17,10.33,6.85,17.94,15.35,22a19.71,19.71,0,0,0,21.2-2.69c5-4.39,8.86-9.78,10.26-16.63a110.18,110.18,0,0,0,1.57-28.7c-1-9.47-6.13-19.62-10.55-23.92s-11.19-5.6-18.67-3.64-11,4.88-14.31,11a47.89,47.89,0,0,0-4.1,11.08c-8.52,1.84-18.3,5-18.68,14.73S366.89,306.82,375.85,308.16Z" style="fill:#1e78f0"/></g><g id="body-lines"><line x1="216.75" y1="915.76" x2="584.82" y2="915.76" style="fill:none;stroke:#3741f0;stroke-linecap:round;stroke-linejoin:round;stroke-width:6px"/><path d="M407,273.88a88.87,88.87,0,0,1,4.26,27.63,71.22,71.22,0,0,1-12.21.85" style="fill:none;stroke:#3741f0;stroke-linecap:round;stroke-linejoin:round;stroke-width:6px"/></g></g></g></svg>