<svg xmlns="http://www.w3.org/2000/svg" viewBox="0 0 800 1000"><title>jake-juggling</title><g id="jake"><g id="juggling"><g id="body"><path d="M637.48,349.23c-5.11-1.1-8.18,3-10.33,7-2,3.82-4,7.67-6,11.52-.91-.24-2.5-1-3.4-1.17,1.81-6.18,4.8-13.66,7.14-19.36s6-12.08-1.38-13.8c-5.85-1.37-10.65,8.17-13.5,12.86-2.41,4-6.05,10.11-8.46,14.07-.45.75-.92,1.48-1.38,2.21-.72-.13-2.08-.58-2.8-.68.42-1.68,5.58-15,6.45-18.11s2.52-5.66,1-8.74a5.27,5.27,0,0,0-8.68-1c-8,10.4-12.74,21.29-18.34,33.21-1.75-4.34-3.58-8.64-5.54-12.9-2.2-4.79-9.68-2.75-9,2.57l4.18,30.33c.6,4.33,1.12,8.65,2.13,12.81a671.13,671.13,0,0,0-11.53,88.19Q544.73,470,530.44,452.41c-11.08-13.58-22.31-30.22-38.35-38.27-15.59-7.82-46.11-6-68.07-2.08-70.19,12.5-128.19,54-181.79,98.75-1.69-19,1.81-54.93,4.32-74.08,1.49-11.38,8.5-50.39,7.75-60.36a114.25,114.25,0,0,0-6.3-30.62c-3.81-10.75-9.35-24.63-15.49-32.94-2.82-3.81-11.19-2.17-9.67,4.74s4.95,12.66,7.62,21.49l-3.38,1.58c-3.61-10.17-6.33-16.84-10.12-22.82-2.15-3.38-7.69-9.57-12.83-5.33-4.21,3.48-.65,10.76,1.6,14.67,3.64,6.32,8,18.83,8,18.83-.77.41-4.14,1.65-4.14,1.65a109.26,109.26,0,0,0-8.37-18C198.5,325.34,195,320,189,322.43a4.83,4.83,0,0,0-2.68,5.08c.6,5.75,3.78,9.74,5.86,14.72s6.29,17.24,7.09,22.2l-3.24-2c-1.25-1.07-2.54-2.1-3.85-3.14-3.24-2.56-6-5.07-10.18-3.13-2.41,1.12-2.71,4.34-1.67,6.43A198.84,198.84,0,0,0,196,387.74s-6.75,30.59-12.09,53.05-10.14,61.2-10.6,76.3c-.41,13.34-1,27.24,1.46,40.43,2.14,11.37,7,22.55,16.58,29.58s21.77,8.89,33.21,7.38c13.55-1.78,25.74-8.61,36.86-16.18,12.31-8.38,24.17-17.46,36.13-26.33,6.86-5.09,14.27-10.83,20.49-15.4S339.6,522.69,347.26,517c2.47-1.84,5-3.61,7.53-5.21C368.29,563.91,390.39,637,402,689.56c-27.24,80.89-64.75,214-66.69,219s.33,14,6.15,13.93,71,.6,77,.16,11.48-4.64,10.38-8.8-5.38-6.55-8.65-8.38-8.43-5.39-8.43-5.39,3.19-10.15,4.5-14.1l5.24-15.8,20-60.22c8.69-26.22,18.38-52.51,27.07-78.74,1.54-3.54,10.6-30.11,12.81-39.56s.51-18.35-2.17-27.57c-2.89-9.93-6-19.81-9.16-29.65-6.39-19.7-27.67-79.85-32.56-91.27,9.46-2.73,13.88-3.78,23.28-6.71q10.49,8.7,21.47,16.73c12.85,9.38,68.31,54.33,80.69,66.56-29.63,72.47-82.07,178.2-87.11,189.67s1.19,18.39,7.93,20.11,45.07,12.68,71.44,16.73c5.33.82,9.75-3.74,6.32-9.5s-14.68-22-14.68-22c13.17-23.48,30.35-58.37,43.52-81.85,15.22-27.13,31.35-53.93,45.61-81.57,6-11.58,10.8-24.2,10-37.44-.82-13.06-7.86-24.87-16.74-34.13-10-10.47-22.41-18.07-33.77-26.94-.58-.46-1.15-.94-1.72-1.4,23.71-12.18,27.49-41.35,30.23-65.42,0,0,7.86-83.38,9.58-96.4s6-24,8.13-35.19C642.06,351.82,639.83,349.73,637.48,349.23Z" style="fill:#1e78f0"/><path d="M369.33,397c2.7,4.43,6.79,7.14,12.57,10.75s13.72,4.09,23.16-2.78c11.93-8.67,8.67-23.05,3.27-34.63l7.44-5.13a2,2,0,0,0,.5-3.15,87.92,87.92,0,0,0-31.07-19.25,2.17,2.17,0,0,0-.85-.14,27.81,27.81,0,0,0-4.72-1.66c-14.86-3.67-24.12,9.43-23.19,23a56.47,56.47,0,0,0,2.48,12.69c-2.71,1.32-5.69,2.45-7.77,4.76a12.38,12.38,0,0,0,.21,16.2C356.45,403.27,363.34,400.71,369.33,397Z" style="fill:#1e78f0"/></g><g id="object-lines"><path d="M322.79,315.46a383.12,383.12,0,0,1,114.62-17.83" style="fill:none;stroke:#dc8c2d;stroke-linecap:round;stroke-linejoin:round;stroke-width:6px"/><path d="M349.89,140.11c-7.32,7.7-13.47,16.43-19.37,25.26C315.46,188,301.82,211.54,291,236.43" style="fill:none;stroke:#dc8c2d;stroke-linecap:round;stroke-linejoin:round;stroke-width:6px"/><path d="M501.49,152.82c6.46,6.29,11.88,13.55,17.28,20.77l11.79,15.78c5.45,7.29,10.91,14.59,15.76,22.29a215.45,215.45,0,0,1,14.73,28.12,251.55,251.55,0,0,1,10.65,28.5" style="fill:none;stroke:#dc8c2d;stroke-linecap:round;stroke-linejoin:round;stroke-width:6px"/></g><g id="object"><path d="M298.19,312.21c-6.85-.61-16.95,2.37-21.69,9.6-5,7.63,1.79,16.9,10.05,18,7.06.95,17.71-4,20.21-11.07C308.51,323.83,305,312.83,298.19,312.21Z" style="fill:#f0b441"/><path d="M393.36,106.44a11.68,11.68,0,0,0-12-6.34,8.1,8.1,0,0,0-1.89.53c-6.71.88-13.42,6.49-15.57,12.46-3.64,10.16,5,20.16,15.53,17C387.9,127.52,397.65,115.47,393.36,106.44Z" style="fill:#f0b441"/><path d="M575.35,282.82a16,16,0,0,0-7.72,13.38,16.38,16.38,0,0,0,.42,4.22,11.93,11.93,0,0,0,.06,2.53c.7,5.26,5.28,9,10.08,10.65,11,3.79,19.26-8.53,18.84-18.3C596.54,284.31,585.26,277.16,575.35,282.82Z" style="fill:#f0b441"/></g><g id="body-lines"><path d="M492.77,465.07C523.41,491.53,561.39,523,593,548.27" style="fill:none;stroke:#3741f0;stroke-linecap:round;stroke-linejoin:round;stroke-width:6px"/><line x1="220.73" y1="922.17" x2="595.16" y2="922.17" style="fill:none;stroke:#3741f0;stroke-linecap:round;stroke-linejoin:round;stroke-width:6px"/></g></g></g></svg>