<svg xmlns="http://www.w3.org/2000/svg" viewBox="0 0 800 1000"><title>jake-coffee</title><g id="jake"><g id="coffee"><g id="body"><path d="M633.68,403.51C621,374.76,602,348.36,577.18,328.88c-11.94-9.39-25.76-18.47-40.95-20.77l-.07,0a186.56,186.56,0,0,0-21.33-2.85,89.36,89.36,0,0,0-12.28.22,9.07,9.07,0,0,0-7.2,4.5,6.2,6.2,0,0,0,.85,6.44,6.13,6.13,0,0,0-4.5,5.5c-.69,6.47,9.72,21.1,14.19,26l.05,0c5.09,6.11,11.22,11.62,16.52,17.1,8.54,8.82,17.08,17.66,25,27.07,11.19,13.3,23.77,32,29.12,48.48-21.13-20.8-57.62-44.91-89.68-59.73-20.71-9.57-46.09-17.31-68.44-21.8-22.68-4.57-77.07-6.65-100.35-2.45s-47.92,14.5-64.34,35c-16.64,20.77-26.32,46-30.62,72.11-2.47,15-3.54,30.22-4.86,45.36-1.36,15.6-2.68,31.21-3.79,46.83C212,591,213.11,672,213.21,675.92c.25,8.86.18,18.13,3.36,26.54,2.58,6.86,7.35,13.15,14,16.45,7.94,3.92,16.1,1.9,24.22-.31,4.25-1.16,8.81-2,12.93-3.76q.5,42.75,1.25,85.48c.48,27.06,1.06,53.13,1.7,80.18-5.85,5.23-12.78,11-17.95,16.21s-6.44,13.11,5.27,13.11h84.17c5.66,0,12.33-6.52,12.33-13.19s0-94.79-.72-144.66-.31-100.1,1.69-150c.94-23.31,1.87-44.63,2.8-67.94,5.79.07,14.6-1.31,20-.9a123.93,123.93,0,0,1,13.3,1.82l4.35,279.29c.44,28.25,1.31,75.83,1.31,82.75s2.82,12.86,10,12.86h89.12c6.78,0,10.24-7.74,5.35-13-3.44-3.72-13.6-11.23-19.38-16.51-3.59-113.83-3.51-224.49-1.6-338.36q.51-30.63,1.3-61.27a241.48,241.48,0,0,1,29,10.44c11.66,4.94,25.4,11.92,36.85,17.33,10.89,5.14,22.43,11.34,34.17,14.36a50.93,50.93,0,0,0,61.53-34C652.82,457.1,644.74,428.67,633.68,403.51ZM513.62,319.22a21.13,21.13,0,0,1,8.25,4.1,13.23,13.23,0,0,0-3.47,2.49,10.9,10.9,0,0,0-3,5.51l-.48-.28a28.73,28.73,0,0,1-11.47-10.35,6,6,0,0,0-.92-2.15C506.19,318.6,510.05,318.49,513.62,319.22Z" style="fill:#1e78f0"/><path d="M391.44,310.33c0-5,.33-8.33,6-8.55l5.41-.19a84.08,84.08,0,0,0,.92-9.12l8.82-2.45a4,4,0,0,0,2.77-4.88c-4.15-13.33-9.74-27.86-20.71-35.95a21.93,21.93,0,0,0-4-3.47c-8.18-5.48-19.7-4.59-27.79.61-10.79,6.93-16,18.95-17.35,31.81-9.88-1.35-21,2.35-21.84,13.17a11.68,11.68,0,0,0,10.09,12.56c4.28.69,8.68-.35,12.94-1.72,1.24,8.05,3.83,15.94,9.12,22.11,6.62,7.71,17.14,10.93,26.71,7.15a28.39,28.39,0,0,0,11.16-7.85A59.39,59.39,0,0,1,391.44,310.33Z" style="fill:#1e78f0"/></g><g id="body-lines"><path d="M537.23,319.81a23.81,23.81,0,0,0-15.7,2.6" style="fill:none;stroke:#3741f0;stroke-linecap:round;stroke-linejoin:round;stroke-width:6px"/><path d="M534.23,328.73A35.12,35.12,0,0,0,521.4,331c-4.3,1.63-8.58,4.47-9.94,8.87a11.94,11.94,0,0,0,0,6.52c1.23,4.73,5.88,10,9.15,10a5.64,5.64,0,0,0,5.9-5.11c.16-2.45-.16-7.06-2.06-8.62" style="fill:none;stroke:#3741f0;stroke-linecap:round;stroke-linejoin:round;stroke-width:6px"/><path d="M527.8,344.76a35.76,35.76,0,0,0,1.19,8.75,14.07,14.07,0,0,0,4.72,7.31,18.92,18.92,0,0,0,5.95,2.72" style="fill:none;stroke:#3741f0;stroke-linecap:round;stroke-linejoin:round;stroke-width:6px"/><path d="M238.19,713.07a11.63,11.63,0,0,0,8.53,5.72" style="fill:none;stroke:#3741f0;stroke-linecap:round;stroke-linejoin:round;stroke-width:6px"/><path d="M253.77,708.41a9.71,9.71,0,0,0,7.48,4.67" style="fill:none;stroke:#3741f0;stroke-linecap:round;stroke-linejoin:round;stroke-width:6px"/><path d="M269.41,716.23c10.47-3.63,10.53-9.67,10.7-13.4s-.95-7.37-2-10.93L276,685.09" style="fill:none;stroke:#3741f0;stroke-linecap:round;stroke-linejoin:round;stroke-width:6px"/><path d="M294.46,446.57c-14,53.12-14.78,108.73-14.55,163.66q.12,29.29.58,58.61a34,34,0,0,1,6.23,8.67A14.89,14.89,0,0,1,288.11,688c-1,3.48-3.88,6.52-7.46,7" style="fill:none;stroke:#3741f0;stroke-linecap:round;stroke-linejoin:round;stroke-width:6px"/><line x1="566.01" y1="909.82" x2="221.25" y2="909.82" style="fill:none;stroke:#3741f0;stroke-linecap:round;stroke-linejoin:round;stroke-width:6px"/></g><path id="object" d="M501.83,318.52a2.78,2.78,0,0,1,0,1.15,5.06,5.06,0,0,1-3.21,2.87,21.54,21.54,0,0,1-6.83.88c-6.67.17-15.87.18-23.26.14a55.27,55.27,0,0,0,.77-9.81c6.7-.21,14.24-.41,18.71-.43h1.1a45.34,45.34,0,0,1,5.81.21,6.23,6.23,0,0,1,.46-3.56,8.65,8.65,0,0,1,4-3.65,34.7,34.7,0,0,0-10.34-1H488c-4.77,0-12.75.23-19.64.45a6.42,6.42,0,0,0-5.79-3.8q-32.53-1.49-65.1-.19c-5.65.22-6,3.58-6,8.55s3,22,10.23,29.49c7.47,7.67,18.49,9.59,28.73,10.17,10.44.6,22-.81,29.71-8.59a28.48,28.48,0,0,0,6.19-9.85c2.63,0,5.58,0,8.62,0,5.9,0,12.14,0,17-.16a29,29,0,0,0,9.4-1.38,12.82,12.82,0,0,0,8.14-8.21,10.1,10.1,0,0,0,.38-3.1C507.21,318.54,504.47,318.58,501.83,318.52Z" style="fill:#f0b441"/></g></g></svg>