<svg xmlns="http://www.w3.org/2000/svg" viewBox="0 0 800 1000"><title>jake-phone-pose</title><g id="jake"><g id="phone-pose"><g id="body"><path d="M469.41,449c-5.42-64.65-91.54-76.88-141.06-82.7-47-5.52-94.13-1.91-139.68,8.64-22.26,5.16-47.67,14-60.12,34.67-14.79,24.59-3.19,57.27,20.42,71.68,18.23,11.13,41.9,11.67,63.64,7.39-8.59,10.63-40.24,44.83-59.25,67.81-19.27,23.28-36.17,53.22-31.64,84.6,1.9,13.19,9.24,27.22,20.19,34.8s37.83,25.42,56.39,35.54c8.6,4.68,17.13,9.4,25.73,14-9.45,28.28-18.71,56.63-28.5,84.79-6.86,19.77-25.32,69.46-25.32,69.46a217.29,217.29,0,0,0-20.16,17.78c-5.14,5-5,14.82,3.65,15.51s82.3.84,86.73-.76,24.25-50.83,34.11-75.64Q289.08,800,302.39,763c21.93,10.12,42,19.35,42,19.35s10.6,16,13.56,22.91,16.12,9.35,16.12-3,1.17-63.69,1.17-72.1-.27-12.69-2.79-17.38-12.42-11.9-22.3-16.52c-4.47-2.1-11.71-5.67-20.43-10,1.47-4.1,2.94-8.21,4.42-12.3,9.61-26.45,25.64-63.1,33.79-90,4.49-14.88,8.27-35.54,8.27-51.75,0-7.45,0-17.32-.05-25.82,13.5,3.55,27.4,5.17,42,3.14C449.41,505.1,472.15,481.55,469.41,449ZM236.07,638.28c-10-5.22-18.39-11.55-18.4-20.11s21.74-39.28,31.8-53.32c6-8.39,22.63-27.64,30.74-35.92l11.55,5.24c-4.38,12.19-27.27,75.92-40.25,112.1Z" style="fill:#1e78f0"/><path d="M310.27,340.07c12.53,0,18.35-11.93,21.3-23.58,6.37-.09,12.41-2.2,14.77-8.43,3.7-9.73-5.52-16.32-14.59-16.63-1.06-14.65-9.07-20.24-17.39-21.57s-15.06,3.25-18.56,8.94-5,12-5.82,17.5c-1,6.39-1.08,18.21-.18,26.32S297.74,340.07,310.27,340.07Z" style="fill:#1e78f0"/></g><path id="object" d="M689.91,470.12c0-52.89.49-106.07-9-121s-24.5-15-48.3-16.87c-17.56-1.37-35.22-1.91-52.82-2.61-45.47-1.81-104.6-2.93-134.63-2.93s-40.64-3.34-56,11.22c-10.11,9.58-12.32,20.81-12.76,35.85,43.66,9.41,89.11,28.81,93,75.2,2.74,32.6-20,56.15-51.22,60.49-14.63,2-28.55.4-42.07-3.15,0,22.9.18,45.76.51,65.11,1.44,85.69-2.69,171.39-2.5,257.06,0,16.68-.86,34.11,4.59,50.15C393.1,921,438.55,914,472.73,914s81.18-.65,120.73-.34c46.76.37,74.68,4,86-16.63S691,852.94,691,784.76,689.91,523,689.91,470.12Z" style="fill:#f0b441"/><g id="object-lines"><path d="M477.8,661.89c27.26,26,52.16,54.49,77.36,82.44" style="fill:none;stroke:#dc8c2d;stroke-linecap:round;stroke-linejoin:round;stroke-width:6px"/><path d="M460,550.29c50.22,45.33,96.27,93.43,143.32,142" style="fill:none;stroke:#dc8c2d;stroke-linecap:round;stroke-linejoin:round;stroke-width:6px"/><path d="M500.63,511c22.69,18.28,42.88,39.32,66,57.07" style="fill:none;stroke:#dc8c2d;stroke-linecap:round;stroke-linejoin:round;stroke-width:6px"/><path d="M460.84,339.28c.61,18.43,11.7,22.76,26.09,24.42,15,1.73,88.67,3.63,107.71.35,11.65-2,17.12-10.32,17.12-21.5" style="fill:none;stroke:#dc8c2d;stroke-linecap:round;stroke-linejoin:round;stroke-width:6px"/><path d="M566.77,348.66l-.14,3.8" style="fill:none;stroke:#dc8c2d;stroke-linecap:round;stroke-linejoin:round;stroke-width:6px"/><path d="M579,348.66l-.14,3.8" style="fill:none;stroke:#dc8c2d;stroke-linecap:round;stroke-linejoin:round;stroke-width:6px"/><path d="M389.63,517.11c.05,19.85.18,39.41.45,56.2,1.32,82.34-2.46,164.68-2.28,247,0,16-.79,32.78,4.19,48.19,13.14,40.69,54.67,34,85.9,34s74.18-.62,110.31-.32c42.73.35,68.24,3.84,78.56-16s10.59-42.34,10.59-107.85-1-251.51-1-302.32.46-101.92-8.19-116.29S645.76,345.28,624,343.5c-16-1.31-32.19-1.83-48.27-2.51-41.54-1.74-95.57-2.81-123-2.81S415.6,335,401.54,349c-6.31,6.29-9.26,13.33-10.62,21.77" style="fill:none;stroke:#dc8c2d;stroke-linecap:round;stroke-linejoin:round;stroke-width:6px"/></g><g id="body-lines"><path d="M405.52,459.12c-2.27-12.58-10-23.3-16.3-29.19-7.57-7-16.29-10.23-25.59-13.9-24-9.46-58.33-5.95-83.59-2-15.45,2.39-21.43,3.95-31.25,8.36S215.72,457,207.65,453.78s4.1-16.77,13.22-24.43c-15.23,8.38-25.67,28.92-32.16,23.5s6.77-17.64,16.15-25.18c-13.81,11.62-26.11,20-29.71,17.23s-.39-7.54,2.69-11.46c8-10.14,23.79-19.43,31.67-23.05,22.72-10.45,52-.84,68.91,3.85" style="fill:none;stroke:#3741f0;stroke-linecap:round;stroke-linejoin:round;stroke-width:6px"/><path d="M401.44,446.74c-38.41-22.18-90.16,3.84-127.66,21.07-28.6,13.15-46.42,20.35-60.4,22.38" style="fill:none;stroke:#3741f0;stroke-linecap:round;stroke-linejoin:round;stroke-width:6px"/><path d="M195.06,410.26c1.73,2.48,3.21,5.09,3.21,5.09" style="fill:none;stroke:#3741f0;stroke-linecap:round;stroke-linejoin:round;stroke-width:6px"/><line x1="139.66" y1="914.41" x2="682.73" y2="914.41" style="fill:none;stroke:#3741f0;stroke-linecap:round;stroke-linejoin:round;stroke-width:6px"/><path d="M375.26,508.27c-44.32-13.88-62.26-27.83-102.48-38.86" style="fill:none;stroke:#3741f0;stroke-linecap:round;stroke-linejoin:round;stroke-width:6px"/><path d="M251.51,646.27c-3.29,9.17-5.94,16.57-7.49,20.91-6.57,18.36-12.85,36.84-19,55.35" style="fill:none;stroke:#3741f0;stroke-linecap:round;stroke-linejoin:round;stroke-width:6px"/><path d="M303.18,760.85c.6-1.67,18.22-51.45,26.54-74.63" style="fill:none;stroke:#3741f0;stroke-linecap:round;stroke-linejoin:round;stroke-width:6px"/><path d="M302.55,289.47a69.72,69.72,0,0,0-4,24.31,80.33,80.33,0,0,0,12.22.48" style="fill:none;stroke:#3741f0;stroke-linecap:round;stroke-linejoin:round;stroke-width:6px"/></g></g></g></svg>