<svg xmlns="http://www.w3.org/2000/svg" viewBox="0 0 800 1000"><title>jake-pencil</title><g id="jake"><g id="pencil"><g id="object2"><path d="M459.46,207.88c-31.49,13.86-65.08,30.88-97.36,61.24a3,3,0,0,0-.61,3.54c3.18,6.28,9.36,18.74,15.33,30.78,4.79,9.65,9.31,18.77,11.66,23.43a3,3,0,0,1,.67-3.57c.94-.85,23.05-20.82,35.21-30.07.5-.38,55.46-37.71,66.55-35.58a4.48,4.48,0,0,1,3.07,2.06c-11.07-19-30.57-50.35-30.77-50.67A3,3,0,0,0,459.46,207.88Z" style="fill:#dc8c2d"/><path d="M771.49,848.19c-.49.21-1,.45-1.43.69-5.34,2.72-11.08,4.7-16.19,7.85-4.77,2.94-8.89,6.82-13,10.67L731,876.76c-2,1.9-5.62,5.15-6.7,8.44a336.26,336.26,0,0,0,29.91,21.7,11.43,11.43,0,0,0,11.24.59,11.33,11.33,0,0,0,6.27-9.25A322.39,322.39,0,0,0,771.49,848.19Z" style="fill:#dc8c2d"/></g><g id="object"><path d="M459.46,207.88a3,3,0,0,1,3.73,1.14,0,0,0,0,0,0,0c-11-16.92-17.06-24.38-19.34-27.19-7.61-9.38-19.06-14.4-29.84-13.1-9.33,1.12-20.9,3.42-40.26,16.67-18.9,12.93-24.93,20.45-26.88,33.53-1.27,8.56-.11,18.48,3.28,27.93a240.8,240.8,0,0,0,11.36,25.85h0v0a3,3,0,0,1,.61-3.54C394.38,238.76,428,221.74,459.46,207.88Z" style="fill:#f0b441"/><path d="M731,876.76l9.91-9.36c4.07-3.85,8.19-7.73,13-10.67,5.11-3.15,10.85-5.13,16.19-7.85.47-.24.94-.48,1.43-.69-2.36-31.78-8.23-65.49-14.62-98.23h0v0s0,0,0,0-.05-.22-.08-.33c-.12-.34-2.79-8.37-4.57-12.07C686.7,601.9,578.11,401,494,259.71a4.46,4.46,0,0,0-3.07-2.06c-11.09-2.13-66.05,35.2-66.55,35.58-12.16,9.25-34.27,29.22-35.21,30.07a3,3,0,0,0-.66,3.58s34.82,69,47.32,93.79c10.81,21.41,29.67,53.5,46.31,81.82,10.3,17.52,20,34.08,27.08,46.75C526.31,580,547.69,619.36,570.31,661,599.69,715.15,633,776.48,661.7,827.58a.43.43,0,0,1,0,.07l.2.28c.06.07.11.15.17.21a.42.42,0,0,1,.06.08c16.94,17.17,39.35,38.68,62.13,57C725.38,881.91,729,878.66,731,876.76Z" style="fill:#f0b441"/></g><g id="object-lines"><path d="M430.33,293.84c73.42,141,192.59,361.77,271.65,499.77" style="fill:none;stroke:#dc8c2d;stroke-linecap:round;stroke-linejoin:round;stroke-width:6px"/><path d="M663.4,826.08c32.22-21.49,64.88-43.36,90.09-72.77" style="fill:none;stroke:#dc8c2d;stroke-linecap:round;stroke-linejoin:round;stroke-width:6px"/></g><g id="body"><path d="M323.1,301.93c-.43,5.84,1.55,11,4.48,18.11s9.91,12.76,23.07,12.65c16.31-.14,22.83-14.87,25.56-28.8l7.31.41c1.72.09,3.06-1.07,2.83-2.65a106.32,106.32,0,0,0-11.53-34.81,32.1,32.1,0,0,0-5.55-9.52C358,244.19,341,250.15,332.91,263.2a63.56,63.56,0,0,0-6.05,13.27c-3.34-.57-6.82-1.49-10.24-.73a14,14,0,0,0-10.44,15C307.14,299.26,315.15,301.43,323.1,301.93Z" style="fill:#1e78f0"/><path d="M558.66,419.05a151.59,151.59,0,0,0-22.25-.11c-.39-1.21-.8-2.4-1.22-3.6,9.66-2.13,20.34-1.32,29.89-.79,3.29.19,6.73-2,7-5.53,1-13.9-18.7-13.08-28.13-13.37a152.18,152.18,0,0,0-19.1.56l-1.85.17a6,6,0,0,0-.85,0q-3.12.18-6.21.45c2.18-3.91,4.54-8.57,5.65-10.7,1.75-3.36,2.07-6.5,0-8.74-1.72-2.95-4.35-3.62-8.17-2.37-5.87,1.92-11.22,8.46-15.35,12.86a135.14,135.14,0,0,0-10.84,13.17,269.12,269.12,0,0,0-52.72,17l-32.72-64.85c-2.71-.27-5.46-.43-8.33-.47l-7.13-.1c-15.22-1.16-34.49-1.52-44.63-1.4-12.14.14-33.35.68-45.47,1.67l-1.09.11q-12.64.75-25.23,2.26c-7.52.91-15.86,1.78-22.93,4.95l-.22.09a18.29,18.29,0,0,0-5,2.86,24.59,24.59,0,0,0-4.84,4.58c-7.71,9.64-8.94,23.11-7.19,35h0a87.4,87.4,0,0,0,5,23.74c-2.43,13.26-5.85,32.42-9.25,52.36-5.31,26.28-24.13,135.5-25.87,144.75S191.17,640.4,184.48,647c-4.49,4.4-95.95,65.41-144.84,96.72a5.87,5.87,0,0,0-2.54,3.16,6.52,6.52,0,0,0-.05,6.58c13.68,27.07,21.16,48.39,36.4,73.28.9,1.48,5.43,7.71,6.42,8.39,2.41,1.66,4.91,1.61,7.58.63s3.73-4.29,3.49-6.87a49.8,49.8,0,0,1-.13-6.51C121.9,799.54,162.11,776.53,184,762c44.2-29.4,73.82-49.68,88.79-70.52,7.44-10.37,14.87-35.4,19.41-72,2.63-21.21,6.74-59.19,9.95-89.68l.87.2c7,17.14,13.93,34.16,18.87,46.78,9.22,23.58,27.92,71.07,29.55,80.35s2.91,30.6,3,40c.06,6.29.76,120.22-3.22,210.3a5.34,5.34,0,0,0,1.38,3.8,6.19,6.19,0,0,0,5.6,3.46c29.11.52,52.5.71,81.67-.3,1.73-.06,9.38-.93,10.46-1.46,2.63-1.28,3.82-3.48,4.28-6.29s-1.89-5.35-4.26-6.42a51.05,51.05,0,0,1-5.73-3.08s1.39-77.06,2.08-103.34c1.41-53.07-2.15-129.59-7.63-154.66a631.05,631.05,0,0,0-19.43-72.22c-4.24-12.74-10.31-28.15-16.54-43.13a229,229,0,0,1,31.76-21.4c3.58-2,7.11-4,10.63-5.8A66.39,66.39,0,0,0,457,511.89c11.77,11.68,26.68,16.92,42.29,19.87-5.23-9-11.07-19-17.12-29.27-3.45-5.87-7-11.9-10.54-18,19-7.64,38.46-12.92,60.55-16.88a6.6,6.6,0,0,0,1.71-.56l.39-.06q8.4-.78,16.85-1.07c7.34-.26,22.81,2.61,24.22-8.18,1.5-11.34-13.57-11.33-21-11.48-4.38-.09-8.76,0-13.14.13q0-3.27-.23-6.54c11.26-.85,23.59-.87,30.41-1,6.34-.12,12.19-2,12.09-8.83C583.28,419.92,565.71,419.65,558.66,419.05Zm-156.29,2.79c2,2.54,4.14,5.59,6.26,8.87q-8.53,4.6-16.9,9.64c1.15-8.12,1.94-16.5,3.4-24.66A23.2,23.2,0,0,1,402.37,421.84Z" style="fill:#1e78f0"/><path d="M672.49,552.05c.3-5,.47-9.81-2.2-14.4-2.56-4.41-6.4-6-10.53-4.6-.33-8-4.06-14.35-12-19.36-3.27-2.07-9-2.15-10.88.18l5.92,10.83c.62,4.93-.22,11-3.46,14.89-3,3.59-6.71,6.1-7.91,10.87-1.06,4.2.22,8.94,3.85,11.46,4.33,3,8.72.62,12.42-2.18a30.94,30.94,0,0,0,7.76-8.62,14.88,14.88,0,0,1-.9,2.4c-1.59,3.28-4.46,5.46-6.8,8.16-4.65,5.36-6.95,12.32-3.11,18.82a6.12,6.12,0,0,0,8.21,2.15,37.43,37.43,0,0,0,10.91-8.85,46.89,46.89,0,0,0-1.87,7.19A17.4,17.4,0,0,0,664,592.32c1.17,2.09,4.39,3.73,6.77,2.76,9.57-3.9,12.84-12.75,12.9-22.58C683.72,563.94,680.89,555.21,672.49,552.05Z" style="fill:#1e78f0"/><path d="M644.06,488.07c-3.24-7.9-14.34-6.56-19.67-1.89a6.94,6.94,0,0,0-1.34,1.58q4.55,8.37,9.07,16.75C638.21,501.65,647.08,495.42,644.06,488.07Z" style="fill:#1e78f0"/></g><g id="body-lines"><line x1="763.81" y1="915.17" x2="249.65" y2="915.17" style="fill:none;stroke:#3741f0;stroke-linecap:round;stroke-linejoin:round;stroke-width:6px"/><path d="M319.64,414.21c13.38,18.25,24.8,33.13,38.5,45.6,21.24-13.55,50.18-31,72.71-42.27" style="fill:none;stroke:#3741f0;stroke-linecap:round;stroke-linejoin:round;stroke-width:6px"/><path d="M235.9,428.67c13.25,24.36,35.67,52.16,44.59,60.56,20.85,19.64,35.82,32.29,59.73,48.06,7.85,5.17,23.75,10.29,34.34,7.93,14-3.1,27.81-16.8,27.81-16.8" style="fill:none;stroke:#3741f0;stroke-linecap:round;stroke-linejoin:round;stroke-width:6px"/></g></g></g></svg>