<svg xmlns="http://www.w3.org/2000/svg" viewBox="0 0 800 1000"><title>jake-phone-sign-out</title><g id="jake"><g id="phone-sign-out"><path id="object" d="M416.41,827.42c.19-85.67-3.94-171.37-2.5-257.06,1-59.05.27-150.77.27-177s1.46-43-12.81-56.53c-15.39-14.56-27-13.26-57-14.22s-82.28.2-127.63,3.93c-17.55,1.44-41.26,3.24-58.82,4.61-23.8,1.86-38.84,1.92-48.3,16.87s-9,68.15-9,121-1.11,246.46-1.11,314.64.29,91.61,11.59,112.24,39.21,17,86,16.63c39.54-.31,86.54.34,120.72.34s79.63,7,94-35.36C417.27,861.53,416.37,844.1,416.41,827.42Z" style="fill:#f0b441"/><g id="body"><path d="M269.52,386.56c5.91,3.7,14.28,3.53,21,3.27a81.21,81.21,0,0,0,15.74-2.29c.26,1.4.56,2.8.94,4.2a1.86,1.86,0,0,0,2.64,1.33c8.32-4.15,15.8-9.19,22-16A20.62,20.62,0,0,0,336.5,372c3.05-4.82,2.53-11.51-2.6-14.62s-12.39-2.51-18.13-1.6c-1.72.27-3.42.61-5.12,1l-1.08-.2C308.73,352,307,347.46,303,345c-3.66-2.26-8.27-1.69-11.76.6a15.1,15.1,0,0,0-6.68,10.14,11.46,11.46,0,0,0,.15,4.15c-5.58,1.93-11,4.76-14.71,9C265.4,374.1,262.35,382.07,269.52,386.56Z" style="fill:#1e78f0"/><path d="M717.88,451.17c-1.78-7.31-14.09-4.87-25.34-2.42-7.88,1.72-17.9,4.21-26.17,5.55l-.46-2.24c11.37-3.61,13-3.9,24.94-7.16,4.14-1.13,12.31-4.09,10.75-10.45s-13-6.26-21.2-4.77c-5.46,1-20.57,3.28-35.38,6.27,5.3-11.34,10.8-16.44,10.64-20.47s-3.28-6.49-8.71-5.26c-5.13,1.17-22.85,18.67-37,37-22.4,4.31-44.65,9.56-67.23,12.8-17.42,2.5-35.11,4.13-52.58,6.33A156.36,156.36,0,0,1,436,463.54c-36.44-8.15-70.34-23.8-104.22-39s-68-29.73-100.57-47.56c-20-11-44.45-25.38-68.34-25.14-13.83,15-11.76,47.15-11.9,63.45-.24,27.17-.79,54.36-1.33,81.53-5.52,2.12-15.25-3.92-18.67-5-4.28-1.31-8.35-1.29-10.48,4s1.59,9.6,9,13.43c3.72,1.92,11,5.89,16.82,6.41l-.14,3c-9.75-.57-16-3.15-21.48-4.72s-13-3.66-15.72,2.33-.08,10.29,4.51,12.33c7.16,3.18,22.44,7.46,32.69,9.86l-.17,4.41c-4.37.52-9.1-.31-14-1.45s-12.81-4.25-17.7-3-6.51,6.53-3.69,12.1c2.68,5.27,8.2,6.9,13.46,8.58a66.14,66.14,0,0,0,24.4,3.28q-.12,9.8-.2,19.58c-.18,25.49-.63,51-1.11,76.54,9.66-4,16-13.49,22.15-22.08,6.63-9.23,33.09-57.53,35.88-61.8,31.69,6.55,84.72,25.69,113.5,35,15.57,5,61.69,21,76,25.7,13.23,4.34,33.36,12,43.73,22,9.93,9.58,21.8,24.17,28.37,36.08,15.86,28.77,28.7,53.35,43.65,82.62,6.63,13,13.94,26.94,21.2,39.6,7.09,12.36,13.83,28.13,16.74,32.41s3.92,5.73,8.82,6.19,8.53-1.17,16-5.35S632.4,818.92,636.75,816s-.25-7.79-5.37-8.42-20.81-3.9-20.81-3.9S594.15,772.54,581,746.93s-32-61.46-42.87-79.89c-11.81-20-27.74-47.55-37.65-58.46s-24-23.93-39.52-32.27-47.23-21.51-76.22-31.76-72.48-23.68-102.59-35.92c1.5-4.05,4-8.1,5.62-11.26,1.86-3.65,3.9-7.36,5.58-11.2,34.49,14.15,119.72,39.24,137.06,43.14s51.74,4.14,69.57,3.34c17.48-.77,34.86-3.51,52.08-6.44,17-2.9,33.9-6.35,50.59-10.69,7.41-1.92,15-3.87,22.51-6.13l.11,0c11.85-2.83,37-11.08,43.75-13.22,7.26-2.3,14.44-4.79,21.66-7.23,5.43-1.83,14.56-5.81,16-9.69s1.09-7-3.9-8.51-22,2.54-31.8,4.77l-.62-2.38c7.48-2.69,19.28-4.77,30.61-8.13S719.66,458.47,717.88,451.17Z" style="fill:#1e78f0"/></g><g id="body-lines"><line x1="93.86" y1="914.41" x2="419.47" y2="914.41" style="fill:none;stroke:#3741f0;stroke-linecap:round;stroke-linejoin:round;stroke-width:6px"/><path d="M153.19,564.45c7.13.31,11-3.84,16.29-8.67a50.45,50.45,0,0,0,12-17.53,47.34,47.34,0,0,0,4-19.86c-.14-6.31-2.67-18.46-7.2-28s-10.43-21.28-22.92-34.63" style="fill:none;stroke:#3741f0;stroke-linecap:round;stroke-linejoin:round;stroke-width:6px"/><path d="M167.18,558.72c-.71,17.71-4,32-13.78,32.16" style="fill:none;stroke:#3741f0;stroke-linecap:round;stroke-linejoin:round;stroke-width:6px"/></g><g id="object-lines"><path d="M214,767.23c27.6,15.44,51.05,36,77.91,52.19" style="fill:none;stroke:#dc8c2d;stroke-linecap:round;stroke-linejoin:round;stroke-width:6px"/><path d="M218.61,671.42C266.31,701.5,310.26,739,359,767.05" style="fill:none;stroke:#dc8c2d;stroke-linecap:round;stroke-linejoin:round;stroke-width:6px"/><path d="M265.13,630.55c17.33,13.93,35.22,27.94,56.76,33.71" style="fill:none;stroke:#dc8c2d;stroke-linecap:round;stroke-linejoin:round;stroke-width:6px"/><path d="M148.47,565c-.06,5-.1,11.93-.14,16.9-.42,58.73-2.23,117.64-2.74,176.48-.3,33.85-1.72,69.47,1.45,103.15,1.8,19.16,3.83,34.39,28.5,36.26,25.36,1.92,66.51,0,102,0s76.62-1.78,93.51-4.32" style="fill:none;stroke:#dc8c2d;stroke-linecap:round;stroke-linejoin:round;stroke-width:6px"/><path d="M377.05,340.76c-69.62-6.42-187.33-.91-203.87,4.38-25.11,8-22,50.56-22.19,70.11-.23,25.91-.74,52.83-1.25,78.74" style="fill:none;stroke:#dc8c2d;stroke-linecap:round;stroke-linejoin:round;stroke-width:6px"/></g></g></g></svg>