<svg xmlns="http://www.w3.org/2000/svg" viewBox="0 0 800 1000"><title>jake-watch</title><g id="jake"><g id="watch"><g id="body"><path d="M368.25,291.57c.61,6.05,3.57,11,7.86,17.71S388.54,320.53,402,318c17.06-3.16,20.84-20.13,20.94-35.15.1-15.23-3-35-15.53-45.29-13.85-11.39-30.25-2.21-36.12,12.59a66.31,66.31,0,0,0-3.78,14.66c-3.53,0-7.25-.29-10.61,1.11a14.5,14.5,0,0,0-8,17.23C351.45,291.73,360,292.5,368.25,291.57Z" style="fill:#1e78f0"/><path d="M616.78,619.55c0-19.71-1.39-51.54-2.48-71.21-1.07-19.24-5-74.78-9.11-92.32-4.24-17.95-9.77-37-18.71-53.17-13.81-25-33.44-48-60-59.78-12.12-5.37-26.6-9.79-40.22-10.82s-49.45-3.29-75.37-.37c-12,1.36-72.45,7.78-88.44,12.27-30.72,8.65-62.1,22.57-88,41.35-23.71,17.2-44.82,39.42-55.36,67.17-9.87,26-12,56,4.37,79.73a74.49,74.49,0,0,0,31.17,26.14c12,5.27,35,6.79,51.53,4.81a198,198,0,0,0,32.32-6.83c1.18,18.86,1.88,50.32,1.7,65.59-.66,10.4-1.33,20.8-1.89,31.21-1.5,27.48-1.38,54.88-1.49,82.39-.11,27.33-.74,54.67-2.66,81.94-.93,13.3-2.61,56.74-3.2,65.75A46.4,46.4,0,0,0,277.42,893c-3.69,4.16-1.71,10.61,4.12,11.13,29,2.56,79.64,1.25,86.75,1.25s7.07-4.89,7.11-9.61c0-.35,0-.82,0-1.38l0,.07,0-.14v0c0-6.94-.18-28.28.09-35.72s.63-15,.76-22.47c.14-8.23,1-31.74,1.08-40,.19-30.13,1.13-44.6,3.71-74.51,2.62-30.46,1.47-61.12,2.11-91.68.7-33.49,2-67,3.34-100.45,14.78-.1,29.57-2.18,44.38-2,7.05.06,14.92.39,22.32-.77.24,15,3.6,30.11,5.29,45.14,1.45,12.85,1.41,25.78,3.1,38.64,1.78,13.56,4.26,27.05,5.51,40.68s.81,27.53,1.22,41.27c.42,14,1.11,28,1.85,42,1.49,28,3.23,56,3.63,84.07.22,15.41.53,41.36.53,56.57s-.82,29.61,3.89,29.75c15.23.46,39.3-7.05,54.16-10.28,12.42-2.7,25.26-4.1,37-9.31,6.81-3,3.29-11.3-3.75-12.17-2.57-.31-14.28-4.79-14.31-4.9-1-10.76-1.63-19.67-2.12-46.36-.53-28.62-.63-70-3.22-98.48S541.64,610.82,540.18,597c-.41-3.88-.77-7.76-1.11-11.65-.69-11-1.39-21.78-1.9-31.79Q535.33,516.81,536,480c0-3.27.1-6.53.16-9.8a85.89,85.89,0,0,1,5.26,23.91c1.47,22,10.83,96.38,12.09,118.61.82,14.35,2.51,36.83,3.56,52.14-3.95,4.91-6.74,10.61-6.12,17.21s5.05,12.28,11.18,13.68a23.05,23.05,0,0,0,5.64,8.26c8.07,7.52,20.65,9.25,31.08,6.65,11-2.74,17.18-13.08,18.6-23.75a103.87,103.87,0,0,0,.76-14.91C619.56,652.61,616.78,634.34,616.78,619.55ZM261.28,476.4a8.83,8.83,0,0,1-1.8-.75c-7.56-7.56-2-14.88,6.75-17.8A103.28,103.28,0,0,1,279,454.67c3.16-.64,10.25-1.4,10.25-1.4s.56,9.07,1.38,19.64c-1.5.34-3,.67-4.49,1C278.24,475.51,269.22,478.61,261.28,476.4Z" style="fill:#1e78f0"/></g><g id="body-lines"><path d="M451.69,498.83c6.07.85,12.49-1.87,13.63-7.06" style="fill:none;stroke:#3741f0;stroke-linecap:round;stroke-linejoin:round;stroke-width:6px"/><path d="M479.81,474.36c5.44,3.71,7.51,9.07,7.5,15.9,0,5.3-2.89,11.62-7.5,18.43" style="fill:none;stroke:#3741f0;stroke-linecap:round;stroke-linejoin:round;stroke-width:6px"/><path d="M489.08,461.91c12.66,4.55,14.6,20.93,11.19,34.45" style="fill:none;stroke:#3741f0;stroke-linecap:round;stroke-linejoin:round;stroke-width:6px"/><path d="M460.92,497.19a7.4,7.4,0,0,0,6.07,2.58" style="fill:none;stroke:#3741f0;stroke-linecap:round;stroke-linejoin:round;stroke-width:6px"/><path d="M289.88,471.55c26.41-7.2,54.08-17.46,80.6-23.19" style="fill:none;stroke:#3741f0;stroke-linecap:round;stroke-linejoin:round;stroke-width:6px"/><path d="M427.79,440.73c21.31-3.79,55.63-10.61,71.48,10,6.4,8.35,10.21,19.08,9.19,29.66-.7,7.15-3.49,13.27-8.19,15.92-2.18,9.89-13.2,16.59-20.46,12.33-4.34,6.22-16.68,10.26-23,7.9-8.24-3.09-8.35-13.46-1.45-17.68" style="fill:none;stroke:#3741f0;stroke-linecap:round;stroke-linejoin:round;stroke-width:6px"/><path d="M449.87,498.18c-3,6.5-24.11,10.4-31.69,12.23-10.27,2.47-18.39,4.75-27.62,9.51a309.21,309.21,0,0,1-36.76,16.34c-10.13,3.66-19,8.81-28.78,13a114,114,0,0,1-24,7.09" style="fill:none;stroke:#3741f0;stroke-linecap:round;stroke-linejoin:round;stroke-width:6px"/><line x1="232.58" y1="903.6" x2="581.72" y2="903.6" style="fill:none;stroke:#3741f0;stroke-linecap:round;stroke-linejoin:round;stroke-width:6px"/><path d="M561.26,691.7a22.68,22.68,0,0,1,4.91-17.43" style="fill:none;stroke:#3741f0;stroke-linecap:round;stroke-linejoin:round;stroke-width:6px"/><path d="M568.58,690.85a17.2,17.2,0,0,0-6.18-8.09" style="fill:none;stroke:#3741f0;stroke-linecap:round;stroke-linejoin:round;stroke-width:6px"/><path d="M563.3,682.65a8.22,8.22,0,0,0,5.42-2" style="fill:none;stroke:#3741f0;stroke-linecap:round;stroke-linejoin:round;stroke-width:6px"/><path d="M579.28,706.88a9.93,9.93,0,0,0,5.6-3.87" style="fill:none;stroke:#3741f0;stroke-linecap:round;stroke-linejoin:round;stroke-width:6px"/><path d="M594.2,708.58a10,10,0,0,0,4.85-4.79" style="fill:none;stroke:#3741f0;stroke-linecap:round;stroke-linejoin:round;stroke-width:6px"/><path d="M407.07,268.45c1,9.24.24,19.54-3.34,27.92-3.54-.05-8.68-2.85-12.14-3.6" style="fill:none;stroke:#3741f0;stroke-linecap:round;stroke-linejoin:round;stroke-width:6px"/></g><g id="object-lines"><path d="M399.53,445.59s2.47,20.13,2.77,33.21c.24,9.93,1.81,25.64,1.9,35" style="fill:none;stroke:#f0b441;stroke-linecap:round;stroke-linejoin:round;stroke-width:6px"/><path d="M357.06,399.94c-.61-.83-1.33-1.74-2-2.55" style="fill:none;stroke:#f0b441;stroke-linecap:round;stroke-linejoin:round;stroke-width:6px"/><path d="M369.32,379.51c-1.34-2.28-3.82-4.8-5.62-7.14" style="fill:none;stroke:#f0b441;stroke-linecap:round;stroke-linejoin:round;stroke-width:6px"/><path d="M427,371.85c1.91-3.7,4.56-7.06,6.64-10.72" style="fill:none;stroke:#f0b441;stroke-linecap:round;stroke-linejoin:round;stroke-width:6px"/><path d="M444.38,389.22a94.23,94.23,0,0,1,9.19-5.11" style="fill:none;stroke:#f0b441;stroke-linecap:round;stroke-linejoin:round;stroke-width:6px"/></g><path id="object" d="M430.17,430c-.35-2.95-.69-5.73-.93-8.43a3,3,0,0,0-3.14-2.73c-8.08.4-16.77,2.06-25.16,3.67l-3.12.6c-8.49,1.61-27.57,4.3-27.76,4.33a3,3,0,0,0-2.58,3l.15,18.35a3,3,0,0,0,3,3l.31,0c.85-.08,20.93-2.14,26.38-3.17s10.51-1.72,15.44-2.41c5.14-.71,10.45-1.45,16.11-2.53a3,3,0,0,0,2.43-3.19C431,436.87,430.59,433.36,430.17,430Z" style="fill:#f0b441"/></g></g></svg>