<svg xmlns="http://www.w3.org/2000/svg" viewBox="0 0 800 1000"><title>jake-strongman</title><g id="jake"><g id="strongman"><g id="body"><path d="M613.08,760.92c.44-7.15-.36-14.56-1.19-21.6q-1.75-14.88-3.74-29.72c-.52-34.65-2.71-131.74-8.29-187-5.77-57.17-12.45-133.9-73.8-159.77-17.33-7.31-36.46-10.57-55.55-11.66s-65.42-1.58-89.41-.79S330.77,354.08,314,367c-15.55,12-23.64,30.77-27.36,49.56-1.95,9.88-3.22,19.93-4.19,30-4.36,16-6.06,32.84-8.61,49.09l-7.53,48.06a499.35,499.35,0,0,1-14.43-77.17,3.92,3.92,0,0,0,.33-.27c6.27-5.77,12.38-12.88,11.62-21.54a3.52,3.52,0,0,0,1.79-3.83c-1.35-10.31-3.85-20.28-14.41-24.55-6.59-2.66-13.93-3.67-20.51-1.64a18,18,0,0,0-24-.63c-6.4-4.19-15.89-3.85-22.58,1.35-13,10.14-15.49,29.68-14.75,45,.9,18.79,5.26,37.64,10.15,55.75,6.55,24.27,11.34,42.17,20.22,65.67,7.46,19.76,17.2,38.43,39.62,45,16.8,5,42.42,2.21,57.54-7.19,18.47-11.49,22.85-26.57,27.79-46.23q5.4-21.51,9-43.4.16,134.1,4.42,268.15,1.55,48,3.61,96.09a4.22,4.22,0,0,0-.53.25,42.62,42.62,0,0,0-9.48,6.95c-2.88,2.77-.68,7.81,3.23,7.82l84.93,0c2.7,0,6.1-3.15,6-7.6-3.4-108-10.68-213.49-8.78-320.33q.62-35.15,2-70.28a97,97,0,0,1,31.44-2.08,4,4,0,0,0,2.5-.5q5.38,152.51,8.48,305.08.9,44.54,1.6,89.08c.06,3.89,1.64,7.38,7.91,7.38s79.18-.24,79.18-.24c5.8-.43,3.38-6,0-9.15s-6.58-5.78-6.58-5.78-1.26-29.18-1.47-37.38q-.71-26.88-1.42-53.75-.16-6-.32-12a20.79,20.79,0,0,0,3.06.22c1,.52,2,1,3,1.49,5.67,6.57,12.69,10.32,21.35,7.2a32.59,32.59,0,0,0,8.27-4.56c1.66-.09,3.37-.14,5.15-.1,12.36.28,24.68-7.32,27.73-12.1C613.27,777.15,613.52,768.83,613.08,760.92Z" style="fill:#1e78f0"/><path d="M380.63,299.06l9.35-1A44.29,44.29,0,0,0,405,320.66c3.76,3,13.31,2.58,20.17-1.47s5.73-15.24,7-22.93c3-.6,6.1-1.22,8.59-2.72,5.67-3.42,8.2-9.46,4.56-14.84-3.19-4.72-10-7.4-16.4-7.26h-.24c-4.66-10.31-13.88-22-27.23-21.07-5.76.39-9.35,2.88-11.55,6.4,0,.05-.08.09-.11.14a83.53,83.53,0,0,0-12.75,39.87C377,298.28,378.67,299.27,380.63,299.06Z" style="fill:#1e78f0"/></g><g id="body-lines"><line x1="274.79" y1="911.17" x2="618.82" y2="911.17" style="fill:none;stroke:#3741f0;stroke-linecap:round;stroke-linejoin:round;stroke-width:6px"/><path d="M514.57,454.84c16.27,47.93,14,99.81,14.66,150.41.5,38.72,1.9,88.1,1.9,88.1" style="fill:none;stroke:#3741f0;stroke-linecap:round;stroke-linejoin:round;stroke-width:6px"/><path d="M559.86,722.49A24.28,24.28,0,0,0,577.19,739a28.64,28.64,0,0,0-14.36,17.75c-1.11,4.1-.93,9.22,2.52,11.7,3.79,2.71,9,.71,13.19-1.35l18.56-9.18" style="fill:none;stroke:#3741f0;stroke-linecap:round;stroke-linejoin:round;stroke-width:6px"/><path d="M565.91,732.79c-3.62-.92-7.53,1-9.84,3.94s-3.29,6.7-3.8,10.4a52.07,52.07,0,0,0,21.71,49" style="fill:none;stroke:#3741f0;stroke-linecap:round;stroke-linejoin:round;stroke-width:6px"/><path d="M553,739.21c-1.67-1.91-5.9-3-11.23.31s-8.17,13.87-7.61,23.48,4.49,18.71,9.28,27.06" style="fill:none;stroke:#3741f0;stroke-linecap:round;stroke-linejoin:round;stroke-width:6px"/><path d="M539.61,741.4c-1.19-3.95-5.59-4-9.66-3.41" style="fill:none;stroke:#3741f0;stroke-linecap:round;stroke-linejoin:round;stroke-width:6px"/><path d="M332.2,450c.88,31.16.38,48.87.33,80" style="fill:none;stroke:#3741f0;stroke-linecap:round;stroke-linejoin:round;stroke-width:6px"/><path d="M228.08,416.34a26.94,26.94,0,0,0-9.67,18.26" style="fill:none;stroke:#3741f0;stroke-linecap:round;stroke-linejoin:round;stroke-width:6px"/><path d="M205.13,416a18,18,0,0,0-8.51,12.36" style="fill:none;stroke:#3741f0;stroke-linecap:round;stroke-linejoin:round;stroke-width:6px"/></g><g id="object"><path d="M172.71,382.15c-12.49-4.21-25-1-34.74,8.82a63,63,0,0,0-17.07,34.32c-2.16,15.13-2.36,31.32,3.57,45.67,8.69,21,30.18,33.19,49.83,24.08a209.11,209.11,0,0,1-4.92-34.6c-.74-15.35,1.71-34.89,14.75-45A20.38,20.38,0,0,1,197,411.19c-.2-.61-.4-1.21-.61-1.8C192.3,398.14,184.44,386.11,172.71,382.15Z" style="fill:#f0b441"/><path d="M545.09,792c-4.5.51-12.28-1.18-15.26-5.2a53.59,53.59,0,0,1-8.4-17.05c-1.76-6.81-3.42-17.49,1.42-26.34a25.92,25.92,0,0,1,5.94-7.36s1.67-28.06,2.32-40.83c-8-.12-17.27,1.73-24,5.93a21.94,21.94,0,0,0-7.62,8.48A43.58,43.58,0,0,0,493,720c-4.29,9.76-5.69,20.72-5.19,31.62-1,10.38-.27,20.84,3.24,30.75,6.37,18,22.46,33.26,42.7,31.35A31.18,31.18,0,0,0,556,800.83C551.87,799.25,548.25,796.06,545.09,792Z" style="fill:#f0b441"/><path d="M300.71,389.54c-5.47-6.47-13.58-9.45-21.9-9.78s-18.1,1.51-25.16,5.9a22.1,22.1,0,0,0-7.62,8.48,43.43,43.43,0,0,0-6.45,10.38c-4.3,9.77-5.69,20.72-5.2,31.63-1,10.38-.26,20.83,3.24,30.75,6.37,18,22.46,33.26,42.71,31.35a31.17,31.17,0,0,0,23.81-15.44,42.05,42.05,0,0,0,7.79-13.63c6.3-17.67,3.54-38.3-1-56C308.84,404.86,306.33,396.19,300.71,389.54Z" style="fill:#f0b441"/><path d="M667.25,725.76c-2.11-8.28-4.61-17-10.23-23.6-5.48-6.47-13.59-9.45-21.91-9.78s-18.09,1.5-25.15,5.9a22,22,0,0,0-7.62,8.48,43.43,43.43,0,0,0-6.45,10.38c-4.3,9.76-5.7,20.72-5.2,31.63-1,10.38-.27,20.83,3.24,30.75,6.37,18,22.46,33.26,42.7,31.35a31.15,31.15,0,0,0,23.81-15.44,42.05,42.05,0,0,0,7.79-13.63C674.54,764.13,671.77,743.5,667.25,725.76Z" style="fill:#f0b441"/></g><g id="object-lines"><line x1="159.23" y1="440.04" x2="169.26" y2="440.29" style="fill:none;stroke:#dc8c2d;stroke-linecap:round;stroke-linejoin:round;stroke-width:6px"/><path d="M519.09,706.45c-7.29,3-12.22,10.18-14.35,17.76s-1.85,15.62-1.31,23.48,1.31,15.68,2.33,23.48c1.7,13.07,5.14,27.69,16.51,34.36" style="fill:none;stroke:#dc8c2d;stroke-linecap:round;stroke-linejoin:round;stroke-width:6px"/><line x1="289.28" y1="439.34" x2="321.25" y2="437.69" style="fill:none;stroke:#dc8c2d;stroke-linecap:round;stroke-linejoin:round;stroke-width:6px"/><line x1="654.35" y1="750.81" x2="677.35" y2="748.5" style="fill:none;stroke:#dc8c2d;stroke-linecap:round;stroke-linejoin:round;stroke-width:6px"/><path d="M627.52,702.9c-7.89,2.66-13.78,9.58-17,17.25s-4.2,16.08-4.86,24.38c-.57,7.21-1,14.48,0,21.64a57.46,57.46,0,0,0,3.87,14.17c3.61,8.67,10.46,17.06,19.79,18.17" style="fill:none;stroke:#dc8c2d;stroke-linecap:round;stroke-linejoin:round;stroke-width:6px"/><path d="M277.86,384.35c-9.51,1.75-17.25,9.16-21.56,17.81s-5.64,18.47-6.32,28.11c-.8,11.54-.74,23.24,1.71,34.55a57.6,57.6,0,0,0,15.36,28.72" style="fill:none;stroke:#dc8c2d;stroke-linecap:round;stroke-linejoin:round;stroke-width:6px"/><path d="M163.38,385.37c-7.53,1.59-19.46,15.62-22.06,22.86-10.08,28.13-10,55.2,6.72,80" style="fill:none;stroke:#dc8c2d;stroke-linecap:round;stroke-linejoin:round;stroke-width:6px"/><path d="M652.56,737.45c-.49-2.4-3.29-3.86-5.7-3.4a7.69,7.69,0,0,0-5.28,4.69,18.73,18.73,0,0,0-1.2,7.21,86.3,86.3,0,0,0,1.42,16.9,11.9,11.9,0,0,0,1.72,4.95c2.05,2.87,6.43,3.47,9.51,1.74a10.51,10.51,0,0,0,4.93-8.85" style="fill:none;stroke:#dc8c2d;stroke-linecap:round;stroke-linejoin:round;stroke-width:6px"/><path d="M296.59,430c-1.73-4.06-6.5-8.68-10.16-7.48-3.42,1.12-6,4.87-6.91,9a28,28,0,0,0,.49,12.63,18.31,18.31,0,0,0,2.57,6.33,7.94,7.94,0,0,0,10.6,2.49c3.45-2.14,4.68-7.28,4.68-7.28" style="fill:none;stroke:#dc8c2d;stroke-linecap:round;stroke-linejoin:round;stroke-width:6px"/></g></g></g></svg>