<svg xmlns="http://www.w3.org/2000/svg" viewBox="0 0 800 1000"><title>jake-pointing</title><g id="jake"><g id="pointing"><g id="body"><path d="M671.38,496.47a176.48,176.48,0,0,0-35-53.67,262,262,0,0,0-25-25.2,235.77,235.77,0,0,0-71-43.48c-27.4-10.63-98-19.44-110.31-20.86-3.69-.42-8.08-.68-12.82-.81a250.07,250.07,0,0,0-36-1.08c-17.09.73-35.39,2.34-51.39,8.81-15.53,6.28-26.12,17.88-32.51,33.22-9.56,23-5.22,61.12-7.85,85.78-18.34-20.9-41.9-39.26-68.86-50.8-5.55-10.27-8.15-20.78-10.72-25.66-2.2-4.18-4.46-9.49-10.13-9.34-11.29.28-8.48,25.88-5.66,34.61-9.37-.76-18-.45-27.16-.57-6.5-.09-20,.94-26.43,1.66s-12.17,2.12-12.17,10.45,10.79,9.84,19.49,9.84,21.37,1.33,21.14,1.5c-6,1.53-7.45,5.95-7.94,9.18-.89,5.89,1.95,11,6.43,14.34-4,10.23,7.13,21.77,17.94,22.81a19.34,19.34,0,0,0,11.31-2.91,48.57,48.57,0,0,0,7.71,2.41c5.55,1.22,25.71,21.81,38.38,42.36,12,19.56,25.16,62,75.89,70.54-1.44,14.22-3.16,33.68-3.73,44.46-1.46,27.53-8.5,210.87-7.71,236.79,0,.11-10.69,6.36-12.79,7.75-5.74,3.79-6.94,13.47,1.93,13.47s67.59,1.15,74.7,1.15,9.24-6.84,9.24-7c.43-10.8,1.77-62,2.09-76.95.6-27.2,2.49-54.34,4.14-81.49.83-13.57,1.59-27.15,2.11-40.74.5-13.32.17-26.73,1.49-40s3.82-40.1,5.64-53.23c1.73-12.46,1.79-25,3.29-37.45,1.75-14.56,5.12-29.17,5.46-43.72,7.16,1.18,14.8.92,21.63.91,1.13,0,2.26,0,3.38,0a13.86,13.86,0,0,0,3.18,7.62c-5.44.89-6.41,9.58-4.41,12.9,3.52,5.86,11.84,11.06,17.09,14.89a173.66,173.66,0,0,0,25.07,15c.52,22.11,1,44.78,1.2,63.07.4,29.63-.94,59.34,1.38,88.9,2.28,29,3.72,103,3.8,111,.07,7.26.35,15.91.57,23.17.22,7.81.46,15.63.4,23.44,0,3-.66,10.66-.59,11.06a1.16,1.16,0,0,0,0,.13.27.27,0,0,0,0,.12l0-.06c.14,1.47,1.25,11.5,6.83,9.36a8.21,8.21,0,0,0,.9-.41,6.23,6.23,0,0,0,2.75.52c28.17-.76,50.82,1.62,79-.65,5.66-.46,7.62-6.7,4.07-10.76a30.67,30.67,0,0,0-10.54-8c-.51-8.75-2.82-52.34-3.63-65.24-1.66-26.45-2.07-53-2-79.47.09-26.67.41-53.23-.84-79.89-.74-15.87-1.72-37-2.57-56.89,40.89,11,101.55,14.75,124.19-27.09C690.09,559.36,682.68,523.23,671.38,496.47Zm-74.53,27.31c-5.6,18.14-22,21-38.42,16.64-2.57-.68-5.11-1.49-7.61-2.37.22-4.68.44-9.35.47-14,.07-14.53-.76-29-.58-43.59.08-6.53,1-13.09,1.71-19.65a90.43,90.43,0,0,1,18.5,7.82C590.92,480.55,603.46,502.37,596.85,523.78Z" style="fill:#1e78f0"/><path d="M432.71,306.62l8.4.87c.69,18.54,6.14,36.95,22.13,32.49a6.53,6.53,0,0,0,2.53-.32c11.82-3.86,17.92-15,20.57-26.57,8.05.43,17.55-.74,20.75-8.32,5-11.9-10.42-16.63-19.45-19.18-1-8.75-3.78-17.3-9.93-23-11.23-10.53-23.37-3.27-30,7.4a108.89,108.89,0,0,0-17.46,33.54C429.79,305.05,431,306.44,432.71,306.62Z" style="fill:#1e78f0"/></g><g id="body-lines"><path d="M549.22,535.79s-6.45-2.61-10.2-4.37c-5.27-2.47-10.72-4.45-15.92-7.07a72.68,72.68,0,0,1-14.67-9.25c-2.73-2.37-3-6.94-3.33-10.57-.6-5.95-1-11.93-1.46-17.89-.41-5.07.32-14.31-4.95-17.24-7.35-4.09-13.5,7.54-15,12.72-1.63,5.71-2.11,12.37-2.68,18.28-.27,2.75-.7,8.65-.7,8.65s-19.45-7.41-22.73-8.3c-5.35-1.46-39.75-12.44-44.24-11.33s-7.42,7-5.76,12.75,31.63,12.1,32.38,15.26c-7,.8-12.77,6.93-12.62,13.72" style="fill:none;stroke:#3741f0;stroke-linecap:round;stroke-linejoin:round;stroke-width:6px"/><path d="M548.51,613.34a307.46,307.46,0,0,1-37.36-10.42c-8.92-3.19-26.36-11.16-37.36-16.08" style="fill:none;stroke:#3741f0;stroke-linecap:round;stroke-linejoin:round;stroke-width:6px"/><line x1="610.28" y1="912.6" x2="257.28" y2="912.6" style="fill:none;stroke:#3741f0;stroke-linecap:round;stroke-linejoin:round;stroke-width:6px"/><path d="M335.08,414.75c-5.82,8.67-13.75,121.83-15.78,176.32" style="fill:none;stroke:#3741f0;stroke-linecap:round;stroke-linejoin:round;stroke-width:6px"/><path d="M292.71,481.71s5.58,19.36,8,36.69" style="fill:none;stroke:#3741f0;stroke-linecap:round;stroke-linejoin:round;stroke-width:6px"/><path d="M171.31,475.42a31.58,31.58,0,0,0,22.18,1c3.64-1.19,7.21-3.2,9.24-6.46s2.08-7.94-.66-10.63c-2.2-2.17-5.56-2.59-8.65-2.62-2.68,0-13.93,0-13.93,0" style="fill:none;stroke:#3741f0;stroke-linecap:round;stroke-linejoin:round;stroke-width:6px"/><path d="M230.75,465.51a11.74,11.74,0,0,0-.13,7.32" style="fill:none;stroke:#3741f0;stroke-linecap:round;stroke-linejoin:round;stroke-width:6px"/><path d="M198.15,494.2A13.21,13.21,0,0,0,206.4,487a10.75,10.75,0,0,0-4.77-13" style="fill:none;stroke:#3741f0;stroke-linecap:round;stroke-linejoin:round;stroke-width:6px"/></g></g></g></svg>