<svg xmlns="http://www.w3.org/2000/svg" viewBox="0 0 800 1000"><title>jake-connecting</title><g id="jake"><g id="connecting"><g id="body"><path d="M642.61,240.46c-10.39-15.08-23.61-34-37.82-45.62-14-11.43-28.88-25.1-43.23-36.42-8-6.94-17.36-15.53-26.13-18.35-8-2.56-18.93-3.66-25.62,2.55a14.52,14.52,0,0,0-1.41,1.53,2.24,2.24,0,0,0-.46.15c-6.41.41-14.48,2.28-17.59,13.91h0c-5.43-.63-10.83,1.62-13.13,8.74-2.1,6.48.63,14.79,2.39,18.12a24.46,24.46,0,0,0,13.08,11.12c.91,7.05,6.94,16,12.58,19.73,7.19,4.79,15.72,6.28,24.21,6l1.76,1.15c14.11,13.53,27.62,30.58,39.31,44.39,4.83,5.71,12.13,16,10.87,25.12s-6.35,16.91-12.49,22.61A160.44,160.44,0,0,1,514.65,348c-17.91,6.49-59.08,11.2-84.58,11.2H366.26a134.72,134.72,0,0,0-21.58.8,458.86,458.86,0,0,0-70.6,10.77c-19.57,4.76-44.91,12.22-59.33,20.5-29,16.62-50.2,40-59.84,52.09s-15.74,30.6-15,50.48,16.28,43.39,27.7,55c11.9,12.07,32.61,35.44,49.43,45.18s35.79,15.75,49.2,10.81a11.71,11.71,0,0,0,3.77-2.82c-.05,3.46-.08,7.92-.07,11.38,0,14.28.79,32.14.76,46.39h0q-.39,31.72-.54,63.43c-.11,31.47.06,63,.69,94.41.29,13.87-.41,70.2-.41,70.2s-11.6,7.78-16.08,11.66-3.06,13.67,6.1,13.67h90.87c8,0,10.26-4.89,10.26-12.12s-.12-73.29-.14-88.33c-.06-54.24-1.31-108.51.93-162.72,1.89-45.72,2.48-136.34,2.48-136.34l53.51,1.57S422,884.57,422,894.47s3.51,18.63,13.74,18.63S515.84,913,525,913s11.88-2.66,11.88-8.19-17.24-15.9-24-19.46c-.12-.07-2.52-162.23-2.89-194.65-.19-15.82-.21-31.64-.5-47.46-.3-16.35-1.34-32.67-1.68-49-.64-30.93,0-62.07-.41-93-.34-24-.72-69-.72-69,8.5-2.7,18.49-2.87,38.4-10.3,59.77-22.3,96.46-53.72,107.17-90.79S658.73,263.86,642.61,240.46ZM203.39,496.35c.3-7.68,10.08-16,24.2-25.61s30.16-14.5,46.52-16.5c.05,2.47.12,4.75.18,6.89-.38,18.64-.91,37.79-1.29,55.81-9.69,8.6-17.66,19.07-22,31.16h0C234.92,542.92,203.09,504,203.39,496.35Z" style="fill:#1e78f0"/><path d="M367.87,306.42a93.69,93.69,0,0,0,6.66,11.86c4.2,6.21,11.61,11.92,19.53,11.06,7.55-.82,15.61-7.78,18-14.47,3.34-9.33,2.77-20.71-.8-31l7.09-5.34a2,2,0,0,0,.37-3.17A87.73,87.73,0,0,0,391,258.79c-5.36-2.6-11.53-3.75-16.66-1.52-10.8,4.7-16.11,17.77-11.94,33.58a62.38,62.38,0,0,0-6.45,1.55c-5.19,1.62-10.61,5.52-8.55,11.7C350.06,312.17,359.78,309.47,367.87,306.42Z" style="fill:#1e78f0"/></g><g id="object"><path d="M572.66,124.32c-2.87-2.65-20.92,1.62-24.91,5.27s-13.83,12.92-20.35,19.8a3.19,3.19,0,0,0,.45,4.92c13,6.08,10.25,18.39-1.44,18.69,6.06,4.87-.94,15.35-6.52,13.4l-1.3,5.36c4.11-.42,7.19-.34,12.17-.87,0,0,7.73-9.38,10.31-12.18,6.19-6.73,12.15-13.61,18.59-20.11,3.08-3.09,5.2-5.44,8.4-9S575.52,127,572.66,124.32Z" style="fill:#f0b441"/><path d="M499,219.56a4.06,4.06,0,0,0,1.83-.65,30.06,30.06,0,0,0,3.94-3.33c-5.51-3.94-11.22-12.54-12.11-19.39a24,24,0,0,1-6.65-3.64c-2.54,2.54-6.14,5.59-6.6,9s2.05,7.57,4,10.15C486.51,215.57,493.56,221.27,499,219.56Z" style="fill:#f0b441"/></g><g id="body-lines"><line x1="572.9" y1="913.1" x2="208.87" y2="913.1" style="fill:none;stroke:#3741f0;stroke-linecap:round;stroke-linejoin:round;stroke-width:6px"/><path d="M506.45,146.27a14.32,14.32,0,0,0-1.34,4.83c-.22,3.59,1.58,7,3.48,10a36.27,36.27,0,0,0,7,8.68,22.24,22.24,0,0,0,10.48,4.95" style="fill:none;stroke:#3741f0;stroke-linecap:round;stroke-linejoin:round;stroke-width:6px"/><path d="M488.9,160.12c-.7,7.8,4.76,15.36,10.65,20.51a24.54,24.54,0,0,0,2,1.55" style="fill:none;stroke:#3741f0;stroke-linecap:round;stroke-linejoin:round;stroke-width:6px"/><path d="M275.51,514.44c1.91-3,19.41-17.87,25.14-11.92,6,6.23-18,21.24-22,26.13,7.67-6.5,23.55-19.92,27.68-13.7s-6.65,12.83-12.14,17.69c-6.91,6.1-11.42,12.23-17.67,18.43,3.44-4,15.82-18.48,21.89-14.93,8.43,4.93-7.08,15.75-10.11,19.36-9.32,11.12-14.81,23.58-19,42" style="fill:none;stroke:#3741f0;stroke-linecap:round;stroke-linejoin:round;stroke-width:6px"/><path d="M492.69,196.19c2.43-8.65,7-14.45,15.45-17.55,3.23-1.19,7.3-1.47,9.67,1,1.77,1.86,2,4.67,2,7.23,0,3.34-2.33,5.32-5.86,8.58,6.82-3.52,18.74-3.86,25.85-3.06" style="fill:none;stroke:#3741f0;stroke-linecap:round;stroke-linejoin:round;stroke-width:6px"/></g><g id="object-lines"><path d="M214.39,124.26c137.56.8,219-3.59,357.27.61" style="fill:none;stroke:#dc8c2d;stroke-linecap:round;stroke-linejoin:round;stroke-width:6px"/><circle cx="639.19" cy="123.37" r="10.93" style="fill:none;stroke:#dc8c2d;stroke-linecap:round;stroke-linejoin:round;stroke-width:6px"/><circle cx="201.65" cy="123.37" r="10.93" style="fill:none;stroke:#dc8c2d;stroke-linecap:round;stroke-linejoin:round;stroke-width:6px"/></g></g></g></svg>