<svg xmlns="http://www.w3.org/2000/svg" viewBox="0 0 800 1000"><title>jake-fall</title><g id="jake"><g id="fall"><path id="body" d="M628.72,703.86c-.33-5.9,0-14.19-7.53-15A4.23,4.23,0,0,0,617.1,692a102.21,102.21,0,0,1-4.75,15.25c-.14-2.51-.32-5-.49-7.53-.38-5.52-.64-11.07-1.13-16.59-.29-3.19-1-6.63-4.5-7.67-7.65-2.25-11,11.58-12.69,16.61a170.93,170.93,0,0,0-5.7,23.08l-.82,0c-.15-1.58-.16-3.21-.17-3.7,0-3.37,0-6.75,0-10.12q.06-9.67.38-19.33c.15-4.57-5.59-5.25-7.89-2.14-4.77,6.45-5.17,15-6.36,22.62l-3.15,20.21A39.54,39.54,0,0,0,555.68,716c-3.42-.84-6.88,3-4.78,6.22a186.09,186.09,0,0,0,14.77,19.74c-6.09,26-8.95,52.73-16.74,78.33-.94,3.06-2.14,11.24-5.61,12.26-1.41.41-3.77-.28-5.18-.39l-7.49-.62-28.09-2.29L451.4,825c21.83-65.13,42.48-151.11,57.83-218.1q3.7-16.14,6.92-32.38c2.3-11.61,4.82-33.56,4.58-55.84-.66-62.39-.77-104.27.06-166.66l15.37-12.48c3.13-2.54.26-7-3-7.23-15.06-1.28-29.59-1.57-44.66-1.53-14.89.05-30.18.07-44.92,2.31-3.2.49-4.5,2.55-3.88,5a4.41,4.41,0,0,0-.24,1.5q1,41.77,2.06,83.56c.66,27,2.74,65.67,1.07,92.62-1.65,26.77-9.7,53.14-16,79.1-6.44,26.56-13.07,41.75-20.27,68.11q-6.27,23-13.26,45.79-22-.87-43.91-2,4.32-27,8.65-53.9c4.08-25.45,8.27-50.93,10.2-76.65.9-12.08,1.55-24.49.08-36.57-1.35-11.08-5.75-20.51-12.63-29.21-7.35-9.3-15.82-17.81-24-26.42q-12.78-13.51-25.91-26.69-28.35-28.42-58.3-55.15a148.54,148.54,0,0,0-.56-15.64c-.29-3.33-4.6-6-7.23-3-18.28,20.9-36.83,42.64-44.81,69.79a3.79,3.79,0,0,0,1.73,4.54,3.86,3.86,0,0,0,1.31,2.35c14.8,13.29,29.59,26.59,44.1,40.2,7,6.58,14,13.21,20.82,20,6.07,6,15.6,17.75,16.47,23.59a1042.53,1042.53,0,0,1-20.24,213.14q-3.37,16.77-7.3,33.41c-2.81-7.25-5.33-14.62-7.73-22-6-18.51-12.28-36.93-13-56.53-.74-19.75-.48-39.58-.72-59.35,0-3.67-.09-7.35-.14-11,7.32-11.42,10.1-25.18,12.39-38.58.74-4.32-5.61-8-7.74-3.26a82.61,82.61,0,0,1-4.5,8.6c-1.53-16-2.11-30.23.18-46.1.47-3.27-3.81-8.12-6.23-4.79-8.6,11.86-11.05,19.58-15.94,32.33,0-9.95,1.36-24.34.71-34-.25-3.89-5.85-6.15-7.89-2.14-5.21,10.24-8.46,24.68-11.55,35.68,0-.21-1.79-13.64-1.75-20.15,0-5-6.69-5.4-8.32-1.12a125.89,125.89,0,0,0-8.22,41.45,3.42,3.42,0,0,0,0,.46v1.72c0,1,0,2,0,3q0,63.12.64,126.25c.11,9.94.08,19.91,1.93,29.71,2,10.53,6,20.5,10.13,30.37q11.26,27.15,25.14,53.12a601.76,601.76,0,0,0,35.4,58,4,4,0,0,0,3.19,1.83,4.65,4.65,0,0,0,1.51.37c21.07,1.31,42.36.57,63.46.53q31.92-.08,63.84-.29c42.88-.3,85.75.28,128.62.12q36.15-.15,72.29-.47a4,4,0,0,0,2.6-.9c13.63-3.09,22.31-17.87,26.45-30.62,2.47-7.6,3.58-15.56,4.85-23.42q2.25-13.9,4.51-27.8c5.61-34.59,13.71-70,12.53-105.23A144.2,144.2,0,0,0,628.72,703.86Z" style="fill:#1e78f0"/><g id="body-lines"><path d="M354.56,857.52c-14.39-9.07-33.84-19.43-49.41-6.3-6.46,5.45-5.41,15.4-3.67,22.88a22.53,22.53,0,0,0,4.76,9.94,14.11,14.11,0,0,0,3.36,2.62,17.08,17.08,0,0,0-1.28,7.41,13.92,13.92,0,0,0,5.21,13.52c7.92,6.24,17.37,2.1,23.84-4,13.32,7.15,35.66,13.93,40.75-5.31C382.69,881,367.81,865.88,354.56,857.52Z" style="fill:none;stroke:#3741f0;stroke-linecap:round;stroke-linejoin:round;stroke-width:6px"/><line x1="215.98" y1="915.76" x2="600.76" y2="915.76" style="fill:none;stroke:#3741f0;stroke-linecap:round;stroke-linejoin:round;stroke-width:6px"/><path d="M324.82,860.74A99.74,99.74,0,0,1,354.36,871a79.44,79.44,0,0,1-5.56,12.52" style="fill:none;stroke:#3741f0;stroke-linecap:round;stroke-linejoin:round;stroke-width:6px"/></g></g></g></svg>