<svg xmlns="http://www.w3.org/2000/svg" viewBox="0 0 800 1000"><title>jake-me-me-me</title><g id="jake"><g id="me-me-me"><g id="body"><path d="M712.7,264.61c-8-29.78-23.91-47.23-58-63.85-13.1-6.39-43.58-19.86-57.47-24.34-11.37-3.66-22.74-7.83-34.65-9.07a15.57,15.57,0,0,0-3.65-11.47c-4.45-5.24-11.5-7.55-18.08-8.55-11.89-1.8-32.34-1-39.26,11a11.55,11.55,0,0,0-1.24,8.82,72.27,72.27,0,0,0-7.1,2.14c-7.65,2.73-13,7.61-13.8,16-.53,5.46,1.38,10.34,5.33,13-5.59,6.89-6.9,16.81-1.65,24.82,6.16,9.4,17.48,10.42,27.58,12.9-1.36,3.31-6.48,11.55-7.84,14.48-2,4.26-4.15,9.33-2.71,14.1,3.61,12,17.78,6.24,24,.45,5.81-5.46,11.32-16,17.37-23.26,4.11.91,8.22,1.81,12.32,2.75,11.84,2.72,33.67,8.85,45.23,12.6,10,3.24,26.12,8.18,28.09,19.08s-2.9,17.58-15,26.19-32.06,17.33-49.49,25c-47.07,20.83-99,33.06-150.52,33.8-20.37.3-53.47,1.07-72.72-2.77S289.16,344,284.44,342.13a312,312,0,0,1-51.27-26.54c-17.87-11.41-36-24.53-49.92-40.59-5.5-6.32-11.07-15.19-9-24.14s14.15-14.94,20.85-18.25c20.91-10.33,43.89-16.7,66.46-22.25,1.58-.39,3.16-.76,4.75-1.14a25.34,25.34,0,0,1,2.51,2.84c3.36,4.49,5.06,10.13,7.53,15.11,4.37,8.8,13.9,22.58,25.06,14.12,8.92-6.75,3.06-22.76-2.36-32.63,29.32-10.48,36.52-26,27.05-40.83a19.22,19.22,0,0,0-5.71-5.72,11.32,11.32,0,0,0,.33-3c-.17-6.68-6-12.13-11.39-15.26a29.32,29.32,0,0,0-7.6-3.08c0-2.54-.37-5.58-2.68-7.84-7.18-7-21.05-5.76-29.75-5-9.86.85-21.95,5.75-24.79,15.75-17.73,4.42-35.74,7.69-53.33,12.67A216.34,216.34,0,0,0,141.48,178c-24.59,14.24-50.74,32.75-55.67,62.85-12,73,57.87,125.26,113.6,156.31a370.92,370.92,0,0,0,58.27,26.19c8.45,2.94,17.18,4.81,25.68,7.52,0,0-.38,49-.73,73-.44,30.93.24,62.06-.4,93-.34,16.35-1.38,32.66-1.68,49-.3,15.82-.31,31.64-.5,47.46-.37,32.43-2.77,194.59-2.89,194.65-6.81,3.57-24.05,13.94-24.05,19.47s2.73,8.19,11.88,8.19,79.05.14,89.27.14S368,907,368,897.12s3.56-379.31,3.56-379.31l53.51-1.57s.59,90.62,2.48,136.35c2.24,54.21,1,108.48.93,162.71,0,15.05-.14,81.1-.14,88.33s2.24,12.13,10.26,12.13h90.87c9.16,0,10.59-9.8,6.1-13.68s-16.08-11.66-16.08-11.66-.7-56.33-.42-70.19c.64-31.47.81-62.94.7-94.41-.22-63.09-1.55-126.16-2.49-189.24-.51-34.54-2-76-2.07-110.5,23.42-3.82,54.47-13.33,73.8-21.76,20-8.71,40.09-18.33,64.13-34.36s43.15-31.66,53.06-49S717.87,283.8,712.7,264.61Z" style="fill:#1e78f0"/><path d="M375.54,301.56a84.85,84.85,0,0,0,1.24,12.28C378,320.53,382.11,328,389,330.13c6.58,2.06,15.81-.8,20.22-5.5,10.79-11.46,13.92-32.51,7.26-47.35-3.05-6.78-10-14.25-17.75-14.26-10.69,0-19.85,8.93-22.12,23.6a54.35,54.35,0,0,0-5.92-1.05c-4.91-.54-10.83.73-11.36,6.63C358.65,299.88,367.71,301.16,375.54,301.56Z" style="fill:#1e78f0"/></g><g id="body-lines"><path d="M317.55,160.16c-10.85-4.54-20.72-1.91-30.64,1.13-5.34,1.63-12.05,5.22-15.8,9.11s-4.19,8.61-1.72,14,13,3.87,19,2.57c4.14-.9,21.14-7.33,25.19-7.07" style="fill:none;stroke:#3741f0;stroke-linecap:round;stroke-linejoin:round;stroke-width:6px"/><path d="M487.32,195.68c13.52-7.13,27.38-6.69,41.74-3.11,5.49,1.37,17.05,5.53,16.48,13-.71,9.35-8.62,9.39-14.63,9.21-9-.27-23.77-5.08-31.24,0" style="fill:none;stroke:#3741f0;stroke-linecap:round;stroke-linejoin:round;stroke-width:6px"/><path d="M299.17,139.78c-12.82-1.55-21.91,1.42-32.69,8.55-5.47,3.61-15.29,13.64-11.27,21.23s10.92,4.16,14.67,2.32" style="fill:none;stroke:#3741f0;stroke-linecap:round;stroke-linejoin:round;stroke-width:6px"/><path d="M502.56,166.27c10.52-1.21,17.73-1.21,27.79,3.1,7.95,3.42,23.65,11.07,19.77,22-1.4,4-6.31,5-9.28,5.11" style="fill:none;stroke:#3741f0;stroke-linecap:round;stroke-linejoin:round;stroke-width:6px"/><path d="M243,145.7c-.05,6.27,6.49,11.64,15.84,8.4" style="fill:none;stroke:#3741f0;stroke-linecap:round;stroke-linejoin:round;stroke-width:6px"/><path d="M562.41,168.83c-1.5,6.3-11.46,10.65-17.58,8.06" style="fill:none;stroke:#3741f0;stroke-linecap:round;stroke-linejoin:round;stroke-width:6px"/><path d="M576.8,207.26c-3.63,1.23-4.36,4.68-4,7.52" style="fill:none;stroke:#3741f0;stroke-linecap:round;stroke-linejoin:round;stroke-width:6px"/><line x1="217.08" y1="915.76" x2="581.11" y2="915.76" style="fill:none;stroke:#3741f0;stroke-linecap:round;stroke-linejoin:round;stroke-width:6px"/><path d="M521.39,214a15.49,15.49,0,0,0-9.28,17.9" style="fill:none;stroke:#3741f0;stroke-linecap:round;stroke-linejoin:round;stroke-width:6px"/><path d="M229,174.88l.83,5.77" style="fill:none;stroke:#3741f0;stroke-linecap:round;stroke-linejoin:round;stroke-width:6px"/><path d="M294.7,201.62a15.81,15.81,0,0,0-3.06-13.92" style="fill:none;stroke:#3741f0;stroke-linecap:round;stroke-linejoin:round;stroke-width:6px"/><path d="M406.22,281.79a89,89,0,0,1,1.45,27.91,70.54,70.54,0,0,1-12.24-.38" style="fill:none;stroke:#3741f0;stroke-linecap:round;stroke-linejoin:round;stroke-width:6px"/></g></g></g></svg>