
<svg width="556px" height="659px" viewBox="0 0 556 659" version="1.1" xmlns="http://www.w3.org/2000/svg" xmlns:xlink="http://www.w3.org/1999/xlink">
    <g id="Page-1" stroke="none" stroke-width="1" fill="none" fill-rule="evenodd">
        <g id="jake-pointing">
            <g id="body" fill="#1E78F0" fill-rule="nonzero">
                <path d="M543.38,239.47 C535.085901,219.594239 523.223767,201.404504 508.38,185.8 C500.62594,176.84449 492.273442,168.425171 483.38,160.6 C462.479932,142.009716 438.43851,127.286884 412.38,117.12 C384.98,106.49 314.38,97.68 302.07,96.26 C298.38,95.84 293.99,95.58 289.25,95.45 C277.291556,94.225198 265.26036,93.8642621 253.25,94.37 C236.16,95.1 217.86,96.71 201.86,103.18 C186.33,109.46 175.74,121.06 169.35,136.4 C159.79,159.4 164.13,197.52 161.5,222.18 C143.16,201.28 119.6,182.92 92.64,171.38 C87.09,161.11 84.49,150.6 81.92,145.72 C79.72,141.54 77.46,136.23 71.79,136.38 C60.5,136.66 63.31,162.26 66.13,170.99 C56.76,170.23 48.13,170.54 38.97,170.42 C32.47,170.33 18.97,171.36 12.54,172.08 C6.11,172.8 0.37,174.2 0.37,182.53 C0.37,190.86 11.16,192.37 19.86,192.37 C28.56,192.37 41.23,193.7 41,193.87 C35,195.4 33.55,199.82 33.06,203.05 C32.17,208.94 35.01,214.05 39.49,217.39 C35.49,227.62 46.62,239.16 57.43,240.2 C61.4097918,240.418617 65.3599318,239.402268 68.74,237.29 C71.2386228,238.306024 73.8175396,239.112145 76.45,239.7 C82,240.92 102.16,261.51 114.83,282.06 C126.83,301.62 139.99,344.06 190.72,352.6 C189.28,366.82 187.56,386.28 186.99,397.06 C185.53,424.59 178.49,607.93 179.28,633.85 C179.28,633.96 168.59,640.21 166.49,641.6 C160.75,645.39 159.55,655.07 168.42,655.07 C177.29,655.07 236.01,656.22 243.12,656.22 C250.23,656.22 252.36,649.38 252.36,649.22 C252.79,638.42 254.13,587.22 254.45,572.27 C255.05,545.07 256.94,517.93 258.59,490.78 C259.42,477.21 260.18,463.63 260.7,450.04 C261.2,436.72 260.87,423.31 262.19,410.04 C263.51,396.77 266.01,369.94 267.83,356.81 C269.56,344.35 269.62,331.81 271.12,319.36 C272.87,304.8 276.24,290.19 276.58,275.64 C283.74,276.82 291.38,276.56 298.21,276.55 C299.34,276.55 300.47,276.55 301.59,276.55 C301.851225,279.354085 302.96046,282.012062 304.77,284.17 C299.33,285.06 298.36,293.75 300.36,297.07 C303.88,302.93 312.2,308.13 317.45,311.96 C325.370511,317.655293 333.756846,322.673044 342.52,326.96 C343.04,349.07 343.52,371.74 343.72,390.03 C344.12,419.66 342.78,449.37 345.1,478.93 C347.38,507.93 348.82,581.93 348.9,589.93 C348.97,597.19 349.25,605.84 349.47,613.1 C349.69,620.91 349.93,628.73 349.87,636.54 C349.87,639.54 349.21,647.2 349.28,647.6 C349.27757,647.643299 349.27757,647.686701 349.28,647.73 C349.270999,647.769494 349.270999,647.810506 349.28,647.85 L349.28,647.79 C349.42,649.26 350.53,659.29 356.11,657.15 C356.417966,657.031543 356.718512,656.894628 357.01,656.74 C357.875366,657.119654 358.815759,657.297474 359.76,657.26 C387.93,656.5 410.58,658.88 438.76,656.61 C444.42,656.15 446.38,649.91 442.83,645.85 C439.940623,642.448178 436.343585,639.717978 432.29,637.85 C431.78,629.1 429.47,585.51 428.66,572.61 C427,546.16 426.59,519.61 426.66,493.14 C426.75,466.47 427.07,439.91 425.82,413.25 C425.08,397.38 424.1,376.25 423.25,356.36 C464.14,367.36 524.8,371.11 547.44,329.27 C562.09,302.36 554.68,266.23 543.38,239.47 Z M468.85,266.78 C463.25,284.92 446.85,287.78 430.43,283.42 C427.86,282.74 425.32,281.93 422.82,281.05 C423.04,276.37 423.26,271.7 423.29,267.05 C423.36,252.52 422.53,238.05 422.71,223.46 C422.79,216.93 423.71,210.37 424.42,203.81 C430.85791,205.721634 437.062838,208.344474 442.92,211.63 C462.92,223.55 475.46,245.37 468.85,266.78 Z" id="Shape"></path>
                <path d="M304.71,49.62 L313.11,50.49 C313.8,69.03 319.25,87.44 335.24,82.98 C336.096168,83.0406435 336.955893,82.9319036 337.77,82.66 C349.59,78.8 355.69,67.66 358.34,56.09 C366.39,56.52 375.89,55.35 379.09,47.77 C384.09,35.87 368.67,31.14 359.64,28.59 C358.64,19.84 355.86,11.29 349.71,5.59 C338.48,-4.94 326.34,2.32 319.71,12.99 C311.978533,23.066205 306.06946,34.4173119 302.25,46.53 C301.79,48.05 303,49.44 304.71,49.62 Z" id="Path"></path>
            </g>
            <g id="body-lines" transform="translate(43.000000, 157.000000)" stroke="#3741F0" stroke-linecap="round" stroke-linejoin="round" stroke-width="6">
                <path d="M378.22,121.79 C378.22,121.79 371.77,119.18 368.02,117.42 C362.75,114.95 357.3,112.97 352.1,110.35 C346.858339,107.86323 341.933285,104.757794 337.43,101.1 C334.7,98.73 334.43,94.16 334.1,90.53 C333.5,84.58 333.1,78.6 332.64,72.64 C332.23,67.57 332.96,58.33 327.69,55.4 C320.34,51.31 314.19,62.94 312.69,68.12 C311.06,73.83 310.58,80.49 310.01,86.4 C309.74,89.15 309.31,95.05 309.31,95.05 C309.31,95.05 289.86,87.64 286.58,86.75 C281.23,85.29 246.83,74.31 242.34,75.42 C237.85,76.53 234.92,82.42 236.58,88.17 C238.24,93.92 268.21,100.27 268.96,103.43 C261.96,104.23 256.19,110.36 256.34,117.15" id="Path"></path>
                <path d="M377.51,199.34 C364.84978,196.656401 352.371625,193.176145 340.15,188.92 C331.23,185.73 313.79,177.76 302.79,172.84" id="Path"></path>
                <path d="M439.28,498.6 L86.28,498.6" id="Path"></path>
                <path d="M164.08,0.75 C158.26,9.42 150.33,122.58 148.3,177.07" id="Path"></path>
                <path d="M121.71,67.71 C121.71,67.71 127.29,87.07 129.71,104.4" id="Path"></path>
                <path d="M0.31,61.42 C7.33858613,64.4269824 15.2193366,64.7822913 22.49,62.42 C26.13,61.23 29.7,59.22 31.73,55.96 C33.76,52.7 33.81,48.02 31.07,45.33 C28.87,43.16 25.51,42.74 22.42,42.71 C19.74,42.71 8.49,42.71 8.49,42.71" id="Path"></path>
                <path d="M59.75,51.51 C58.9275239,53.873767 58.8819751,56.4385192 59.62,58.83" id="Path"></path>
                <path d="M27.15,80.2 C30.8120561,79.1064244 33.8210131,76.4804256 35.4,73 C37.18436,68.0832764 35.1708937,62.5958421 30.63,60" id="Path"></path>
            </g>
        </g>
        <path d="M299.51485,36.9180699 L344.128784,38.9495334 C341.255261,47.0583812 339.6231,52.9570661 339.232301,56.645588 C338.841501,60.33411 339.309321,65.4249373 340.635761,71.9180699 L296.883312,61.151288 C295.467578,55.2868575 294.908614,50.9834263 295.206421,48.2409945 C295.504227,45.4985626 296.94037,41.7242545 299.51485,36.9180699 Z" id="Path-2" stroke="#979797" stroke-width="5" fill="#FFFFFF" stroke-linejoin="round" transform="translate(319.628784, 54.418070) rotate(-3.000000) translate(-319.628784, -54.418070) "></path>
        <path d="M344,38 L374,21" id="Line" stroke="#979797" stroke-width="6" stroke-linecap="round" stroke-linejoin="round"></path>
        <path d="M342,63 L363,73" id="Line" stroke="#979797" stroke-width="6" stroke-linecap="round" stroke-linejoin="round"></path>
    </g>
</svg>