<svg xmlns="http://www.w3.org/2000/svg" viewBox="0 0 800 1000"><title>jake-banana-peel</title><g id="jake"><g id="banana-peel"><g id="body"><path d="M619.74,735.91c-.3-2.8-3.13-4.48-5.6-4.86a51.26,51.26,0,0,1-6.12-1.39c-3.4-25.1-13.7-69.28-18.72-94.1-10.14-50.14-17.45-83.94-30.59-104.88-6.54-10.42-26.17-26.16-57.12-43.51-14.51-8.13-38.42-21.1-60.8-33.15,1.54-.18,3-.38,4.44-.65,16.36-3.13,33.46-9,44.2-22.15,10.92-13.36,14.16-28.27,14.42-45,.3-19.14.64-42.07-.09-61.2-.6-15.89-2.8-36.47-22-34.2-4.42-5-18.41-7.28-24.2-2.79-6.3-2.42-13.44-.39-19.55,4.49s-9.9,16.3-9.54,23.76c-4.73,3.25-6.51,9.55-5.21,15.3,1.51,6.69,6.43,11.47,12.26,14.56.11,14.42,1.69,29.16,0,40.57-.34,2.35-1.5,6.12-4.67,7-4.07,1.09-11.52,1.18-18.38.87s-34.26-5.15-47.83-9.53c-6.79-2.2-36.12-9.36-55.44-9-1,0-2,.12-3.09.25-31.15,2.51-64.07,8-90.38,16.24-34.66,10.85-61.38,39.12-86.74,64.61C117.28,469,109.22,483,108.61,500c-.61,17.24,7.24,31.35,17.15,44.83,11.33,15.43,22.31,31.39,34.45,46.19,10.09,12.29,24.15,20,40.1,14.47,13.92-4.82,28-17.65,31.73-32.24a25.12,25.12,0,0,0-4.83-21.69c1.8-5.45-.59-11.54-5.1-15.33-5.25-4.41-12.06-5.25-18.57-4.18-8.81-11.43-19-22.21-24.57-32.29-1.15-2.08.57-5.48,2.64-8,9.12-11.25,19.39-22.15,28.56-27.79a81.66,81.66,0,0,1,11.12-5.71c13.23,23.19,23.65,47.87,32.21,73.21,10.17,30.12,18,61,25.34,91.9,8,33.35,10.19,41.91,15.22,75.84a606.4,606.4,0,0,1,6.77,104.35c-.88,34.67-2.6,63.14-4.27,97.77-.12,2.47.24,6.45,1.62,7.67.71,1.4,3.29,2.71,5.41,2.71h40.63c9.5,0,32.32.24,45.49-1.67,9.68-1.4,7.35-12.56-4.26-13.81l-.1,0c-.67-17.32-.44-100-.67-125.08-1.13-120.44-17-180.58-54.63-272.87q6.75-3.21,13.32-6.79,33.4,20,66.46,40.6c20.7,12.9,54.14,34.33,61.76,39.25s11.87,13.62,15.29,22c2.29,5.61,23.43,109.4,33.56,164.42a5.69,5.69,0,0,0,1.89,3.41,6,6,0,0,0,5.85,2.44c27.78-4,53-8.19,79.88-16.63,1.58-.5,8.46-3.28,9.33-4C619.51,741,620,738.64,619.74,735.91Z" style="fill:#1e78f0"/><path d="M237.32,334.05c.49,5.47,3.1,9.94,6.9,16.07s11.1,10.29,23.26,8.19c15.36-2.65,19-17.81,19.28-31.31l7.59-1.1c1.64-.24,2.68-1.59,2.16-3a102.47,102.47,0,0,0-18.14-31.4,28.87,28.87,0,0,0-5.12-5.69c-12.38-10.44-27.27-2.33-32.74,11a59.68,59.68,0,0,0-3.57,13.19c-3.19,0-6.54-.34-9.59.89A13.1,13.1,0,0,0,220,326.27C222.16,334,229.9,334.8,237.32,334.05Z" style="fill:#1e78f0"/></g><path id="object" d="M664.87,895c-4.57-1.33-19.66-4.57-23.8-5.78s-9.91-2.69-14.64-6.5-9.33-12.12-13.6-20.05c-3.82-7.11-4.9-16-11.87-20.82a22,22,0,0,0-16.92-3.3c-1.79-3.91-4.45-10.08-6.36-14-2.15-4.37-5.94-5.79-11-4-5.53,1.91-3.82,8.2-2.22,12.33,1.7,4.38,5.35,13,5.35,13-6.2,4.2-8.85,10.57-9.92,17.75s-1.16,15.63-7.86,20.29c-3.44,2.4-7.52,3.75-11.48,5a98.32,98.32,0,0,1-14.48,3.33,112.87,112.87,0,0,1-14,1.22c-4,.1-8,0-11.94,1-3.46.87-7.21,2.78-8.9,6.09a6.21,6.21,0,0,0,2,8c3,2.11,7,4.57,10.49,4.52,4.84-.07,126.81-.44,141-.75,4.72-.1,15.71-.27,20.29-1.5,3-.81,6-2.74,6.25-6.1C671.66,900.75,668.34,896,664.87,895Z" style="fill:#f0b441"/><g id="object-lines"><path d="M555.76,909.55c9.39-3.79,19.66-15.15,23.28-24.6s4.14-19.83,3.3-29.91" style="fill:none;stroke:#dc8c2d;stroke-linecap:round;stroke-linejoin:round;stroke-width:6px"/><path d="M581.74,877.65c.13,5.63,4.76,14.72,7.63,19.64s11.27,11.48,13.39,12.26" style="fill:none;stroke:#dc8c2d;stroke-linecap:round;stroke-linejoin:round;stroke-width:6px"/><path d="M477.56,840.89a46.15,46.15,0,0,0-9.89-5.18" style="fill:none;stroke:#dc8c2d;stroke-linecap:round;stroke-linejoin:round;stroke-width:6px"/><path d="M493.93,808.91,492,805.43" style="fill:none;stroke:#dc8c2d;stroke-linecap:round;stroke-linejoin:round;stroke-width:6px"/><path d="M652.68,776.51a11.32,11.32,0,0,1,3.55-3.67" style="fill:none;stroke:#dc8c2d;stroke-linecap:round;stroke-linejoin:round;stroke-width:6px"/><path d="M682.19,791.75a41.46,41.46,0,0,0-7.31,5.17" style="fill:none;stroke:#dc8c2d;stroke-linecap:round;stroke-linejoin:round;stroke-width:6px"/><path d="M693.47,828.75l9.95-1.51" style="fill:none;stroke:#dc8c2d;stroke-linecap:round;stroke-linejoin:round;stroke-width:6px"/></g><g id="body-lines"><path d="M481.1,292.52c-7.92,7.37-12.59,20.74-8.27,30.66a20.78,20.78,0,0,0,4.93,6.5c2.87,2.32,7.84,2.32,11.42-1.67s2.06-10.75,1.92-13.12" style="fill:none;stroke:#3741f0;stroke-linecap:round;stroke-linejoin:round;stroke-width:6px"/><path d="M430.05,314.25c4.3-2.38,8.73-4.67,13.51-5.82a13.59,13.59,0,0,1,8.16.11c2.57,1,4.67,3.62,4.38,6.37-.21,2-1.58,3.68-3,5.08-1.63,1.58-7.86,5.47-9.79,6.66,4.87-.41,12.25.52,15.62,4.06s7.41,7.1,9.6,11.47" style="fill:none;stroke:#3741f0;stroke-linecap:round;stroke-linejoin:round;stroke-width:6px"/><path d="M457.56,290.82c-3,2.92-7.92,12.78-7.61,16.93" style="fill:none;stroke:#3741f0;stroke-linecap:round;stroke-linejoin:round;stroke-width:6px"/><path d="M472.83,323.18a10.84,10.84,0,0,1-11.2,9.87" style="fill:none;stroke:#3741f0;stroke-linecap:round;stroke-linejoin:round;stroke-width:6px"/><path d="M370.43,406.41c1.86,5.59,35.77,26.77,68.77,45.91" style="fill:none;stroke:#3741f0;stroke-linecap:round;stroke-linejoin:round;stroke-width:6px"/><path d="M208.12,550.69c3.41-1.93,10.4-3.49,16.24-1.19" style="fill:none;stroke:#3741f0;stroke-linecap:round;stroke-linejoin:round;stroke-width:6px"/><path d="M220,587.22A24.44,24.44,0,0,1,203,580.68" style="fill:none;stroke:#3741f0;stroke-linecap:round;stroke-linejoin:round;stroke-width:6px"/><path d="M201,601.91c-3.24-.28-6.27-1.69-9.22-3.08a10.54,10.54,0,0,1-4.51-3.19" style="fill:none;stroke:#3741f0;stroke-linecap:round;stroke-linejoin:round;stroke-width:6px"/><path d="M214.09,549.18a21.87,21.87,0,0,1,5.76,8.07c.9,2.16,2.43,4.1,2.84,6.41" style="fill:none;stroke:#3741f0;stroke-linecap:round;stroke-linejoin:round;stroke-width:6px"/><line x1="680.69" y1="913.1" x2="219.98" y2="913.1" style="fill:none;stroke:#3741f0;stroke-linecap:round;stroke-linejoin:round;stroke-width:6px"/></g></g></g></svg>