<svg xmlns="http://www.w3.org/2000/svg" viewBox="0 0 800 1000"><title>jake-baloon</title><g id="jake"><g id="baloon"><g id="body"><path d="M634.73,452.4a18.85,18.85,0,0,0,3-4.23c2.91-5.51,3.67-12.67-1.56-17.06,8-12.06-3.13-23.17-13.72-27.94-12.06-5.42-25.7-5.38-38.31-2-25,6.71-43.95,55.83-52.78,79.86-2.34-35.6-12.73-73.87-37.75-100.58-25.56-27.3-66.69-31.4-102-34.43-38.41-3.31-67.67-1.59-105,8.67-31.82,8.75-66.53,26-80.33,57.63-15.19,34.87-18.72,75.25-21.91,112.75-3.59,42.24-3.53,84.76-2.44,127.12.84,32.47,2.38,79.92,37.19,86.8,4.54,5.06,9.22,5.61,13.18,6.54,2.52.59,9.78,1.4,14.22-1.22,1.55,1.53.31,26.59.34,32.4.12,22.12.18,44.23.45,66.34.11,9.65.6,24.59-.38,32.36-5.46,4.3-19,10.74-19,19S233.12,905,247.55,905s46.18-.57,63.18-.57,16,.27,19.73-3.72,2.71-12.54,2.76-21.21c.06-10.74-.19-38-.57-48.76-.79-21.93-1.43-43.83-1.7-65.79-.51-40.79-1.17-73.86-1-114.65.07-21,.26-49,.58-70,.3-18.9,1.08-65.23,1.08-65.23S346,513,349,512.76c9.94-.92,20-1.08,29.94-1.44a77.69,77.69,0,0,1,12.31.95s.71,198.13.65,281.33c0,21.48.6,61.85.6,76.22s.05,24.79,2,29.77,5.66,5.4,13.4,5.4h58.42c22.73,0,30.26-.84,30.89-8.75s-14.8-14.66-16.89-18.68-1-28.51-1.62-39.6c-1.17-20.77-.33-51.58-.31-72.38q.06-64.27.43-128.53c.15-20.09-.86-40.15,0-60.23,17.52,27.52,49.22,35.92,78.79,18.41,26.14-15.48,42.34-69.48,43.87-109,11.34-1.94,27.88-9.27,32.65-20.66,1.42-3.39.85-5.54,1.07-8.86Q632.09,454.23,634.73,452.4Z" style="fill:#1e78f0"/><path d="M333.37,302.42c2,9.49,6.29,16.47,14.09,20.15a18,18,0,0,0,19.44-2.47c4.59-4,8.14-9,9.42-15.25a101.37,101.37,0,0,0,1.44-26.34c-.88-8.69-5.62-18-9.67-21.94s-10.28-5.13-17.14-3.34-10.08,4.48-13.13,10.13a44.16,44.16,0,0,0-3.76,10.17c-7.81,1.69-16.79,4.57-17.14,13.51S325.15,301.2,333.37,302.42Z" style="fill:#1e78f0"/></g><path id="object" d="M632.76,170.16c-11.75-20.31-37.5-28.09-59.55-17-20.68,10.42-25.75,35.46-23.28,57,2.34,20.35,9.76,38.69,28.32,48.48,2.61,2.41,7.44,3.18,10.4,4.39a22.81,22.81,0,0,0,.44,4.26,58.49,58.49,0,0,0-3.52,11.61c-.78,4.42,2.88,9.75,7.94,8,2.18-.78,4-.36,6.18.26,5.71,1.61,9.74-4.6,7.3-9.49a82.7,82.7,0,0,1-3.65-8.23c-.22-.57-.41-1.15-.61-1.73a5.06,5.06,0,0,0-.18-2.75c12.9-6.73,20.63-11.9,26.88-22.25C641.41,222.84,644.27,190.05,632.76,170.16Z" style="fill:#f0b441"/><g id="object-lines"><path d="M596.65,288.26c.75,58.79-4.09,70.42-2.91,129.63" style="fill:none;stroke:#dc8c2d;stroke-linecap:round;stroke-linejoin:round;stroke-width:6px"/><path d="M601.34,266.06c-3.31-1.1-7.45-1.41-9.93-.74" style="fill:none;stroke:#dc8c2d;stroke-linecap:round;stroke-linejoin:round;stroke-width:6px"/></g><g id="body-lines"><path d="M581.26,413c8.93-1.82,18.56,11.17,21.28,18.23s2.54,16.37-.63,19.69c-5.76,6-12.17-4.95-13.41-8.79,1.23,9.94-3.51,19.62-12.21,24.08" style="fill:none;stroke:#3741f0;stroke-linecap:round;stroke-linejoin:round;stroke-width:6px"/><path d="M474.12,455.08c6.7,7.32,7,59,6.63,75.49-.35,14.28-.72,34.54-.72,45.79" style="fill:none;stroke:#3741f0;stroke-linecap:round;stroke-linejoin:round;stroke-width:6px"/><path d="M609.89,413.82c-7.18.17-10.65.28-16.15,4.07" style="fill:none;stroke:#3741f0;stroke-linecap:round;stroke-linejoin:round;stroke-width:6px"/><path d="M636.62,430.41c-5,6.72-26.73,11.06-32.36,8.1" style="fill:none;stroke:#3741f0;stroke-linecap:round;stroke-linejoin:round;stroke-width:6px"/><path d="M632.76,455.24c-7.82,5.78-18.42,8.15-28.36,7.73-3.45-.15-17.74-4.94-10.84-12.71" style="fill:none;stroke:#3741f0;stroke-linecap:round;stroke-linejoin:round;stroke-width:6px"/><path d="M623.23,474.91c-6.82,3.71-17.9,4.92-24.43,0-5.55-4.21-5.47-11.54-2.93-13.88" style="fill:none;stroke:#3741f0;stroke-linecap:round;stroke-linejoin:round;stroke-width:6px"/><path d="M599.93,486.79c-7.16,1.61-18.74,2.14-23.64-4.52" style="fill:none;stroke:#3741f0;stroke-linecap:round;stroke-linejoin:round;stroke-width:6px"/><line x1="159.94" y1="905.1" x2="542.96" y2="905.1" style="fill:none;stroke:#3741f0;stroke-linecap:round;stroke-linejoin:round;stroke-width:6px"/><path d="M270.77,455.08c-7.93,15.46-8.91,149.33-6.86,220.91a27.63,27.63,0,0,0,1.06,8.16c2,6,7.91,10,10.58,15.7a16.9,16.9,0,0,1-5.4,20.29" style="fill:none;stroke:#3741f0;stroke-linecap:round;stroke-linejoin:round;stroke-width:6px"/><path d="M264.05,701.49c.47,3.32.72,9.36,2.19,12.37,1.75,3.57,3.54,7.28,3.6,11.26.09,5.34-3.07,10.38-7.37,13.54s-9.62,4.67-14.92,5.39" style="fill:none;stroke:#3741f0;stroke-linecap:round;stroke-linejoin:round;stroke-width:6px"/><path d="M232.3,722.14c1.54,8,8.55,17.29,15.25,21.91" style="fill:none;stroke:#3741f0;stroke-linecap:round;stroke-linejoin:round;stroke-width:6px"/><path d="M210,720.86a26.82,26.82,0,0,0,6.71,14.88" style="fill:none;stroke:#3741f0;stroke-linecap:round;stroke-linejoin:round;stroke-width:6px"/><path d="M529.52,483.27c-2.46,9.79-9.21,39.39-10.65,59.12" style="fill:none;stroke:#3741f0;stroke-linecap:round;stroke-linejoin:round;stroke-width:6px"/><path d="M363.67,271.3a88.81,88.81,0,0,1,4.26,27.62,70.23,70.23,0,0,1-12.21.86" style="fill:none;stroke:#3741f0;stroke-linecap:round;stroke-linejoin:round;stroke-width:6px"/></g></g></g></svg>