<svg xmlns="http://www.w3.org/2000/svg" viewBox="0 0 800 1000"><title>jake-selfie</title><g id="jake"><g id="selfie"><g id="body"><path d="M688.58,441.87c-2.72-16.9-10.25-32.67-18.46-47.66-14.81-27-33.19-51.11-48.43-77.94-3.35-5.89-12.32-20.13-21.25-32.42h0c.07-8.47-9.61-28.93-18.27-33.7a10.71,10.71,0,0,0-.65-7.14c-4-9.42-15.27-17.06-25.32-17-7.49.06-13.87,4.53-17.91,10-4.29-9.15-10.56-20.93-14.87-28.71-5.06-9.12-11-14.52-18.86-12.16s-5.32,11.21-3,18.86S510.2,237.3,516,248.76l-3.89,2.86c-6.44-7.05-14.13-16.81-21.67-22.78-6.85-5.42-16.74-9.18-20.62-2.46s1,15.57,6.7,21.9,25.69,32.61,30.38,38.76,9.46,11.61,16.71,22.17h0c17.84,28.26,43.6,63.24,54.44,80.3,12.43,19.57,27,39.4,20.1,47.86s-30.09-.64-48.87-8.14c-25-10-50-19.71-74.86-30.11-49.43-20.72-98.22-43-145.73-67.84C304.53,318.66,266.32,299,260,292s-9.81-27.52-13.22-41q-6.36-25.14-11.43-50.6c-2.65-13.2-6.14-25.21-6.72-38.1a4.73,4.73,0,0,0,4.14-1.22l.18-.18,0-.07a4.93,4.93,0,0,0,1.28-1.39A43.17,43.17,0,0,1,243.13,149c3.83-3.21,8.55-4.83,12.44-7.86,6.12-4.76,6.89-14.57-2.25-15.75A32.71,32.71,0,0,0,239.76,127c-3.5,1.08-8.85,2.27-11.07,5.46-2.57,3.67-2.95,9.92-3.53,14.2-.17,1.24-.39,2.58-.57,4-2.87-.59-6.28-1-6.85-1.28-1.66-5.79-8.09-9.92-13.14-12.53a25.45,25.45,0,0,0-3.83-1.56c-1.92-2-5.58-1.88-8.57-1.33a101.67,101.67,0,0,0-11,.46c-1,.08-2,.1-3,.11,2.69-1.4,5.27-2.73,7.11-3.63,7.06-3.48,18.11-8,16.74-15.72s-7.69-7-14.11-4.66-17.31,6.77-23.44,9.79l.88-2.82a45.24,45.24,0,0,1,13.29-8.73c6.1-2.81,17.65-10.22,12-16.48s-17.85.42-26.58,6.16c-10.19,6.7-18.82,17.74-23.38,29.06-5,12.37-1,28.87,2.14,41.64,3.56,14.58,17.17,31.68,25.88,36.87h0c1.76,12,3.57,23.82,5.85,35.22,5.09,25.49,6.73,33.3,11.9,58.7,2.57,12.64,9.31,25.49,15.2,37.06,4.22,8.3,17.37,21.73,24.59,27.23,9.71,7.42,43.7,27.1,77.07,46.5-29.11,73.61-72.27,150.43-105.28,222.24-3.38,7.34-7.72,22.48-8.6,38.35s1.8,35.91,5.4,53c3.84,18.24,7.89,36.17,11.9,54.34,7.13,32.33,23.89,103.12,24.47,106.5-7.77,6.55-14.7,16.39-17.87,20.44s-2.25,9.52,2.29,9.52H320.88c4.94,0,6.56-3.85,6.17-10.93S315.2,828,311.4,807.29c-3.72-20.21-12.72-63.34-15.72-83.66-1.18-8-4.34-26.55-4.66-34.59-.76-18.58.42-28.16,7.48-48.59a469.8,469.8,0,0,1,19.61-47.23c12.86-27.16,41.33-86.76,41.33-86.76l27.14,9.93c-7.38,16.52-12.62,26-19.72,42.61-8,18.76-15.68,37.68-22.25,57-11.92,35-9.33,70.49-7,89,2.59,20.34,19.79,123,23.24,143.52,2.16,12.86,3.49,25.89,5.52,38.79-5.11,4.78-10.38,11.43-15.45,16.26-2.72,2.58-6.61,11.54,1.05,11.54h95.45c5.85,0,7.83-6.19,7.41-13.66s-7.15-65-9.15-81.83c-2.12-17.89-13.53-88.42-15.77-106-2.76-21.67-3.65-55,.47-69.52,4.53-16,18.15-51.48,23.76-67.76,10.56-30.63,23.13-60.5,34-91q18.51,5.88,37.25,11.12c14.09,3.9,28.2,7.79,42,12.59,12.66,4.39,33.46,9.3,46.84,10.33,22.15,1.69,44.39-3,60.29-22.34S691,456.75,688.58,441.87Z" style="fill:#1e78f0"/><path d="M417.61,350a42.37,42.37,0,0,0,6.31-4.33c8,4.22,17.08,8.48,24,.93,8.52-9.31,2.16-18.08-6.09-23.74,4.15-8.38,7.22-24.15-5.15-26.82a23.8,23.8,0,0,0-6.72-.57h0c-13.8,0-23.22,4.38-35.11,9.66a1.78,1.78,0,0,0-.48,3l7.35,8c-4.64,6.67-8,14.63-8,23.62C393.73,352.5,408.4,355.09,417.61,350Z" style="fill:#1e78f0"/></g><path id="object" d="M247.4,51.59c-11.27-2.13-51.27-5.67-64.08-4.61-2.78.23-3.86,2.28-4.56,4.94C175,66.33,171.86,81,168.59,95.57c8-4.75,17.33-8.58,22.08-3.34,5.68,6.26-5.87,13.67-12,16.48a45.24,45.24,0,0,0-13.29,8.73l-.88,2.82c6.13-3,17-7.39,23.44-9.79s12.73-3,14.11,4.66-9.68,12.24-16.74,15.72c-6,3-19.93,10.39-19.93,10.39s.1,1.56.18,2.64c6.91-2.88,16.18-7.08,23.27-9.17,3.24-1,11.69-3,13,2.65s-5.29,11.45-10.93,15c-6.21,3.88-13.43,8.16-20,11.46-3.36,1.77-5.07,4.3-4.93,7.25,2.21.17,15.87,1.2,24.36,1.56,10.57.45,25.94,1.36,36.49,1.58,4.08.09,5.29-1.58,6.17-6.16,4.1-21.35,7.85-40.38,11.27-61.83,2.69-16.87,6-30.31,8-47.81C252.84,54.67,251,52.27,247.4,51.59Z" style="fill:#f0b441"/><g id="object-lines"><path d="M272.05,92.72s7.56,7.94,10.24,10.19" style="fill:none;stroke:#dc8c2d;stroke-linecap:round;stroke-linejoin:round;stroke-width:6px"/><path d="M278,48.21l14.36-6.58" style="fill:none;stroke:#dc8c2d;stroke-linecap:round;stroke-linejoin:round;stroke-width:6px"/><path d="M283.92,72.64a65.68,65.68,0,0,1,13.54,1.13" style="fill:none;stroke:#dc8c2d;stroke-linecap:round;stroke-linejoin:round;stroke-width:6px"/><line x1="194.34" y1="58.85" x2="193" y2="65.26" style="fill:none;stroke:#dc8c2d;stroke-linecap:round;stroke-linejoin:round;stroke-width:6px"/></g><g id="body-lines"><path d="M521.32,292.24c-1.52-14.63,2.6-29.85,13.12-35.95,4.15-2.4,10.82-4.8,14.34-2.19s1.36,7.4-.23,10.1c-2.17,3.7-5.74,6.82-8,10.33,9-2.15,16.59,1.31,20.08,7.72" style="fill:none;stroke:#3741f0;stroke-linecap:round;stroke-linejoin:round;stroke-width:6px"/><path d="M553.56,242.77c5.55,5.68,6.33,13.42,13.25,15s11.4.32,14.84-5.17" style="fill:none;stroke:#3741f0;stroke-linecap:round;stroke-linejoin:round;stroke-width:6px"/><line x1="170.6" y1="916.41" x2="544.04" y2="916.41" style="fill:none;stroke:#3741f0;stroke-linecap:round;stroke-linejoin:round;stroke-width:6px"/></g></g></g></svg>