<svg xmlns="http://www.w3.org/2000/svg" viewBox="0 0 800 1000"><title>jake-questioning</title><g id="jake"><g id="questioning"><g id="body"><path d="M614.34,443.5c-9.43-12.28-44.05-40.89-71.61-59.75-13.72-9.39-31.61-19.69-47.33-25.33-19.7-7.08-40.45-10.07-54.49-10.19-8.66-.07-18,0-27.38.26a13.22,13.22,0,0,0-2.13-.16c-17,0-45.5.2-58-1.48-21.61-2.89-42.89-6.18-64-11.77a251.65,251.65,0,0,1-49-18.33,206.5,206.5,0,0,1,36.86-31.88c12.16-8.23,29.24-18.09,43.34-22.13,7.74.29,15.06,1,18.81-3.57,1.36-1.67,1.16-7.59.33-10.27,6.75-2.41,13.85-4.51,20.88-2.22a17.85,17.85,0,0,1,8.65,5.65c1.88,2.45,2.86,5.66,5.61,7.25,2,1.17,4.67,1.38,6.46-.39,2-2,1.85-5.53,1.45-8.16a23.66,23.66,0,0,0-8.94-14.82c-5.18-3.92-11.6-5.31-17.88-6.13a17.69,17.69,0,0,0,0-9.25c-1-3.34-3.71-6-6.94-6.34-3.78-11.84-24.18-8.75-33.26-6.41A125,125,0,0,0,288,219l-.06,0c-14.12,6.3-40.65,19.59-56.24,29.18s-39.5,27.77-48,39.61-14.33,26.07-14.33,41.61,9.14,30.79,27.64,43.28c20.21,13.65,67.83,31,94.57,38,1.41.37,2.84.73,4.28,1.09-.89,12.2-1.75,24.67-2.78,38.68-.93,12.49-3.39,48.62-4.7,64.66-2.38,29-2.94,83.45-4.53,112.57S282,686,282,715.14c.12,57.89-1.79,118-1.45,175.88-6.71,5.33-12.11,10.27-17.35,15.15-3.57,3.32.19,9.05,4.42,8.84,14.12-.71,27.11.4,41.23,0,13.05-.38,33.61,0,40.36,0s7.7-5.87,7.7-10.78-.66-55.41-.37-84.93c.53-54.46,1.94-119.38,2.82-173.84.44-27.4,2.33-97,6-122.22,18.51-1.14,28.63-1.59,47,1,3,28.56,2.65,120.74,2.38,148.66-.14,13.44-.77,57.78.06,71.25.86,13.85-.32,77.38.1,90.75.81,25.59,1.52,50.08,1.74,75.68,0,3.82,3.65,5.09,8.08,5.09s77.46-.23,84.1-.23,7-6.69,2.63-10c-5.16-3.89-11.29-8-16.05-12.37,0,0,.88-62,.7-80.91-.32-34.09.9-68.17.34-102.26-.57-34.5.19-68.88.91-103.37.07-3.46.1-6.92.11-10.38a6,6,0,0,0,2.74,1.86c13.32,5.19,32.39-.48,49.38-9.93s40.11-32.41,52.22-44.27c11.62-11.39,27.53-34.63,28.66-54.49S623.77,455.79,614.34,443.5Zm-97.88,98.06h0c-4.25-12.66-12.52-23.64-22.59-32.61l-.18-3.32c-1.42-26.47-1.41-51-.26-79.35,10.43,6.35,34,22.48,47.95,32.35s29.48,24.46,29.64,32.14S532.68,536.67,516.46,541.56Z" style="fill:#1e78f0"/><path d="M374.45,293.66c-7.58-2.39-18.63-2-17.69,8.21.83,9.07,10.8,11.26,18.92,11.94A23.94,23.94,0,0,0,385.57,328a21.39,21.39,0,0,0,17.33,2.93c5.69-1.56,10.07-5.72,12.91-10.79A39.67,39.67,0,0,0,420,307.6l8.83.09c1.65,0,2.92-1,2.67-2.31A94.39,94.39,0,0,0,417.43,272a25.69,25.69,0,0,0-2.56-3.56h0a21.37,21.37,0,0,0-6.2-5,23.61,23.61,0,0,0-19.48-.5c-10.21,4.63-13.64,16.85-14.63,29.26C374.52,292.67,374.48,293.17,374.45,293.66Z" style="fill:#1e78f0"/></g><g id="body-lines"><path d="M492.59,507.48c-1.86-3-19.09-18.21-24.92-12.36-6.1,6.12,17.67,21.56,21.49,26.51-7.55-6.63-23.2-20.33-27.43-14.19s6.42,12.95,11.83,17.9c6.8,6.23,11.19,12.44,17.33,18.74-3.36-4.09-15.48-18.75-21.62-15.31-8.52,4.78,6.81,15.87,9.77,19.54,9.13,11.28,14.39,23.84,18.29,42.28" style="fill:none;stroke:#3741f0;stroke-linecap:round;stroke-linejoin:round;stroke-width:6px"/><line x1="584.45" y1="915.76" x2="183.62" y2="915.76" style="fill:none;stroke:#3741f0;stroke-linecap:round;stroke-linejoin:round;stroke-width:6px"/><path d="M339.85,248.2c0-7.32-4.14-14-9.16-19-1.88-1.88-4.07-3.64-6.65-3.29-2.79.37-5.31,2.25-5,6.29.23,3.17,2.34,7.21,3.32,11.68-4.46-3.69-9.36-5.47-14.11-4" style="fill:none;stroke:#3741f0;stroke-linecap:round;stroke-linejoin:round;stroke-width:6px"/><path d="M348.61,214.59a13.88,13.88,0,0,1-2.4,10.4,24.53,24.53,0,0,1-11.57,8.83" style="fill:none;stroke:#3741f0;stroke-linecap:round;stroke-linejoin:round;stroke-width:6px"/><path d="M355.11,231.92c-1.81,3.67-3.51,5.87-6.26,7.75s-7.1,3.37-9.44,2.75" style="fill:none;stroke:#3741f0;stroke-linecap:round;stroke-linejoin:round;stroke-width:6px"/><path d="M328.55,226.38a12.56,12.56,0,0,1,2.31-4.21,11.77,11.77,0,0,1,3-2.89" style="fill:none;stroke:#3741f0;stroke-linecap:round;stroke-linejoin:round;stroke-width:6px"/></g></g></g></svg>