<svg xmlns="http://www.w3.org/2000/svg" viewBox="0 0 800 1000"><title>jake-phone-call</title><g id="jake"><g id="phone-call"><g id="body"><path d="M605.1,444.16c-9.43-12.29-45.18-43.61-72.74-62.48-13.72-9.39-28.55-19.2-44.27-24.85-19.71-7.08-42.38-7.83-56.41-7.95-12-.1-25.2,0-38.24.74h-.07c-22.75,0-55.87,7.25-69.66,11.32s-23.69,9.79-32.48,18c-17.06,16-28.64,35.25-40.21,55.24-.75,1.3-1.51,2.61-2.28,3.91,5.18-19.24,16.45-41,25.08-59,2.16-3.66,4.23-7,6.09-9.7,5.69-8.33,13.75-19.22,19.69-27.16a19.3,19.3,0,0,0,3.48-.57,36,36,0,0,0,7.36-2.41,26.92,26.92,0,0,0,6.83-5.3,16.89,16.89,0,0,0,3.61-6.57c.95-3,1.72-6,2.5-9s1.54-6.25,2.28-9.38c.54-2.27,1.59-5,.44-7.29-2.07-4.05-7.51-2.32-9.63.63-1.54,2.13-2.24,4.79-3.2,7.2q-1.72,4.29-3.8,8.4c-.7,1.4-1.42,3.11-3.2,3.23-1.42.09-3-.63-4.29-1l-1.73-.53a14,14,0,0,0-4-6.12,47,47,0,0,0-8.32-6.7,20.56,20.56,0,0,0-4.62-2,41.2,41.2,0,0,0,2.27-10,65.62,65.62,0,0,0,.28-7.29,11.73,11.73,0,0,0,1.77-1.89c1.19-1.64,2.05-4.22.79-6.06a3.7,3.7,0,0,0-3-1.33l-.21-3.14c.76-.33,1.52-.68,2.26-1,5.6-2.72,13-7.59,10.25-14.9a1.36,1.36,0,0,0-1.41-.79,46.55,46.55,0,0,0-12,2.33l-.22-3.58c.2-.09.4-.19.61-.27,4.28-1.71,9-2.59,12.72-5.51,2.13-1.69,5.16-6.24,1.62-8.24-1.79-1-4.68-.15-6.58.12a32.92,32.92,0,0,0-7.88,2c-4.55,1.89-8.36,5.12-11.88,8.5a103.77,103.77,0,0,0-11.16,11.9,65.51,65.51,0,0,0-12.49,48.42,324.37,324.37,0,0,0-26,32.36c-13,17.47-31.19,47.15-38.2,62.67-9,19.92-18.25,42.58-18.25,62.33s3.56,40.82,20.64,53.43,46.95,12,57.41,8.39c9.26-3.2,23.1-11,32-18.31-.36,8.67-.65,17.35-.77,26-.39,29.14.3,58.3-1.29,87.42s-1.9,58.25-1.84,87.4c.13,57.9-1.78,118-1.45,175.88C264.64,897,259.24,902,254,906.82c-3.58,3.32.19,9,4.41,8.84,14.12-.71,27.11.4,41.23,0,13.06-.39,33.61,0,40.36,0s7.7-5.88,7.7-10.79-.66-55.41-.37-84.92c.53-54.47.69-108.93.9-163.4.11-27.4,3.63-108.22,3.91-133.67a243.83,243.83,0,0,1,52,2c-3,28.13,1.66,120.74,1.38,148.67-.13,13.43-.77,57.78.06,71.24.86,13.86-.31,77.38.11,90.75.8,25.59,1.51,50.08,1.74,75.69,0,3.81,3.65,5.08,8.07,5.08S493,916,499.61,916s7-6.68,2.63-10c-5.16-3.89-11.29-8-16.05-12.37,0,0,.88-62,.7-80.91-.32-34.09.9-68.17.34-102.26-.57-34.5.19-68.88.91-103.37.07-3.46.1-6.92.11-10.38a6,6,0,0,0,2.74,1.86c13.32,5.19,32.39-.48,49.38-9.93s40.11-32.41,52.22-44.27c11.63-11.39,27.53-34.62,28.66-54.49S614.53,456.44,605.1,444.16Zm-97.87,98.05h0c-4.25-12.66-12.52-23.64-22.59-32.61-.06-1.1-.13-2.21-.19-3.32-1.42-26.47-1.41-51-.26-79.35,10.43,6.36,34,22.48,47.95,32.35s29.48,24.46,29.64,32.14S523.44,537.32,507.23,542.21Z" style="fill:#1e78f0"/><path d="M350.06,298.38a24,24,0,0,0,8.61,15,21.37,21.37,0,0,0,17,4.45c5.81-1.06,10.54-4.81,13.82-9.61a39.67,39.67,0,0,0,5.25-12.1l8.79.87c1.64.16,3-.74,2.87-2.07a79.53,79.53,0,0,0-9.3-29.78,24,24,0,0,0-9.72-14A17.4,17.4,0,0,0,373.45,249a1.64,1.64,0,0,0-.74,0c-13.55,2.3-19.76,15.52-21.85,27.79l-.24,1.47c-7.33-3.05-18.38-3.61-18.35,6.61C332.31,293.92,342,297,350.06,298.38Z" style="fill:#1e78f0"/></g><g id="body-lines"><path d="M483.35,508.13c-1.86-3-19.09-18.21-24.92-12.36-6.1,6.12,17.68,21.56,21.49,26.51-7.55-6.63-23.19-20.33-27.43-14.19S458.91,521,464.32,526c6.8,6.23,11.19,12.44,17.33,18.74-3.36-4.09-15.48-18.75-21.61-15.31-8.52,4.78,6.8,15.88,9.76,19.54,9.13,11.28,14.39,23.84,18.29,42.29" style="fill:none;stroke:#3741f0;stroke-linecap:round;stroke-linejoin:round;stroke-width:6px"/><line x1="575.21" y1="916.41" x2="174.38" y2="916.41" style="fill:none;stroke:#3741f0;stroke-linecap:round;stroke-linejoin:round;stroke-width:6px"/><path d="M287,420.35c-5.63,12.25-6.76,35.18-8.34,49.91-2.51,23.4-3.33,43.13-3.33,43.13" style="fill:none;stroke:#3741f0;stroke-linecap:round;stroke-linejoin:round;stroke-width:6px"/><path d="M248.94,441.1c-2.57,10.07-6.18,22.42-8.76,32.5" style="fill:none;stroke:#3741f0;stroke-linecap:round;stroke-linejoin:round;stroke-width:6px"/></g><path id="object" d="M328.68,244.88c-1-1.27-3.23-1.59-4.68-2-2-.62-4.05-1.16-6.1-1.65-4.32-1-8.71-1.81-13.1-2.52-4.84-.79-9.7-1.53-14.55-2.3-1.72-.27-3.69-.71-5.26.33a3.14,3.14,0,0,0-1.41,2.08,1.17,1.17,0,0,0-.52.62c-1,2.74-2,5.49-3,8.26a26.91,26.91,0,0,1,4.49-2.41,32.92,32.92,0,0,1,7.88-2c1.9-.27,4.79-1.13,6.58-.12,3.54,2,.51,6.55-1.62,8.24-3.69,2.92-8.44,3.8-12.72,5.51a36.72,36.72,0,0,0-8.27,4.64,1.34,1.34,0,0,1,0,.44c-.22.87-.44,1.74-.67,2.6a46.82,46.82,0,0,1,20.59-6.16,1.36,1.36,0,0,1,1.41.79c2.74,7.31-4.65,12.18-10.25,14.9s-11.3,4.47-16.79,7c-.12.33-.23.65-.35,1a30.2,30.2,0,0,1,11.39-3.6c2-.2,5.39-.82,6.7,1.1s.4,4.42-.79,6.06c-1.69,2.33-4.38,3.81-6.74,5.36l-8.51,5.61a24.56,24.56,0,0,0-5.88,5,23.62,23.62,0,0,0-.24,8.86c.77,3.47,3.47,3.92,6.52,4.58l12.39,2.66c8.75,1.88,20.8,4.76,22.36,5,3,.54,5.18-.9,6.41-4.81s3.61-13.55,5.56-21.93c2-8.75,4.15-17.48,6.07-26.26.95-4.36,1.82-8.73,2.5-13.14.33-2.14.62-4.29.84-6.45C329.09,248.58,329.75,246.25,328.68,244.88Z" style="fill:#f0b441"/></g></g></svg>